<svg id="Layer_1" data-name="Layer 1" xmlns="http://www.w3.org/2000/svg" version="1.1" viewBox="0 0 200 72" aria-hidden="true">
    <path class="cls-4" d="M83.6 12.2h9.9V55h-9.9V12.2ZM80.4 12.2v.2l-13 21.1v.6l13 20.9v.2H68.2s-.2 0-.3-.2L60 42.1h-.2L52.4 55s-.2.2-.3.2H40.6s-.2 0 0-.2l13.5-22v-.7L42.3 12.4v-.2h11.8s.2.1.2.2l7.1 12c0 .1.2.1.3 0l7.3-12c0-.1 0-.2.3-.2h11Z"></path>
    <path style="fill:#fc3;stroke-width:0" d="M142.7 34.1 164.6 0 200 55.2h-24.1l-13.5-21.1h-19.7z"></path>
    <path class="cls-4" d="M37 12.2h-9.2c-.1 0-.2.1-.3.2L0 55.1H11.4l3.7-5.8H27.1V55s0 .2.1.2H37V12.2Zm-9.7 28.5H20s-.1 0 0 0l7.7-12.3c0-.1.1 0 .1 0l-.5 12.3ZM99.4 55.2h12.9c1.6 0 3.3-.3 4.9-.8 6-1.9 9.1-7.8 9.1-12.9 0-8.1-6.3-10.9-13.8-14.1-1.3-.6-2.9-1.3-2.9-3.1s1.7-2.7 3.6-2.7h10.2v-9.5h-10.7c-8.9 0-14.2 5.3-14.2 12.7s4.1 9.6 10.1 12c4.2 1.7 6.9 2.4 6.9 5.8s-1.1 3.5-3.3 3.5H99.3v9h.2ZM131.9 12c-2 0-3.6 1.6-3.6 3.6s1.6 3.6 3.6 3.6 3.6-1.6 3.6-3.6-1.6-3.6-3.6-3.6Zm0 6.8c-1.8 0-3.2-1.5-3.2-3.2s1.5-3.2 3.2-3.2 3.2 1.5 3.2 3.2c0 1.7-1.4 3.2-3.2 3.2Z"></path>
    <path class="cls-4" d="m133.6 17.6-.8-1.9c.5-.1.8-.6.8-1.1s-.2-.7-.4-.9c-.3-.2-.6-.3-1-.3h-1.6v4.2h.5v-1.8h1.2l.8 1.8h.5Zm-2.5-2.2v-1.5h1c.2 0 .4 0 .6.1.2.1.3.3.3.6s-.1.4-.2.5c-.2.2-.4.2-.7.2h-1ZM8.6 71.2c-1.2.6-2.1.8-3.3.8-3.3 0-5-2.1-5-4.3s1.9-4.3 5.2-4.3 2.3.2 3.1.7V66c-.9-.5-1.9-.9-3-.9-1.8 0-3.1 1.1-3.1 2.5s1.3 2.6 3.1 2.6 1.9-.3 3.1-.9v1.9h-.1ZM21 72c-3.2 0-4.9-2.2-4.9-4.3s1.7-4.3 4.9-4.3 4.9 2.3 4.9 4.3S24.1 72 21 72Zm0-6.8c-1.6 0-2.7 1-2.7 2.5s1.1 2.5 2.7 2.5 2.7-1 2.7-2.5-1.1-2.5-2.7-2.5ZM40.7 63.6h1.9V72h-2.1v-5.2l-2.3 2.6h-.3l-2.3-2.6V72h-2.1v-8.4h1.9l2.8 3.1 2.5-3.1ZM58.4 63.6h1.9V72h-2.1v-5.2l-2.3 2.6h-.3l-2.3-2.6V72H51v-8.4h1.9l2.8 3.1 2.7-3.1ZM76.6 63.6v4.7c0 2.8-1.9 3.7-4.3 3.7S68 70.9 68 68.3v-4.8h2.1v4.8c0 1.2.9 1.9 2.1 1.9s2.2-.6 2.2-2.1v-4.7h2.2v.2ZM93.2 71.9h-1.8l-4.8-5.4v5.4h-2.1v-8.4h2l4.6 5.1v-5.1h2.1v8.4ZM103.5 71.9h-2.1v-8.4h2.1v8.4ZM118.9 71.2c-1.2.6-2.1.8-3.4.8-3.3 0-5-2.1-5-4.3s1.9-4.3 5.2-4.3 2.3.2 3.1.7V66c-.9-.5-1.9-.9-3-.9-1.8 0-3.1 1.1-3.1 2.5s1.3 2.6 3.1 2.6 1.9-.3 3.1-.9v1.9ZM134.3 71.9H132l-.7-1.7h-3.8l-.6 1.7h-2.3l3.5-8.4h2.5l3.7 8.4Zm-5-6.4-1.3 3.2h2.6l-1.3-3.2ZM146.9 65.1h-3.1v6.8h-2.1v-6.8h-3.1v-1.5h8.4v1.5ZM155.6 71.9h-2.1v-8.4h2.1v8.4ZM167 72c-3.2 0-4.9-2.2-4.9-4.3s1.7-4.3 4.9-4.3 4.9 2.3 4.9 4.3-1.8 4.3-4.9 4.3Zm0-6.8c-1.6 0-2.7 1-2.7 2.5s1.1 2.5 2.7 2.5 2.7-1 2.7-2.5-1.1-2.5-2.7-2.5ZM187 71.9h-1.8l-4.8-5.4v5.4h-2.1v-8.4h2l4.6 5.1v-5.1h2.1v8.4ZM199.5 65.7c-1.2-.5-2-.7-2.7-.7s-1.3.3-1.3.7c0 1.3 4.4.9 4.4 3.8s-1.4 2.5-3.3 2.5-2.2-.4-3.1-.8v-1.8c1.2.8 2 1.1 2.9 1.1s1.3-.3 1.3-.8c0-1.4-4.4-.9-4.4-3.9s1.3-2.4 3.3-2.4 1.8.2 2.9.6v1.7Z"></path>
    <path style="stroke-width:0;fill:#000" d="M162.4 34.1h-3.6l13.6 21.1h3.5l-13.5-21.1z"></path>
    <path style="fill:#f03;stroke-width:0" d="m158.8 34.1 13.6 21.1h-43.2l13.5-21.1h16.1z"></path>
</svg>