<svg id="Слой_1" data-name="Слой 1" xmlns="http://www.w3.org/2000/svg" viewBox="0 0 200.80171 41.94286" width="200px" height="43px">
  <defs>
    <style>
      .cls-1 {
        fill: #008aff;
        fill-rule: evenodd;
      }

      .cls-2 {
        fill: #fefefe;
      }
    </style>
  </defs>
  <title>commax_logo</title>
  <g>
    <path class="cls-1" d="M46.46284,0C31.78435,0,29.41409,6.22857,27.78632,13.91429c-1.51354,7.11428-2.37026,13.91428,12.76514,13.91428,15.164,0,17.2201-6.91428,18.67652-13.91428C60.88431,6.22857,60.91287,0,46.46284,0Zm3.998,13.91429c-1.02807,4.31428-2.28459,8.14285-8.88134,8.14285-6.5682,0-6.02561-3.82857-5.0261-8.14285C37.61005,9.42857,38.95225,5.8,45.43477,5.8c6.454,0,6.02561,3.62857,5.0261,8.11429Z"/>
    <path class="cls-1" d="M98.89417.8H89.44168a1.99223,1.99223,0,0,0-1.71344,1L78.93257,16.91429l-1.77057-15A1.251,1.251,0,0,0,75.87692.8h-9.224A1.46707,1.46707,0,0,0,65.225,1.91429l-5.71147,24A.873.873,0,0,0,60.02759,27a.73435.73435,0,0,0,.42836.02857h6.13983a1.46708,1.46708,0,0,0,1.42787-1.11428L71.422,11.65714c.11422-.62857.31413-.6.3998,0l2.02757,14.22858A1.303,1.303,0,0,0,75.163,27.02857h3.2841A1.89663,1.89663,0,0,0,80.18909,26l8.453-14.48571c.34269-.54286.48547-.48572.31413.14285L85.64355,25.91429A.84863.84863,0,0,0,86.15758,27a.79043.79043,0,0,0,.37125.02857h6.16838a1.43486,1.43486,0,0,0,1.39932-1.11428l5.65436-24A.90886.90886,0,0,0,99.15118.82858.79.79,0,0,0,98.89417.8Z"/>
    <path class="cls-1" d="M140.15956,27.02857a2.2471,2.2471,0,0,0,1.82768-.94285l4.4835-6.25715h11.70851v6.05715a1.06806,1.06806,0,0,0,1.02808,1.14285h5.85425l-3.39832,4.31429c-.39981.51428-.1999.91428.42836.91428h9.08124a2.299,2.299,0,0,0,1.82767-.91428l11.36583-15.42857L187.8218,26a1.56872,1.56872,0,0,0,1.5421,1.08572h7.25357a.707.707,0,0,0,.714-1.05715l-5.34024-12.91428L200.6155,1.74286c.37125-.51429.17134-.91428-.45691-.91428H191.8484a2.34084,2.34084,0,0,0-1.82767.91428L183.99513,10l-2.62729-8.05714A1.50255,1.50255,0,0,0,179.88285.8H172.2866a.71736.71736,0,0,0-.82817.6.66258.66258,0,0,0,.08568.45714l4.42639,11.2-9.481,12.08572V1.97143A1.10764,1.10764,0,0,0,165.48994.8H151.26838a2.25849,2.25849,0,0,0-1.82768.91429L133.677,23.57143l5.16889-21.68571a.82631.82631,0,0,0-.57116-1.05714.66911.66911,0,0,0-.31413-.05715h-9.45248A2.104,2.104,0,0,0,126.76615,1.8L117.999,16.91429l-1.77055-15A1.27088,1.27088,0,0,0,114.94341.8h-9.224a1.46707,1.46707,0,0,0-1.42787,1.11429l-5.71148,24A.873.873,0,0,0,99.09407,27a.82175.82175,0,0,0,.37124.02857h6.16839a1.43485,1.43485,0,0,0,1.39931-1.11428l3.39833-14.25715c.14279-.62857.34269-.6.42836,0l2.02758,14.22858a1.275,1.275,0,0,0,1.28508,1.14285H117.485A1.82612,1.82612,0,0,0,119.19845,26l8.53865-14.51428c.31413-.54286.45693-.48572.28558.14285l-3.36977,14.25715a.83641.83641,0,0,0,.514,1.08571A.79044.79044,0,0,0,125.53819,27Zm18.01969-12.77143h-7.68193l7.68193-10.71428Z"/>
    <path class="cls-1" d="M23.67406,20.97143c-1.742.05714-5.0261.17143-7.25357.14286-3.741,0-6.1684-1.25714-6.968-3.02857a6.60557,6.60557,0,0,1,0-4.2,8.79163,8.79163,0,0,1,2.08469-4.14286c1.57065-1.68572,4.34072-2.68572,8.25307-2.88572,2.4845-.08571,5.68292,0,7.36781.11429a1.08123,1.08123,0,0,0,1.19941-.91429l1.02806-4.11428A.86789.86789,0,0,0,28.81438.85714,1.82356,1.82356,0,0,0,28.61448.8,63.37224,63.37224,0,0,0,17.70557.37143C13.56475.74286,9.90941,1.65715,6.91088,3.85714A16.89509,16.89509,0,0,0,.42836,13.88572,14.73517,14.73517,0,0,0,0,17.37143a9.7767,9.7767,0,0,0,2.256,6.51429c1.9419,2.2,4.969,3.42857,8.967,3.77142a61.79263,61.79263,0,0,0,11.02314-.42857,1.53494,1.53494,0,0,0,1.19941-1.14285l.99951-4.17143a.70571.70571,0,0,0-.45692-.88572A1.07029,1.07029,0,0,0,23.67406,21Z"/>
  </g>
</svg>
