<svg version="1.2" xmlns="http://www.w3.org/2000/svg" viewBox="0 0 362 128" width="362" height="128">
	<title>iss-logos-2022-russia-1-svg</title>
	<style>
		tspan { white-space:pre } 
		.s0 { fill: #113e74 } 
		.s1 { fill: #3faae5 } 
		.s2 { fill: #003882 } 
		.s3 { fill: #00a4e1 } 
		.t4 { font-size: 11px;fill: #231f20;font-weight: bold;font-family: "Myriad Pro" } 
		.s5 { fill: #ffffff } 
		.s6 { fill: #231f20 } 
		.s7 { fill: #a6d6f3 } 
		.s8 { fill: #aad0e7 } 
		.t9 { font-size: 18px;fill: #231f20;font-family: "Segoe UI" } 
	</style>
	<g id="g8">
		<g id="g10">
			<path id="path12" class="s0" d="m147.5 103.9h13.4v-75.4h-13.4z"/>
			<path id="path14" class="s0" d="m234.2 59.8h-28.1c-14.8 0-15.4-2.8-15.4-9.2 0-9.5 4.3-10.5 22.8-10.5h10c20.9 0 23.2 1.7 24 6.1l0.2 1.6 12.9-0.2-0.2-2.1c-1.2-12.2-9.9-17-31.1-17h-20.5c-19.6 0-30.9 3.5-30.9 21.5 0 21.3 13.1 22.2 40.3 22.2h18c11.6 0 13.3 2 13.3 9.1 0 8.2-2.2 11-15.8 11h-29.4c-12.5 0-13.5-3.9-13.5-8.2v-2l-12.8 0.3v1.9c0 19.6 19.6 19.6 27.9 19.6h26.3c11.3 0 30.1 0 30.1-20.4v-4.5c0-17-15-19.2-28.1-19.2z"/>
			<path id="path16" class="s0" d="m330.3 59.8h-28c-14.9 0-15.5-2.8-15.5-9.2 0-9.5 4.3-10.5 22.8-10.5h10.1c20.8 0 23.1 1.7 23.9 6.1l0.3 1.6 12.9-0.2-0.3-2.1c-1.2-12.2-9.9-17-31.1-17h-20.4c-19.6 0-31 3.5-31 21.5 0 21.3 13.1 22.2 40.3 22.2h18c11.6 0 13.4 2 13.4 9.1 0 8.2-2.3 11-15.9 11h-29.4c-12.5 0-13.5-3.9-13.5-8.2v-2l-12.8 0.3v1.9c0 19.6 19.6 19.6 28 19.6h26.3c11.2 0 30 0 30-20.4v-4.5c0-17-15-19.2-28.1-19.2z"/>
			<path id="path18" class="s0" d="m90.9 24h-43.8l-2.1-2.6h48z"/>
			<path id="path20" class="s0" d="m65 66.2l-2.1 2.6-22.9 28.4-2.1 2.6h47.9l-9.1 11.2h-43.7l-2.1-2.6-2.5 3-0.9 1.2-5.7 7-2 2.6h-0.1 64.2l27.2-33.6h-48.1l2.1-2.6 7.1-8.6h47.9l7-8.6 2.1-2.6z"/>
			<path id="path22" class="s1" d="m109.1 86l2 2.6h-48.1l2.1-2.6z"/>
			<path id="path24" class="s1" d="m127.2 63.7h-0.1v-0.1l-25-31h-48.2l-6.8-8.6-2.1-2.6h48l-9.1-11.2h-64.2l2.1 2.6 25 30.9 2.1 2.6 2.1-2.6 23.9 0.1h19.9l9.1 11.2h-47.9l2.1 2.6 4.9 6.1 2 2.5h64.2z"/>
			<path id="path26" class="s1" d="m78.8 108.4h-47.9l2.1 2.6h47.9v-0.1z"/>
			<path id="path28" class="s0" d="m99 43.8l-48-0.1-2.1 2.6 48 0.1z"/>
			<path id="path30" class="s0" d="m30.9 66.2h15.9l-27 33.6h-16.1z"/>
			<path id="path32" class="s1" d="m46.8 66.2h-15.9l-9.1-11.2h16z"/>
			<path id="path34" class="s2" d="m-11 202.7h153.9v117h-153.9z"/>
			<path id="path36" class="s3" d="m154.1 202.7h153.9v117h-153.9z"/>
			<g id="g38">
				<text id="tspan40" style="transform: matrix(1.333,0,0,1.333,-9.286,192.357)" >
					<tspan x="0" y="0" class="t4">ISS Dark_BlueISS Blue
</tspan>
				</text>
			</g>
			<path id="path44" fill-rule="evenodd" class="s5" d="m170.6 224.4v4.2h4.9v-4.2h1.4v10.2h-1.4v-4.8h-4.9v4.8h-1.3v-10.2zm13.8 5.4h-4v3.7h4.4v1.1h-5.7v-10.2h5.5v1.1h-4.2v3.2h4zm7.7 4.8l-1.3-2.3c-0.5-0.8-0.8-1.4-1.1-2h-0.1c-0.3 0.6-0.6 1.1-1.1 2l-1.2 2.3h-1.5l3.1-5.2-3-5h1.5l1.4 2.4c0.4 0.6 0.6 1.2 0.9 1.7h0.1c0.2-0.6 0.5-1.1 0.9-1.7l1.4-2.4h1.5l-3.1 4.9 3.2 5.3zm3.5-5.2c-0.5 0-0.8-0.4-0.8-0.9 0-0.6 0.3-1 0.9-1 0.5 0 0.9 0.4 0.9 1 0 0.5-0.4 0.9-0.9 0.9zm0 5.3c-0.6 0-0.9-0.4-0.9-0.9 0-0.6 0.4-0.9 0.9-0.9 0.5 0 0.9 0.3 0.9 0.9 0 0.5-0.4 0.9-0.9 0.9zm6.1-0.1l0.4-3h-1.3v-0.9h1.4l0.3-2.2h-1.3v-0.9h1.4l0.4-2.9h0.9l-0.4 2.9h1.6l0.4-2.9h0.8l-0.3 2.9h1.2v0.9h-1.4l-0.2 2.2h1.3v0.9h-1.5l-0.4 3h-0.9l0.4-3h-1.6l-0.3 3zm3-3.9l0.2-2.2h-1.5l-0.3 2.2zm6.9 4c-1.9 0-3.2-1.8-3.3-5 0-3.3 1.5-5.1 3.5-5.1 2 0 3.2 1.8 3.2 5 0 3.3-1.2 5.1-3.4 5.1zm0.1-1c1.3 0 2-1.6 2-4.1 0-2.4-0.6-4-2-4-1.2 0-2 1.6-2 4 0 2.6 0.8 4.1 2 4.1zm7.7 1c-2 0-3.3-1.8-3.3-5 0-3.3 1.4-5.1 3.4-5.1 2.1 0 3.3 1.8 3.3 5 0 3.3-1.3 5.1-3.4 5.1zm0.1-1c1.3 0 2-1.6 2-4.1 0-2.4-0.7-4-2-4-1.3 0-2 1.6-2 4-0.1 2.6 0.7 4.1 1.9 4.1zm7.9-9.1c1.9 0 2.9 1.2 2.9 2.4 0 0.8-0.5 1.7-1.7 2.3 1.3 0.5 2 1.4 2 2.6 0 1.7-1.5 2.8-3.3 2.8-2.1 0-3.3-1.2-3.3-2.6 0-1.2 0.7-2.1 1.9-2.6v-0.1c-1.1-0.5-1.6-1.4-1.6-2.2 0-1.6 1.4-2.6 3.1-2.6zm-0.1 9.2c1.2 0 2-0.8 2-1.8 0-1.2-0.9-1.7-2.2-2.1-1.2 0.3-1.8 1.1-1.8 2 0 1 0.7 1.9 2 1.9zm0-8.3c-1.1 0-1.7 0.8-1.7 1.6 0 1 0.7 1.5 1.9 1.8 0.8-0.3 1.4-0.9 1.4-1.8 0-0.7-0.4-1.6-1.6-1.6zm10.3 4.3h-4v3.7h4.4v1.1h-5.7v-10.2h5.5v1.1h-4.2v3.2h4zm7.4 0h-3.9v3.7h4.4v1.1h-5.8v-10.2h5.6v1.1h-4.2v3.2h3.9zm4.9 5c-2 0-3.3-1.8-3.3-5.1 0-3.3 1.4-5.1 3.4-5.1 2.1 0 3.3 1.8 3.3 5 0 3.3-1.3 5.2-3.4 5.2zm0-1.1c1.4 0 2-1.5 2-4.1 0-2.4-0.6-4-2-4-1.2 0-2 1.6-2 4 0 2.6 0.8 4.1 2 4.1zm-80.7 11.9c0.7-0.1 1.7-0.2 2.5-0.2 1.5 0 2.4 0.2 3 0.8 0.5 0.5 0.8 1.2 0.8 2 0 1.3-0.8 2.2-1.9 2.5v0.1c0.8 0.3 1.2 1 1.5 2.1 0.3 1.4 0.6 2.4 0.8 2.7h-1.4c-0.2-0.3-0.4-1.1-0.7-2.4-0.3-1.4-0.8-1.9-2-2h-1.3v4.4h-1.3zm1.3 4.7h1.4c1.4 0 2.3-0.8 2.3-2 0-1.3-1-1.8-2.4-1.8q-0.9 0-1.3 0.1zm14.6 4.9c-0.6 0.3-1.7 0.6-3.1 0.6-1.6 0-2.8-0.4-3.8-1.4-0.9-0.8-1.4-2.2-1.4-3.7 0-3.1 2.1-5.3 5.5-5.3 1.2 0 2.1 0.2 2.5 0.5l-0.3 1c-0.5-0.2-1.2-0.4-2.3-0.4-2.4 0-4.1 1.5-4.1 4.1 0 2.6 1.6 4.1 4 4.1 0.8 0 1.4-0.1 1.7-0.3v-3h-2v-1.1h3.3zm2-9.6c0.6-0.1 1.5-0.2 2.4-0.2 1.4 0 2.2 0.2 2.8 0.8 0.6 0.3 0.9 1 0.9 1.8 0 1-0.7 1.8-1.7 2.2 0.9 0.3 2.1 1.1 2.1 2.6 0 0.9-0.4 1.5-0.9 2-0.7 0.7-1.9 1-3.5 1-0.9 0-1.6-0.1-2.1-0.1zm1.4 4.1h1.1c1.4 0 2.2-0.7 2.2-1.7 0-1.2-0.9-1.7-2.2-1.7-0.6 0-0.9 0.1-1.1 0.1zm0 4.9q0.4 0.1 1.1 0.1c1.3 0 2.6-0.5 2.6-2 0-1.4-1.2-2-2.7-2h-1zm7.4-4.2c-0.6 0-0.9-0.4-0.9-0.9 0-0.6 0.4-1 0.9-1 0.5 0 0.9 0.4 0.9 1 0 0.5-0.4 0.9-0.9 0.9zm0 5.4c-0.5 0-0.9-0.4-0.9-1 0-0.5 0.4-0.9 0.9-0.9 0.5 0 0.9 0.4 0.9 0.9 0 0.6-0.4 1-0.9 1zm8.2-8.8l-1.7 0.9-0.3-1 2.2-1.1h1.1v9.8h-1.3zm10.5-0.3q-0.4 0-1 0.1c-2.1 0.3-3.2 1.8-3.4 3.5 0.5-0.7 1.3-1.2 2.4-1.2 1.7 0 3 1.3 3 3.2 0 1.8-1.3 3.5-3.3 3.5-2.1 0-3.5-1.7-3.5-4.2 0-2 0.7-3.5 1.7-4.5 0.8-0.8 1.9-1.3 3.1-1.4q0.6-0.1 1-0.1zm-2.3 8.1c1.2 0 1.9-1 1.9-2.4 0-1.4-0.8-2.3-2-2.3-0.8 0-1.6 0.5-1.9 1.2q-0.1 0.3-0.2 0.6c0.1 1.6 0.8 2.9 2.2 2.9zm8-3.8v1h-3.8v-1zm4-4l-1.7 0.9-0.3-1 2.2-1.1h1.1v9.8h-1.3zm10.5-0.3q-0.4 0-1 0.1c-2.1 0.3-3.2 1.8-3.4 3.5 0.5-0.7 1.3-1.2 2.4-1.2 1.8 0 3 1.3 3 3.2 0 1.8-1.2 3.5-3.3 3.5-2.1 0-3.5-1.7-3.5-4.2 0-2 0.7-3.5 1.7-4.4 0.8-0.9 1.9-1.3 3.2-1.5q0.6-0.1 0.9-0.1zm-2.3 8.1c1.2 0 1.9-1 1.9-2.4 0-1.4-0.8-2.3-2-2.3-0.8 0-1.5 0.5-1.9 1.3q-0.1 0.2-0.1 0.5c0 1.6 0.7 2.9 2.1 2.9zm10.3-7.9h-3.7l-0.4 2.5c0.2 0 0.4 0 0.8 0 0.8 0 1.5 0.1 2.1 0.5 0.8 0.4 1.4 1.3 1.4 2.5 0 1.9-1.5 3.4-3.6 3.4-1.1 0-2-0.3-2.5-0.6l0.3-1c0.5 0.2 1.3 0.5 2.2 0.5 1.2 0 2.3-0.8 2.3-2.1 0-1.3-0.9-2.2-2.8-2.2-0.6 0-1.1 0-1.4 0.1l0.6-4.7h4.7zm5.4 4.1v1h-3.7v-1zm1.1 4.6v-0.8l1.1-1c2.5-2.4 3.6-3.7 3.6-5.2 0-1-0.4-1.9-1.9-1.9-0.9 0-1.6 0.5-2.1 0.8l-0.4-0.9c0.6-0.6 1.6-1 2.8-1 2.1 0 3 1.5 3 2.9 0 1.8-1.4 3.2-3.4 5.2l-0.8 0.8h4.4v1.1zm7.8 0v-0.8l1-1c2.5-2.4 3.7-3.7 3.7-5.2 0-1-0.5-1.9-2-1.9-0.9 0-1.6 0.5-2.1 0.8l-0.4-0.9c0.7-0.6 1.7-1 2.8-1 2.1 0 3 1.5 3 2.9 0 1.8-1.3 3.2-3.4 5.2l-0.8 0.8h4.4v1.1zm11.9 0v-2.7h-4.6v-0.9l4.4-6.2h1.5v6.1h1.3v1h-1.3v2.7zm0-3.7v-3.3q0-0.8 0-1.5c-0.3 0.5-0.6 0.9-0.8 1.4l-2.4 3.3v0.1zm-92.6 24.4c-0.5 0.3-1.5 0.5-2.7 0.5-2.9 0-5.1-1.8-5.1-5.2 0-3.2 2.2-5.3 5.4-5.3 1.2 0 2 0.3 2.4 0.4l-0.4 1.1c-0.4-0.2-1.1-0.4-2-0.4-2.4 0-4 1.5-4 4.2 0 2.5 1.5 4.1 3.9 4.1 0.8 0 1.7-0.2 2.2-0.4zm10.2-4.2c0-1.4-0.1-3.1-0.1-4.4-0.4 1.2-0.8 2.5-1.3 3.9l-1.8 4.9h-1l-1.7-4.8q-0.7-2.2-1.2-4c0 1.3-0.1 3-0.2 4.5l-0.3 4.4h-1.2l0.7-10.2h1.7l1.7 4.9q0.6 1.9 1 3.5h0.1q0.4-1.6 1.1-3.5l1.8-4.9h1.7l0.6 10.2h-1.3zm5.8 4.5v-4.4l-3.2-5.8h1.5l1.4 2.8c0.4 0.8 0.7 1.4 1.1 2.1 0.3-0.7 0.6-1.3 1-2.1l1.5-2.8h1.5l-3.4 5.8v4.4zm5.8-10.2h1.3v4.9q0.4-0.6 0.8-1.1l3.2-3.8h1.6l-3.7 4.3 4 5.9h-1.6l-3.3-5-1 1.1v3.9h-1.3zm9 5c-0.5 0-0.8-0.4-0.8-1 0-0.5 0.3-0.9 0.8-0.9 0.6 0 0.9 0.4 0.9 0.9 0 0.6-0.3 1-0.9 1zm0 5.3c-0.5 0-0.8-0.4-0.8-0.9 0-0.6 0.4-1 0.9-1 0.5 0 0.9 0.4 0.9 1 0 0.5-0.4 0.9-0.9 0.9zm11.7-10v0.9l-4.3 9h-1.4l4.3-8.7v-0.1h-4.8v-1.1zm7.7 0v0.9l-4.2 9h-1.4l4.3-8.7v-0.1h-4.9v-1.1zm4.9 5.3v1h-3.7v-1zm4-4l-1.7 0.9-0.3-1 2.2-1.2h1.1v9.9h-1.3zm9 8.5v-2.6h-4.6v-0.9l4.4-6.3h1.5v6.1h1.3v1.1h-1.3v2.6zm0-3.7v-3.3q0-0.7 0-1.5c-0.3 0.6-0.6 1-0.9 1.5l-2.4 3.3zm7.2-0.8v0.9h-3.7v-0.9zm4.2 4.7c-1.9 0-3.2-1.8-3.2-5 0-3.3 1.4-5.2 3.4-5.2 2.1 0 3.2 1.9 3.2 5 0 3.4-1.2 5.2-3.4 5.2zm0.1-1c1.4 0 2-1.6 2-4.1 0-2.4-0.6-4-2-4-1.2 0-2 1.5-2 4 0 2.5 0.8 4.1 2 4.1zm8.1-3.7v0.9h-3.8v-0.9zm4.3 4.7c-1.9 0-3.2-1.8-3.3-5 0-3.3 1.5-5.2 3.5-5.2 2 0 3.2 1.9 3.2 5 0 3.4-1.2 5.2-3.4 5.2zm0.1-1c1.3 0 2-1.6 2-4.1 0-2.4-0.6-4-2-4-1.2 0-2 1.5-2 4 0 2.5 0.7 4.1 2 4.1zm-99.4 11.8c0.6-0.1 1.5-0.2 2.5-0.2q2 0 2.9 0.9c0.6 0.5 0.9 1.2 0.9 2.1q0 1.4-0.8 2.2c-0.7 0.7-1.8 1.1-3.1 1.1q-0.6 0-1.1-0.1v4.1h-1.3zm1.3 4.9q0.5 0.1 1.1 0.1c1.6 0 2.6-0.8 2.6-2.2 0-1.3-1-2-2.4-2-0.6 0-1 0.1-1.3 0.1zm11.5 3.5c0 0.6 0 1.2 0.1 1.7h-1.2l-0.1-0.9h-0.1c-0.4 0.6-1.2 1.1-2.2 1.1-1.5 0-2.3-1.1-2.3-2.1 0-1.8 1.6-2.8 4.4-2.7v-0.2c0-0.6-0.1-1.7-1.6-1.7-0.7 0-1.4 0.2-1.9 0.6l-0.3-0.9c0.6-0.4 1.5-0.7 2.4-0.7 2.2 0 2.8 1.6 2.8 3zm-1.3-2c-1.5 0-3.1 0.3-3.1 1.7 0 0.9 0.5 1.3 1.2 1.3 1 0 1.6-0.6 1.8-1.3q0.1-0.2 0.1-0.4zm3.4-1.6c0-0.8 0-1.4 0-2h1.1l0.1 1.2c0.4-0.7 1.2-1.3 2.5-1.3 1 0 2.5 0.6 2.5 3.1v4.4h-1.3v-4.3c0-1.1-0.4-2.1-1.7-2.1-0.8 0-1.5 0.6-1.8 1.3 0 0.2-0.1 0.4-0.1 0.6v4.5h-1.3zm9.9-3.8v1.8h2v1h-2v3.9c0 0.9 0.3 1.4 1 1.4 0.4 0 0.6 0 0.8 0l0.1 1c-0.3 0.1-0.7 0.1-1.2 0.1-0.6 0-1.1-0.2-1.4-0.5-0.4-0.4-0.6-1.1-0.6-1.9v-4h-1.1v-1h1.1v-1.4zm6.3 9.3c-1.9 0-3.5-1.5-3.5-3.8 0-2.4 1.7-3.9 3.7-3.9 2.1 0 3.5 1.5 3.5 3.8 0 2.7-1.9 3.9-3.6 3.9zm0-1c1.3 0 2.2-1.2 2.2-2.9 0-1.2-0.6-2.8-2.2-2.8-1.5 0-2.2 1.5-2.2 2.9 0 1.6 0.9 2.8 2.2 2.8zm5.3-4.5c0-0.8 0-1.4-0.1-2h1.2l0.1 1.2c0.4-0.7 1.2-1.4 2.4-1.4 1 0 2.6 0.6 2.6 3.1v4.4h-1.3v-4.2c0-1.2-0.5-2.2-1.7-2.2-0.9 0-1.6 0.6-1.8 1.4-0.1 0.1-0.1 0.4-0.1 0.6v4.4h-1.3zm9.1 1.9c0.1 1.8 1.2 2.6 2.5 2.6 1 0 1.6-0.2 2-0.4l0.3 0.9c-0.5 0.2-1.3 0.5-2.5 0.5-2.2 0-3.6-1.5-3.6-3.7 0-2.2 1.4-3.9 3.5-3.9 2.4 0 3 2.1 3 3.4q0 0.4-0.1 0.6zm3.9-0.9c0.1-0.9-0.3-2.2-1.8-2.2-1.4 0-1.9 1.3-2 2.2zm3.5-0.8c-0.5 0-0.9-0.4-0.9-1 0-0.5 0.4-0.9 0.9-0.9 0.5 0 0.9 0.4 0.9 0.9 0 0.6-0.4 1-0.9 1zm0 5.3c-0.5 0-0.9-0.4-0.9-0.9 0-0.6 0.4-1 0.9-1 0.5 0 0.9 0.4 0.9 1 0 0.5-0.4 0.9-0.9 0.9zm5.3-0.2v-0.8l1.1-1c2.5-2.4 3.7-3.6 3.7-5.1 0-1-0.5-1.9-2-1.9-0.9 0-1.6 0.4-2.1 0.8l-0.4-1c0.7-0.5 1.7-1 2.8-1 2.1 0 3 1.5 3 2.9 0 1.8-1.3 3.3-3.4 5.3l-0.8 0.7h4.4v1.1zm8.6-0.9c0.2 0 0.6 0 1-0.1 0.8 0 1.5-0.4 2.1-0.9 0.6-0.6 1.1-1.4 1.3-2.6h-0.1c-0.5 0.7-1.3 1.1-2.3 1.1-1.8 0-2.9-1.4-2.9-3.1 0-1.8 1.4-3.5 3.4-3.5 2 0 3.2 1.7 3.2 4.2 0 2.2-0.7 3.7-1.7 4.6-0.7 0.7-1.8 1.2-2.8 1.3-0.5 0.1-0.9 0.1-1.2 0.1zm2.4-8.1c-1.2 0-2 1-2 2.4 0 1.3 0.8 2.1 1.9 2.1 0.9 0 1.6-0.4 2-1q0.1-0.2 0.1-0.5c0-1.7-0.6-3-2-3zm5.3 8.1c0.3 0 0.7 0 1.1-0.1 0.8-0.1 1.5-0.4 2.1-0.9 0.6-0.6 1.1-1.5 1.3-2.6h-0.1c-0.5 0.6-1.3 1-2.3 1-1.8 0-2.9-1.3-2.9-3 0-1.8 1.3-3.5 3.4-3.5 2 0 3.2 1.7 3.2 4.2 0 2.1-0.7 3.7-1.7 4.6-0.7 0.7-1.8 1.2-2.8 1.3-0.5 0.1-1 0.1-1.3 0.1zm2.4-8.1c-1.1 0-1.9 1-1.9 2.4 0 1.3 0.8 2.1 1.9 2.1 0.9 0 1.6-0.4 2-1q0.1-0.2 0.1-0.5c0-1.7-0.7-3-2-3z"/>
			<path id="path46" fill-rule="evenodd" class="s5" d="m5.1 224.4v4.2h5v-4.2h1.3v10.2h-1.3v-4.8h-5v4.8h-1.3v-10.2zm13.8 5.4h-3.9v3.7h4.4v1.1h-5.8v-10.2h5.6v1.1h-4.2v3.2h3.9zm7.8 4.8l-1.3-2.3c-0.6-0.8-0.9-1.4-1.2-2-0.3 0.6-0.6 1.1-1.1 2l-1.3 2.3h-1.5l3.1-5.2-3-5h1.6l1.3 2.4c0.4 0.6 0.7 1.2 1 1.7 0.3-0.6 0.5-1.1 0.9-1.7l1.4-2.4h1.5l-3.1 4.9 3.2 5.3zm3.6-5.2c-0.5 0-0.9-0.4-0.9-0.9 0-0.6 0.4-1 0.9-1 0.5 0 0.9 0.4 0.9 1 0 0.5-0.4 0.9-0.9 0.9zm0 5.3c-0.5 0-0.9-0.4-0.9-0.9 0-0.6 0.4-0.9 0.9-0.9 0.6 0 0.9 0.3 0.9 0.9 0 0.5-0.3 0.9-0.9 0.9zm6.1-0.1l0.4-3h-1.3v-0.9h1.4l0.3-2.2h-1.3v-0.9h1.4l0.4-2.9h0.9l-0.4 2.9h1.6l0.4-2.9h0.9l-0.4 2.9h1.3v0.9h-1.4l-0.3 2.2h1.3v0.9h-1.4l-0.4 3h-0.9l0.4-3h-1.6l-0.4 3zm3-3.9l0.3-2.2h-1.6l-0.3 2.2zm6.9 4c-1.9 0-3.2-1.8-3.2-5 0-3.3 1.4-5.1 3.4-5.1 2.1 0 3.3 1.8 3.3 5 0 3.3-1.3 5.1-3.4 5.1zm0-1c1.4 0 2-1.6 2-4.1 0-2.4-0.6-4-2-4-1.2 0-2 1.6-2 4 0 2.6 0.8 4.1 2 4.1zm7.7 1c-1.9 0-3.2-1.8-3.3-5 0-3.3 1.5-5.1 3.5-5.1 2 0 3.2 1.8 3.2 5 0 3.3-1.2 5.1-3.4 5.1zm0.1-1c1.3 0 2-1.6 2-4.1 0-2.4-0.6-4-2-4-1.2 0-2 1.6-2 4 0 2.6 0.8 4.1 2 4.1zm8.7 0.9v-2.7h-4.6v-0.9l4.4-6.3h1.4v6.2h1.4v1h-1.4v2.7zm0-3.7v-3.3q0-0.8 0.1-1.6h-0.1c-0.3 0.6-0.5 1-0.8 1.5l-2.4 3.3v0.1zm9.2-5.2q-0.4 0-1 0.1c-2.1 0.3-3.1 1.8-3.4 3.4h0.1c0.4-0.6 1.3-1.1 2.3-1.1 1.8 0 3 1.3 3 3.2 0 1.8-1.2 3.4-3.3 3.4-2.1 0-3.4-1.6-3.4-4.1 0-2 0.6-3.5 1.6-4.5 0.8-0.8 1.9-1.3 3.2-1.4q0.6-0.1 0.9-0.1zm-2.2 8c1.1 0 1.9-0.9 1.9-2.3 0-1.4-0.8-2.3-2.1-2.3-0.8 0-1.5 0.5-1.9 1.2q-0.1 0.2-0.1 0.6c0 1.6 0.8 2.8 2.1 2.8zm10.9-8.9v0.8l-4.3 9h-1.4l4.3-8.7h-4.8v-1.1zm3.5 6.6l-1.1 3.2h-1.4l3.5-10.2h1.6l3.5 10.2h-1.4l-1.1-3.2zm3.3-1l-1-3c-0.2-0.6-0.4-1.3-0.5-1.8h-0.1q-0.2 0.9-0.5 1.8l-1 3zm-83.6 15.2c0.7-0.1 1.7-0.2 2.6-0.2 1.4 0 2.3 0.2 2.9 0.8 0.5 0.4 0.8 1.1 0.8 1.9 0 1.4-0.8 2.3-1.9 2.6v0.1c0.8 0.3 1.3 1 1.5 2 0.3 1.5 0.6 2.4 0.8 2.8h-1.4c-0.1-0.3-0.4-1.1-0.6-2.4-0.3-1.4-0.9-1.9-2.1-2h-1.2v4.4h-1.4zm1.4 4.7h1.3c1.4 0 2.3-0.8 2.3-2 0-1.3-1-1.9-2.3-1.9q-1 0.1-1.3 0.2zm14.6 4.9c-0.6 0.2-1.8 0.6-3.2 0.6-1.5 0-2.8-0.4-3.8-1.4-0.9-0.8-1.4-2.2-1.4-3.8 0-3 2.1-5.2 5.5-5.2 1.2 0 2.1 0.2 2.6 0.4l-0.4 1.1c-0.5-0.2-1.2-0.4-2.2-0.4-2.5 0-4.1 1.5-4.1 4.1 0 2.6 1.5 4.1 3.9 4.1 0.9 0 1.5-0.1 1.8-0.3v-3h-2.1v-1.1h3.4zm2-9.6c0.5-0.1 1.4-0.2 2.4-0.2 1.3 0 2.1 0.2 2.7 0.7 0.6 0.4 0.9 1 0.9 1.8 0 1-0.7 1.9-1.7 2.3 0.9 0.3 2.1 1.1 2.1 2.6 0 0.8-0.4 1.5-0.9 2-0.7 0.7-1.8 1-3.5 1-0.9 0-1.6-0.1-2-0.2zm1.3 4.2h1.2c1.3 0 2.2-0.7 2.2-1.7 0-1.2-0.9-1.7-2.3-1.7-0.6 0-0.9 0.1-1.1 0.1zm0 4.9q0.4 0.1 1.1 0c1.3 0 2.6-0.4 2.6-1.9 0-1.4-1.2-2-2.6-2h-1.1zm7.4-4.2c-0.5 0-0.9-0.4-0.9-0.9 0-0.6 0.4-1 0.9-1 0.5 0 0.9 0.4 0.9 1 0 0.5-0.4 0.9-0.9 0.9zm0 5.4c-0.5 0-0.9-0.4-0.9-1 0-0.5 0.4-0.9 0.9-0.9 0.6 0 0.9 0.4 0.9 0.9 0 0.6-0.3 1-0.9 1zm16.6-4.8v1h-3.7v-1zm20.2 0v1h-3.8v-1zm-56.3 25.3c-0.5 0.3-1.4 0.5-2.7 0.5-2.9 0-5-1.8-5-5.2 0-3.2 2.2-5.3 5.3-5.3 1.3 0 2.1 0.3 2.4 0.4l-0.3 1.1c-0.5-0.2-1.2-0.4-2-0.4-2.4 0-4 1.5-4 4.2 0 2.5 1.4 4.1 3.9 4.1 0.8 0 1.6-0.2 2.2-0.4zm10.2-4.2c-0.1-1.4-0.2-3.1-0.2-4.4-0.4 1.2-0.8 2.5-1.3 3.9l-1.8 4.9h-1l-1.6-4.8q-0.8-2.2-1.2-4c-0.1 1.3-0.1 3-0.2 4.5l-0.3 4.4h-1.3l0.8-10.2h1.6l1.8 4.9q0.6 1.9 1 3.5 0.4-1.6 1.1-3.5l1.8-4.9h1.7l0.7 10.2h-1.4zm5.9 4.5v-4.4l-3.2-5.8h1.5l1.4 2.8c0.4 0.8 0.7 1.4 1 2.1 0.3-0.7 0.7-1.3 1.1-2.1l1.4-2.8h1.5l-3.4 5.8v4.4zm5.8-10.2h1.3v4.9h0.1q0.4-0.6 0.8-1.1l3.1-3.8h1.6l-3.6 4.3 3.9 5.9h-1.5l-3.4-5-1 1.1v3.9h-1.3zm9.1 5c-0.5 0-0.9-0.4-0.9-1 0-0.5 0.4-0.9 0.9-0.9 0.6 0 0.9 0.4 0.9 0.9 0 0.6-0.3 1-0.9 1zm0 5.3c-0.5 0-0.9-0.4-0.9-0.9 0-0.6 0.4-1 0.9-1 0.6 0 0.9 0.4 0.9 1 0 0.5-0.3 0.9-0.9 0.9zm-2.9-21c-2 0-3.3-1.8-3.3-5.1 0-3.3 1.4-5.1 3.4-5.1 2.1 0 3.3 1.9 3.3 5 0 3.3-1.3 5.2-3.4 5.2zm0-1c1.4 0 2-1.6 2-4.1 0-2.5-0.6-4.1-2-4.1-1.2 0-1.9 1.6-1.9 4.1-0.1 2.5 0.7 4.1 1.9 4.1zm15.6-9v0.9l-4.3 8.9h-1.3l4.2-8.7h-4.8v-1.1zm4.5 10c-1.9 0-3.2-1.8-3.2-5.1 0-3.3 1.4-5.1 3.4-5.1 2 0 3.2 1.9 3.2 5 0 3.3-1.2 5.2-3.4 5.2zm0.1-1c1.4 0 2-1.6 2-4.1 0-2.5-0.6-4.1-2-4.1-1.2 0-2 1.6-2 4.1 0 2.5 0.8 4.1 2 4.1zm12.1-7.8l-1.8 0.9-0.2-1 2.1-1.1h1.2v9.8h-1.3zm4.9 8.6v-0.8l1-1c2.5-2.4 3.7-3.7 3.7-5.2 0-1-0.5-1.9-2-1.9-0.9 0-1.6 0.5-2.1 0.8l-0.4-0.9c0.7-0.6 1.7-1 2.8-1 2.1 0 3 1.5 3 2.9 0 1.8-1.3 3.2-3.4 5.2l-0.8 0.8h4.4v1.1zm7.8 0v-0.8l1-1c2.5-2.4 3.7-3.7 3.7-5.2 0-1-0.5-1.9-1.9-1.9-0.9 0-1.7 0.5-2.1 0.8l-0.4-0.9c0.6-0.6 1.6-1 2.7-1 2.1 0 3 1.5 3 2.9 0 1.8-1.3 3.2-3.4 5.2l-0.7 0.8h4.4v1.1zm-33.8 12.5l-1.7 0.9-0.3-1 2.2-1.2h1.1v9.9h-1.3zm8 8.7c-1.9 0-3.2-1.8-3.3-5 0-3.4 1.5-5.2 3.5-5.2 2 0 3.2 1.9 3.2 5 0 3.4-1.2 5.2-3.4 5.2zm0.1-1c1.3 0 2-1.6 2-4.1 0-2.4-0.6-4-2-4-1.2 0-2 1.5-2 4 0 2.5 0.8 4.1 2 4.1zm7.7 1c-2 0-3.3-1.8-3.3-5 0-3.4 1.4-5.2 3.4-5.2 2.1 0 3.3 1.9 3.3 5 0 3.4-1.3 5.2-3.4 5.2zm0.1-1c1.3 0 2-1.6 2-4.1 0-2.4-0.6-4-2-4-1.2 0-2 1.5-2 4-0.1 2.5 0.7 4.1 1.9 4.1zm8.1-3.7v0.9h-3.7v-0.9zm6.7-4.4q-0.4 0-1 0.1c-2.1 0.4-3.2 1.9-3.4 3.5 0.5-0.6 1.3-1.1 2.4-1.1 1.8 0 3 1.2 3 3.1 0 1.8-1.2 3.5-3.3 3.5-2.1 0-3.5-1.6-3.5-4.2 0-1.9 0.7-3.4 1.7-4.4 0.8-0.8 1.9-1.3 3.2-1.5q0.5 0 0.9 0zm-2.3 8c1.2 0 1.9-1 1.9-2.4 0-1.4-0.8-2.2-2-2.2-0.8 0-1.5 0.5-1.9 1.2q-0.1 0.2-0.1 0.6c0 1.6 0.7 2.8 2.1 2.8zm7.6 1c-1.9 0-3.3-1.8-3.3-5 0-3.3 1.5-5.1 3.5-5.1 2 0 3.2 1.8 3.2 4.9 0 3.4-1.3 5.2-3.4 5.2zm0.1-1c1.3 0 2-1.6 2-4.1 0-2.4-0.6-4-2-4-1.2 0-2 1.5-2 4-0.1 2.5 0.7 4.1 2 4.1zm8-3.7v1h-3.7v-1zm4.3 4.7c-2 0-3.3-1.8-3.3-5 0-3.3 1.4-5.1 3.4-5.1 2.1 0 3.3 1.8 3.3 4.9 0 3.4-1.3 5.2-3.4 5.2zm0-1c1.4 0 2-1.6 2-4.1 0-2.4-0.6-4-2-4-1.2 0-2 1.5-2 4 0 2.5 0.8 4.1 2 4.1zm8.1-3.7v1h-3.7v-1zm5.2 4.6v-2.7h-4.6v-0.9l4.4-6.3h1.5v6.1h1.3v1.1h-1.3v2.7zm0-3.8v-3.3q0-0.7 0-1.5c-0.3 0.6-0.6 1-0.9 1.5l-2.4 3.3zm6.8 3.9c-1.9 0-3.2-1.8-3.3-5 0-3.3 1.5-5.1 3.5-5.1 2 0 3.2 1.8 3.2 4.9 0 3.4-1.2 5.2-3.4 5.2zm0.1-1c1.4 0 2-1.6 2-4.1 0-2.4-0.6-4-2-4-1.2 0-2 1.5-2 4 0 2.5 0.8 4.1 2 4.1zm-56.5 21.9v-0.8l1-1c2.5-2.4 3.7-3.7 3.7-5.2 0-1-0.5-1.9-2-1.9-0.9 0-1.6 0.5-2.1 0.8l-0.4-0.9c0.7-0.6 1.7-1 2.8-1 2.1 0 3 1.5 3 2.9 0 1.8-1.3 3.2-3.4 5.2l-0.8 0.8h4.4v1.1zm8.6-0.9c0.3 0 0.6 0 1-0.1 0.8-0.1 1.5-0.4 2.1-0.9 0.6-0.6 1.1-1.5 1.3-2.7-0.6 0.7-1.4 1.1-2.4 1.1-1.7 0-2.9-1.3-2.9-3 0-1.9 1.4-3.5 3.4-3.5 2 0 3.2 1.6 3.2 4.1 0 2.2-0.7 3.7-1.6 4.7-0.8 0.7-1.8 1.2-2.9 1.3-0.5 0-0.9 0.1-1.2 0zm2.4-8c-1.1 0-1.9 1-1.9 2.4 0 1.2 0.7 2.1 1.8 2.1 0.9 0 1.6-0.5 2-1.1q0.1-0.1 0.1-0.4c0-1.7-0.6-3-2-3zm8.7 9v-2.7h-4.6v-0.9l4.4-6.2h1.4v6.1h1.4v1h-1.4v2.7zm0-3.7v-3.3q0-0.8 0.1-1.6h-0.1c-0.3 0.6-0.5 1-0.8 1.5l-2.4 3.3v0.1zm-78-6.4c0.7-0.1 1.5-0.2 2.6-0.2q1.9 0 2.8 0.9c0.6 0.4 0.9 1.2 0.9 2.1q0 1.4-0.8 2.1c-0.7 0.8-1.8 1.2-3.1 1.2q-0.6 0-1.1-0.1v4.1h-1.3zm1.3 4.9q0.5 0.1 1.1 0.1c1.6 0 2.6-0.8 2.6-2.2 0-1.3-1-2-2.4-2-0.6 0-1 0.1-1.3 0.1zm11.5 3.5c0 0.6 0 1.2 0.1 1.7h-1.2l-0.1-0.9h-0.1c-0.3 0.6-1.1 1.1-2.2 1.1-1.5 0-2.2-1.1-2.2-2.1 0-1.8 1.5-2.8 4.4-2.7v-0.2c0-0.6-0.2-1.7-1.7-1.7-0.7 0-1.4 0.2-1.9 0.6l-0.3-0.9c0.6-0.4 1.5-0.7 2.4-0.7 2.3 0 2.8 1.6 2.8 3zm-1.3-2c-1.5 0-3.1 0.3-3.1 1.7 0 0.9 0.6 1.3 1.2 1.3 1 0 1.6-0.6 1.8-1.3q0.1-0.2 0.1-0.4zm3.4-1.6c0-0.8 0-1.4 0-2h1.2v1.2h0.1c0.3-0.7 1.2-1.3 2.4-1.3 1 0 2.6 0.6 2.6 3.1v4.3h-1.4v-4.2c0-1.2-0.4-2.2-1.7-2.2-0.8 0-1.5 0.7-1.7 1.4-0.1 0.2-0.1 0.4-0.1 0.6v4.4h-1.4zm10-3.7v1.8h1.9v1h-1.9v3.9c0 0.9 0.2 1.4 1 1.4 0.3 0 0.5 0 0.7-0.1l0.1 1.1c-0.3 0-0.7 0.1-1.2 0.1-0.6 0-1.1-0.2-1.4-0.5-0.4-0.4-0.5-1.1-0.5-1.9v-4h-1.2v-1h1.2v-1.4zm6.3 9.3c-2 0-3.5-1.5-3.5-3.8 0-2.5 1.6-3.9 3.6-3.9 2.1 0 3.5 1.5 3.5 3.8 0 2.7-1.9 3.9-3.6 3.9zm0-1c1.3 0 2.3-1.2 2.3-2.9 0-1.2-0.7-2.8-2.2-2.8-1.6 0-2.3 1.5-2.3 2.9 0 1.6 0.9 2.8 2.2 2.8zm5.3-4.5c0-0.8 0-1.4-0.1-2h1.2l0.1 1.2c0.4-0.7 1.2-1.4 2.4-1.4 1.1 0 2.6 0.6 2.6 3.1v4.4h-1.3v-4.2c0-1.2-0.4-2.2-1.7-2.2-0.9 0-1.5 0.6-1.8 1.4 0 0.1-0.1 0.4-0.1 0.6v4.4h-1.3zm9.1 1.9c0.1 1.8 1.2 2.5 2.5 2.5 1 0 1.6-0.1 2.1-0.3l0.2 0.9c-0.5 0.2-1.3 0.5-2.4 0.5-2.3 0-3.6-1.5-3.6-3.7 0-2.2 1.3-4 3.4-4 2.4 0 3 2.2 3 3.5q0 0.4 0 0.6zm3.9-0.9c0-0.9-0.4-2.2-1.9-2.2-1.3 0-1.9 1.2-2 2.2zm3.5-0.8c-0.5 0-0.9-0.4-0.9-1 0-0.5 0.4-0.9 0.9-0.9 0.6 0 0.9 0.4 0.9 0.9 0 0.6-0.3 1-0.9 1zm0 5.3c-0.5 0-0.9-0.4-0.9-0.9 0-0.6 0.4-1 0.9-1 0.6 0 0.9 0.4 0.9 1 0 0.5-0.3 0.9-0.9 0.9z"/>
			<path id="path48" class="s0" d="m366.8 223.6h2.9v-16.3h-2.9z"/>
			<path id="path50" class="s0" d="m385.6 214.1h-6.1c-3.2 0-3.3-0.7-3.3-2 0-2.1 0.9-2.3 4.9-2.3h2.2c4.5 0 5 0.3 5.2 1.3v0.4l2.8-0.1v-0.4c-0.3-2.7-2.2-3.7-6.8-3.7h-4.4c-4.2 0-6.7 0.7-6.7 4.6 0 4.6 2.8 4.8 8.7 4.8h3.9c2.6 0 2.9 0.5 2.9 2 0 1.8-0.5 2.4-3.4 2.4h-6.4c-2.7 0-2.9-0.8-2.9-1.8v-0.4l-2.8 0.1v0.4c0 4.2 4.3 4.2 6.1 4.2h5.7c2.4 0 6.5 0 6.5-4.4v-1c0-3.7-3.3-4.1-6.1-4.1z"/>
			<path id="path52" class="s0" d="m406.5 214.1h-6.1c-3.2 0-3.4-0.7-3.4-2 0-2.1 1-2.3 5-2.3h2.2c4.5 0 5 0.3 5.1 1.3l0.1 0.4 2.8-0.1v-0.4c-0.3-2.7-2.2-3.7-6.8-3.7h-4.4c-4.3 0-6.8 0.7-6.8 4.6 0 4.6 2.9 4.8 8.8 4.8h3.9c2.5 0 2.9 0.5 2.9 2 0 1.8-0.5 2.4-3.4 2.4h-6.4c-2.7 0-3-0.8-3-1.8v-0.4l-2.7 0.1v0.4c0 4.2 4.2 4.2 6 4.2h5.7c2.5 0 6.6 0 6.6-4.4v-1c0-3.7-3.3-4.1-6.1-4.1z"/>
			<path id="path54" class="s0" d="m348.9 215.4l-0.5 0.6-4.9 6.2-0.5 0.5h10.4l-1.5 1.9h-10.4l-0.6 0.7-0.2 0.2-1.2 1.5-0.4 0.6h13.9l5.9-7.3-0.4-0.6h-9.6l1.5-1.8h10.4l1.6-1.9 0.4-0.6z"/>
			<path id="path56" class="s1" d="m362.4 214.9l-5.5-6.7h-10.4l-1.5-1.9h9.5l0.5-0.6-2-2.4h-13.9l0.4 0.5 5.4 6.8 0.5 0.5h10.4l1.5 1.9h-10.4l0.5 0.6 1 1.3 0.5 0.5h13.9z"/>
			<path id="path58" class="s0" d="m341.5 215.4h3.4l-5.8 7.3h-3.5z"/>
			<path id="path60" class="s1" d="m344.9 215.4h-3.4l-2-2.4h3.5z"/>
			<path id="path62" fill-rule="evenodd" class="s6" d="m336.6 239.9l1.3 2.9q0.3 0.6 0.5 1.2c0.2-0.3 0.3-0.7 0.5-1.2l1-2.9h1l-1.5 3.5c-0.3 0.9-0.8 2-1.2 2.6q-0.7 0.8-1.6 0.8-0.3 0-0.5 0l0.1-0.8q0.1 0.1 0.3 0.1c0.7 0 1.2-0.7 1.4-1.2 0-0.1 0-0.2-0.1-0.4l-2.2-4.6zm8.7 1.9v4.9h-0.9v-4.2h-2.2v4.2h-0.9v-4.9zm1.4 1.6c0-0.6 0-1.1 0-1.6h0.8v0.8c0.4-0.6 1-0.9 1.8-0.9 1.2 0 2 1 2 2.5 0 1.7-1 2.6-2.2 2.6-0.6 0-1.2-0.3-1.5-0.8v2.7h-0.9zm0.9 1.3q0 0.2 0 0.4c0.2 0.6 0.7 1 1.4 1 0.9 0 1.5-0.8 1.5-1.9 0-1-0.6-1.8-1.5-1.8-0.6 0-1.2 0.4-1.3 1.1q-0.1 0.2-0.1 0.3zm6.8 2.1c-1.3 0-2.3-0.9-2.3-2.5 0-1.6 1.1-2.6 2.4-2.6 1.4 0 2.4 1.1 2.4 2.5 0 1.9-1.3 2.6-2.4 2.6zm0-0.6c0.8 0 1.5-0.8 1.5-1.9 0-0.9-0.4-1.9-1.5-1.9-1 0-1.5 1-1.5 1.9 0 1.1 0.6 1.9 1.5 1.9zm4.3-4.4v4.2h1.7v-4.2h0.9v4.2h1.7v-4.2h0.9v4.3h0.5l-0.1 2.2h-0.6l-0.1-1.6h-5.7v-4.9zm7.1 2.7c0.1 1.1 0.8 1.6 1.7 1.6 0.6 0 1-0.1 1.3-0.2l0.2 0.6c-0.3 0.2-0.8 0.3-1.6 0.3-1.5 0-2.4-1-2.4-2.4 0-1.5 0.9-2.7 2.3-2.7 1.6 0 2 1.4 2 2.3q0 0.3 0 0.5zm2.5-0.7c0.1-0.5-0.2-1.4-1.2-1.4-0.9 0-1.3 0.8-1.3 1.4zm2.8-2v2h2.3v-2h0.9v4.9h-0.9v-2.2h-2.3v2.2h-0.9v-4.9zm5.5 0v2h2.3v-2h0.9v4.9h-0.9v-2.2h-2.3v2.2h-0.9v-4.9zm8.1 3.8c0 0.4 0 0.8 0.1 1.1h-0.8l-0.1-0.6c-0.3 0.4-0.8 0.7-1.5 0.7-1 0-1.5-0.7-1.5-1.4 0-1.1 1-1.8 2.9-1.8v-0.1c0-0.4-0.1-1.1-1.1-1.1-0.5 0-0.9 0.1-1.3 0.4l-0.2-0.6c0.4-0.3 1-0.5 1.6-0.5 1.5 0 1.9 1.1 1.9 2zm-0.9-1.3c-0.9 0-2 0.2-2 1.1 0 0.6 0.3 0.9 0.8 0.9 0.6 0 1-0.4 1.2-0.9q0-0.1 0-0.2zm6 2.5h-0.9v-2.1h-0.7q-0.5 0-0.8 0.3c-0.4 0.3-0.5 0.9-0.7 1.3q-0.1 0.3-0.2 0.5h-0.9q0.1-0.3 0.3-0.6c0.2-0.5 0.3-1.1 0.7-1.5q0.3-0.2 0.6-0.3c-0.6 0-1.3-0.4-1.3-1.2 0-0.5 0.3-0.8 0.6-1.1 0.4-0.2 1-0.3 1.7-0.3 0.6 0 1.1 0.1 1.6 0.1zm-0.9-4.3c-0.2 0-0.5 0-0.8 0-0.6 0-1.3 0.1-1.3 0.8 0 0.6 0.8 0.9 1.3 0.9 0.4 0 0.6 0 0.8 0zm4.4-0.6c0.4 0 1-0.1 1.6-0.1 0.8 0 2.1 0.2 2.1 1.2 0 0.6-0.4 1-1 1.2 0.7 0.1 1.3 0.5 1.3 1.2 0 1.3-1.7 1.4-2.6 1.4-0.6 0-1.1 0-1.4 0zm0.9 2h0.6c0.7 0 1.4-0.2 1.4-0.8q0-0.7-1.4-0.7c-0.3 0-0.4 0-0.6 0zm-0.1 2.2c0.3 0.1 0.5 0.1 0.8 0.1 0.6 0 1.4-0.2 1.4-0.9 0-0.7-0.7-0.8-1.5-0.8h-0.7zm4.8-1.7c0 1.2 0.8 1.7 1.6 1.7 0.7 0 1.1-0.2 1.4-0.3l0.2 0.6c-0.4 0.2-0.9 0.4-1.7 0.4-1.5 0-2.4-1-2.4-2.5 0-1.5 0.9-2.6 2.3-2.6 1.6 0 2 1.4 2 2.3q0 0.2 0 0.4zm2.6-0.7c0-0.5-0.2-1.4-1.2-1.4-0.9 0-1.3 0.8-1.4 1.4zm2-0.3c0-0.7 0-1.2-0.1-1.6h0.8l0.1 0.8c0.3-0.6 0.9-0.9 1.7-0.9 1.2 0 2.1 1 2.1 2.4 0 1.8-1.1 2.7-2.2 2.7-0.7 0-1.2-0.3-1.5-0.8h-0.1v2.6h-0.8zm0.8 1.3q0 0.2 0.1 0.4c0.1 0.6 0.7 1 1.3 1 0.9 0 1.5-0.7 1.5-1.8 0-1-0.5-1.9-1.4-1.9-0.7 0-1.2 0.5-1.4 1.1q0 0.2-0.1 0.4zm8.4 1.8c-0.3 0.1-0.8 0.3-1.4 0.3-1.5 0-2.5-1-2.5-2.5 0-1.5 1.1-2.6 2.7-2.6 0.5 0 1 0.1 1.2 0.3l-0.2 0.6c-0.2-0.1-0.5-0.2-1-0.2-1.2 0-1.8 0.8-1.8 1.8 0 1.2 0.8 1.9 1.7 1.9 0.5 0 0.9-0.1 1.1-0.3zm1.9-4.7v2.1c0 0.8 0 1.3-0.1 2h0.1c0.3-0.6 0.4-1 0.8-1.5l1.5-2.6h1v4.9h-0.8v-2.1c0-0.7 0-1.2 0-2-0.3 0.7-0.5 1.1-0.8 1.6-0.5 0.7-1 1.7-1.5 2.5h-1.1v-4.9zm8.4 4.9h-0.9v-2h-0.6q-0.6 0-0.8 0.2c-0.4 0.3-0.5 0.9-0.7 1.4q-0.1 0.2-0.2 0.4h-1q0.2-0.2 0.3-0.5c0.2-0.5 0.4-1.1 0.8-1.5q0.2-0.2 0.5-0.3c-0.6-0.1-1.2-0.5-1.2-1.2 0-0.5 0.2-0.9 0.6-1.1 0.4-0.2 1-0.3 1.6-0.3 0.6 0 1.2 0 1.6 0.1zm-0.9-4.3c-0.2 0-0.4-0.1-0.7-0.1-0.6 0-1.3 0.2-1.3 0.9 0 0.6 0.7 0.8 1.3 0.8 0.3 0 0.5 0 0.7 0zm8.2-0.6v4.9h-0.9v-4.2h-1.7v1.3c0 1.4-0.1 2.3-0.8 2.7-0.2 0.2-0.5 0.3-0.9 0.3l-0.1-0.7c0.1 0 0.3-0.1 0.5-0.2 0.4-0.3 0.5-1 0.5-2.1v-2zm3.4 5c-1.3 0-2.4-0.9-2.4-2.5 0-1.6 1.1-2.6 2.5-2.6 1.4 0 2.3 1.1 2.3 2.5 0 1.8-1.2 2.6-2.4 2.6zm0-0.6c0.9 0 1.5-0.8 1.5-1.9 0-0.9-0.4-1.9-1.4-1.9-1.1 0-1.5 1-1.5 1.9 0 1.1 0.6 1.9 1.4 1.9zm6.5-4.4v0.8h-2.1v4.1h-0.9v-4.9zm2.7 5c-1.3 0-2.3-0.9-2.3-2.5 0-1.6 1-2.6 2.4-2.6 1.4 0 2.3 1.1 2.3 2.5 0 1.8-1.2 2.6-2.4 2.6zm0-0.6c0.9 0 1.5-0.8 1.5-1.9 0-0.9-0.4-1.9-1.4-1.9-1.1 0-1.5 1-1.5 1.9 0 1.1 0.6 1.9 1.4 1.9zm6.8-4.4v0.7h-1.6v4.2h-0.8v-4.2h-1.6v-0.7zm1.6 0v2.1c0 0.8 0 1.3 0 2 0.3-0.6 0.5-1 0.8-1.5l1.5-2.6h1.1v4.9h-0.9v-2.1c0-0.7 0-1.2 0.1-1.9h-0.1c-0.3 0.6-0.5 1-0.8 1.5-0.4 0.7-1 1.7-1.5 2.5h-1v-4.9zm8.8 0v4.9h-0.9v-4.2h-2.3v4.2h-0.9v-4.9zm4.9 3.8c0 0.4 0 0.8 0.1 1.1h-0.8l-0.1-0.6c-0.3 0.4-0.8 0.7-1.5 0.7-1 0-1.5-0.7-1.5-1.4 0-1.1 1-1.8 2.9-1.8v-0.1c0-0.4-0.1-1.1-1.1-1.1-0.5 0-0.9 0.1-1.3 0.4l-0.2-0.6c0.4-0.3 1-0.5 1.6-0.5 1.5 0 1.9 1.1 1.9 2zm-0.9-1.3c-0.9 0-2 0.2-2 1.1 0 0.6 0.3 0.9 0.8 0.9 0.6 0 1.1-0.4 1.2-0.9q0-0.1 0-0.2zm2.7 2.6c-0.3 0-0.6-0.3-0.6-0.7 0-0.3 0.3-0.6 0.6-0.6 0.4 0 0.6 0.3 0.6 0.6 0 0.4-0.2 0.7-0.6 0.7zm-129.8 4.5v2.8c0 1.1 0 2-0.1 2.9h0.1c0.3-0.7 0.7-1.4 1.2-2.2l2.2-3.5h0.9v6.8h-0.8v-2.9c0-1.1 0-1.9 0-2.8-0.3 0.7-0.8 1.5-1.2 2.3l-2.2 3.4h-0.9v-6.8zm9.2 6.6c-0.2 0.1-0.7 0.3-1.4 0.3-1.4 0-2.4-1-2.4-2.5 0-1.5 1-2.6 2.6-2.6 0.6 0 1 0.1 1.3 0.2l-0.2 0.7c-0.3-0.1-0.6-0.2-1.1-0.2-1.1 0-1.7 0.8-1.7 1.8 0 1.1 0.7 1.8 1.7 1.8 0.5 0 0.8-0.1 1.1-0.2zm5-4.7v4.9h-0.8v-4.2h-2.3v4.2h-0.9v-4.9zm3.4 5c-1.3 0-2.3-1-2.3-2.5 0-1.6 1.1-2.6 2.4-2.6 1.4 0 2.4 1 2.4 2.5 0 1.8-1.3 2.6-2.5 2.6zm0.1-0.7c0.8 0 1.5-0.8 1.5-1.9 0-0.8-0.5-1.8-1.5-1.8-1 0-1.5 0.9-1.5 1.9 0 1 0.6 1.8 1.5 1.8zm7.2-4.3v4.9h-0.9v-4.2h-1.7v1.3c0 1.3-0.1 2.2-0.7 2.7-0.3 0.1-0.6 0.3-1 0.3l-0.1-0.7c0.2-0.1 0.4-0.1 0.5-0.2 0.4-0.4 0.5-1.1 0.5-2.2v-1.9zm2.3 0v1.7c0.2-0.1 0.5-0.1 0.8-0.1 1.1 0 2.3 0.4 2.3 1.6 0 0.6-0.2 0.9-0.6 1.2-0.5 0.4-1.4 0.5-2.1 0.5-0.5 0-0.9 0-1.3 0v-4.9zm0 4.3q0.2 0 0.7 0c0.6 0 1.5-0.2 1.5-1 0-0.9-0.9-1.1-1.6-1.1q-0.3 0-0.6 0.1zm4.6-2.2h0.4c0.7 0 1.2-0.4 1.2-0.8 0-0.4-0.3-0.7-0.9-0.7-0.4 0-0.8 0.1-1.2 0.3l-0.2-0.5c0.5-0.3 1.1-0.5 1.6-0.5 0.8 0 1.7 0.4 1.7 1.3 0 0.6-0.6 1-1.1 1.1v0.1c0.7 0 1.3 0.5 1.3 1.2 0 1-1.1 1.4-2.1 1.4-0.6 0-1.2-0.1-1.6-0.4l0.2-0.6c0.4 0.2 0.9 0.4 1.3 0.4 0.8 0 1.2-0.4 1.2-0.9 0-0.6-0.6-0.8-1.4-0.8h-0.4zm4.1-2.1l1.1 2.9c0.1 0.4 0.2 0.7 0.3 1 0.1-0.3 0.2-0.6 0.3-1l1-2.9h1l-1.4 3.5c-0.6 1.7-1 2.5-1.7 3.1-0.4 0.4-0.8 0.5-1 0.5l-0.3-0.7c0.3-0.1 0.6-0.2 0.8-0.4 0.3-0.2 0.5-0.6 0.8-1q0-0.1 0-0.2 0-0.1 0-0.3l-1.8-4.5zm4.8 2.6c0 1.2 0.8 1.7 1.7 1.7 0.6 0 1-0.1 1.3-0.2l0.2 0.6c-0.3 0.2-0.9 0.3-1.6 0.3-1.5 0-2.4-1-2.4-2.4 0-1.5 0.8-2.7 2.3-2.7 1.5 0 2 1.4 2 2.3q0 0.3-0.1 0.4zm2.6-0.6c0-0.6-0.2-1.4-1.2-1.4-0.9 0-1.3 0.8-1.4 1.4zm5.2-2v0.7h-1.5v4.2h-0.9v-4.2h-1.5v-0.7zm4.1 4.7c-0.2 0.2-0.7 0.3-1.4 0.3-1.4 0-2.4-1-2.4-2.5 0-1.5 1-2.6 2.6-2.6 0.6 0 1 0.2 1.3 0.3l-0.2 0.7c-0.3-0.1-0.6-0.3-1.1-0.3-1.1 0-1.7 0.9-1.7 1.9 0 1.1 0.7 1.8 1.7 1.8 0.5 0 0.8-0.1 1.1-0.2zm4.7 0.2h-0.9v-2.1h-0.7q-0.5 0-0.8 0.3c-0.3 0.3-0.5 0.9-0.7 1.4q0 0.2-0.2 0.4h-0.9q0.2-0.3 0.3-0.6c0.2-0.5 0.3-1.1 0.8-1.5q0.2-0.2 0.5-0.2v-0.1c-0.6 0-1.3-0.4-1.3-1.2 0-0.5 0.3-0.8 0.7-1 0.4-0.3 1-0.4 1.6-0.4 0.6 0 1.2 0.1 1.6 0.1zm-0.9-4.3c-0.2 0-0.4 0-0.7 0-0.6 0-1.4 0.1-1.4 0.8 0 0.6 0.8 0.9 1.3 0.9 0.4 0 0.6 0 0.8 0zm8.5-0.6v4.9h-0.9v-4.2h-2.3v4.2h-0.9v-4.9zm1.5 1.6c0-0.6 0-1.2-0.1-1.6h0.8l0.1 0.8c0.4-0.6 0.9-0.9 1.7-0.9 1.2 0 2.1 1 2.1 2.5 0 1.7-1.1 2.6-2.2 2.6-0.7 0-1.2-0.3-1.5-0.8v2.7h-0.9zm0.9 1.3q0 0.2 0 0.3c0.2 0.6 0.7 1.1 1.3 1.1 1 0 1.5-0.8 1.5-1.9 0-1-0.5-1.8-1.4-1.8-0.6 0-1.2 0.4-1.4 1.1q0 0.1 0 0.3zm5.6-2.9v2.1c0 0.8 0 1.2 0 1.9 0.3-0.5 0.5-0.9 0.8-1.5l1.5-2.5h1.1v4.9h-0.9v-2.1c0-0.8 0-1.2 0.1-2h-0.1c-0.3 0.7-0.5 1-0.8 1.6-0.4 0.7-1 1.6-1.5 2.5h-1v-4.9zm-74 11.5c0.4-0.1 1-0.1 1.6-0.1 0.8 0 2.1 0.1 2.1 1.2 0 0.6-0.4 1-1 1.1 0.7 0.1 1.3 0.5 1.3 1.2 0 1.3-1.6 1.5-2.6 1.5-0.5 0-1.1-0.1-1.4-0.1zm0.9 2h0.6c0.7 0 1.4-0.2 1.4-0.8q0-0.7-1.3-0.7c-0.3 0-0.5 0-0.7 0.1zm0 2.2c0.2 0 0.4 0 0.7 0 0.6 0 1.5-0.1 1.5-0.8 0-0.7-0.8-0.9-1.6-0.9h-0.6zm5.1-4.3v1.7c0.1-0.1 0.4-0.1 0.7-0.1 1.1 0 2.2 0.4 2.2 1.6 0 0.6-0.3 0.9-0.6 1.2-0.5 0.4-1.3 0.6-1.9 0.6-0.5 0-1-0.1-1.3-0.1v-4.9zm0 4.3q0.2 0 0.6 0c0.6 0 1.4-0.3 1.4-1 0-0.8-0.7-1.1-1.4-1.1q-0.4 0-0.6 0.1zm4.4-4.2v4.8h-0.9v-4.8zm4.9 4.7c-0.2 0.1-0.7 0.2-1.4 0.2-1.5 0-2.4-1-2.4-2.5 0-1.5 1-2.6 2.6-2.6 0.5 0 1 0.2 1.2 0.3l-0.2 0.7c-0.2-0.1-0.5-0.3-1-0.3-1.1 0-1.7 0.9-1.7 1.9 0 1.1 0.7 1.8 1.7 1.8 0.5 0 0.8-0.1 1.1-0.2zm2.9 0.3c-1.3 0-2.3-1-2.3-2.5 0-1.7 1.1-2.6 2.4-2.6 1.4 0 2.4 1 2.4 2.5 0 1.8-1.3 2.6-2.5 2.6zm0.1-0.7c0.8 0 1.5-0.8 1.5-1.9 0-0.8-0.5-1.9-1.5-1.9-1 0-1.5 1-1.5 1.9 0 1.1 0.6 1.9 1.5 1.9zm6.7-4.3v0.7h-1.5v4.2h-0.9v-4.2h-1.5v-0.7zm1.1 2.6c0 1.2 0.8 1.7 1.7 1.7 0.6 0 1-0.1 1.3-0.3l0.2 0.7c-0.3 0.1-0.9 0.3-1.6 0.3-1.5 0-2.4-1-2.4-2.5 0-1.5 0.8-2.6 2.3-2.6 1.5 0 2 1.4 2 2.3q0 0.2-0.1 0.4zm2.6-0.6c0-0.6-0.2-1.5-1.2-1.5-0.9 0-1.3 0.8-1.4 1.5zm6.1 3c-1.3 0-2.3-1-2.3-2.5 0-1.7 1.1-2.6 2.4-2.6 1.4 0 2.3 1 2.3 2.5 0 1.8-1.2 2.6-2.4 2.6zm0.1-0.7c0.8 0 1.5-0.8 1.5-1.9 0-0.8-0.5-1.9-1.5-1.9-1.1 0-1.5 1-1.5 1.9 0 1.1 0.6 1.9 1.5 1.9zm6.7-4.3v0.7h-1.5v4.2h-0.9v-4.2h-1.5v-0.7zm4.3 0v0.7h-1.5v4.2h-0.9v-4.2h-1.5v-0.7zm1.6 0v2c0 0.8-0.1 1.3-0.1 2 0.3-0.6 0.5-0.9 0.8-1.5l1.5-2.5h1.1v4.9h-0.9v-2.1c0-0.8 0.1-1.2 0.1-2-0.3 0.6-0.5 1-0.8 1.5-0.5 0.8-1 1.7-1.6 2.6h-1v-4.9zm8.3 4.7c-0.3 0.1-0.8 0.3-1.4 0.3-1.5 0-2.5-1-2.5-2.5 0-1.5 1.1-2.6 2.6-2.6 0.6 0 1 0.1 1.3 0.2l-0.2 0.7c-0.2-0.1-0.6-0.2-1.1-0.2-1.1 0-1.7 0.8-1.7 1.8 0 1.2 0.8 1.9 1.7 1.9 0.5 0 0.9-0.2 1.1-0.3zm1.9-4.7v2.1h0.2l1.9-2.1h1.1l-2.2 2.2c0.8 0.1 1.3 0.6 1.7 1.5 0.1 0.3 0.3 0.8 0.5 1.2h-0.9c-0.2-0.2-0.3-0.6-0.5-1-0.3-0.8-0.8-1.1-1.6-1.1h-0.2v2.1h-0.9v-4.9zm7.5 3.7c0 0.5 0.1 0.9 0.1 1.2h-0.8l-0.1-0.6c-0.3 0.4-0.8 0.7-1.5 0.7-1 0-1.5-0.7-1.5-1.4 0-1.2 1.1-1.8 2.9-1.8v-0.1c0-0.4-0.1-1.1-1.1-1.1-0.4 0-0.9 0.1-1.2 0.3l-0.2-0.6c0.4-0.2 0.9-0.4 1.6-0.4 1.5 0 1.8 1 1.8 2zm-0.8-1.3c-1 0-2.1 0.1-2.1 1.1 0 0.6 0.4 0.8 0.8 0.8 0.7 0 1.1-0.4 1.2-0.8q0.1-0.1 0.1-0.3zm4.3-0.4l4.7-2.4v0.7l-3.9 1.9v0.1l3.9 1.9v0.7l-4.7-2.4zm9.7-2.8h-2.5l-0.2 1.6c0.1 0 0.3 0 0.5 0 0.5 0 1 0.1 1.4 0.4 0.5 0.2 1 0.8 1 1.6 0 1.3-1.1 2.3-2.5 2.3-0.7 0-1.3-0.2-1.6-0.4l0.2-0.7c0.3 0.2 0.8 0.4 1.4 0.4 0.8 0 1.6-0.6 1.6-1.5 0-0.8-0.6-1.4-1.9-1.4q-0.6 0-0.9 0.1l0.4-3.2h3.1zm3.4 5.9c-1.3 0-2.2-1.2-2.2-3.3 0-2.2 1-3.4 2.3-3.4 1.4 0 2.2 1.2 2.2 3.3 0 2.2-0.9 3.4-2.3 3.4zm0-0.7c0.9 0 1.4-1 1.4-2.7 0-1.6-0.4-2.7-1.4-2.7-0.8 0-1.3 1.1-1.3 2.7 0 1.7 0.5 2.7 1.3 2.7zm5.5-4.3h1.1l0.9 2.5c0.1 0.4 0.3 1 0.5 1.3 0.1-0.3 0.4-1.1 0.6-1.6l0.7-2.2h1.1l0.4 4.9h-0.9l-0.1-2.3c0-0.5 0-1.2-0.1-1.8-0.1 0.5-0.3 0.9-0.5 1.6l-1 2.5h-0.6l-0.9-2.4c-0.1-0.5-0.3-1.2-0.5-1.6 0 0.5 0 1.2-0.1 1.7l-0.1 2.3h-0.8zm6.4 0h1.1l0.9 2.5c0.1 0.3 0.3 0.9 0.4 1.3 0.2-0.3 0.4-1.1 0.6-1.7l0.8-2.1h1.1l0.4 4.9h-0.9l-0.1-2.3c0-0.6-0.1-1.2-0.1-1.8-0.1 0.5-0.3 0.9-0.6 1.6l-0.9 2.5h-0.6l-0.9-2.5c-0.2-0.4-0.4-1.1-0.5-1.6-0.1 0.6-0.1 1.3-0.1 1.8l-0.1 2.3h-0.9zm5.9 6.1c0.2-0.6 0.5-1.7 0.6-2.4l0.9-0.1c-0.2 0.9-0.6 2-0.9 2.5zm1-4.7c-0.3 0-0.6-0.3-0.6-0.7 0-0.3 0.3-0.6 0.6-0.6 0.4 0 0.6 0.3 0.6 0.6 0 0.4-0.2 0.7-0.6 0.7zm-96.8 9.9v4.3h0.5v2.2h-0.7v-1.6h-3.4l-0.1 1.6h-0.7v-2.2h0.4q0.3-0.5 0.5-1 0.3-1 0.3-2v-1.3zm-2.5 1.5q0 1-0.2 1.8-0.2 0.5-0.4 1h2.2v-3.6h-1.6zm7.8-1.5v4.9h-0.9v-4.2h-1.7v1.3c0 1.4-0.1 2.3-0.7 2.7-0.3 0.2-0.5 0.3-1 0.3l-0.1-0.7c0.2 0 0.4-0.1 0.5-0.2 0.5-0.3 0.5-1 0.5-2.1v-2zm5.1 4.9h-0.9v-2h-0.7q-0.5 0-0.8 0.3c-0.4 0.2-0.5 0.9-0.7 1.3q-0.1 0.3-0.2 0.4h-0.9q0.1-0.2 0.3-0.5c0.2-0.5 0.3-1.1 0.7-1.5q0.3-0.2 0.6-0.3c-0.6-0.1-1.3-0.5-1.3-1.2 0-0.5 0.3-0.9 0.6-1.1 0.4-0.2 1-0.3 1.7-0.3 0.6 0 1.1 0 1.6 0.1zm-0.9-4.3c-0.2 0-0.4-0.1-0.8-0.1-0.6 0-1.3 0.2-1.3 0.9 0 0.6 0.8 0.8 1.3 0.8 0.4 0 0.6 0 0.8 0zm5.3-0.5v1.9h2.3v-1.9h0.9v4.8h-0.9v-2.2h-2.3v2.2h-0.9v-4.8zm8.1 3.7c0 0.4 0 0.8 0.1 1.1h-0.8l-0.1-0.6c-0.3 0.4-0.8 0.7-1.5 0.7-1 0-1.5-0.7-1.5-1.4 0-1.1 1-1.8 2.9-1.8v-0.1c0-0.4-0.1-1.1-1.1-1.1-0.5 0-0.9 0.1-1.3 0.4l-0.2-0.6c0.4-0.3 1-0.5 1.6-0.5 1.5 0 1.9 1.1 1.9 2zm-0.9-1.3c-0.9 0-2 0.2-2 1.1 0 0.6 0.3 0.9 0.8 0.9 0.6 0 1-0.4 1.2-0.9q0-0.1 0-0.2zm3.2-2.4v1.9h2.3v-1.9h0.9v4.9h-0.9v-2.3h-2.3v2.3h-0.9v-4.9zm5.1 2.6c0.1 1.2 0.8 1.7 1.7 1.7 0.6 0 1-0.2 1.4-0.3l0.1 0.6c-0.3 0.2-0.8 0.4-1.6 0.4-1.5 0-2.4-1-2.4-2.5 0-1.5 0.9-2.6 2.3-2.6 1.6 0 2 1.4 2 2.3q0 0.2 0 0.4zm2.5-0.7c0.1-0.5-0.2-1.4-1.2-1.4-0.9 0-1.3 0.8-1.3 1.4zm5.4 2.8c-0.2 0.1-0.7 0.3-1.4 0.3-1.5 0-2.4-1-2.4-2.5 0-1.5 1-2.6 2.6-2.6 0.5 0 1 0.1 1.2 0.2l-0.2 0.7c-0.2-0.1-0.5-0.2-1-0.2-1.1 0-1.7 0.8-1.7 1.8 0 1.1 0.7 1.8 1.7 1.8 0.5 0 0.8-0.1 1.1-0.2zm1.4-2.1c0.1 1.2 0.8 1.7 1.7 1.7 0.6 0 1-0.1 1.3-0.3l0.2 0.7c-0.3 0.1-0.8 0.3-1.6 0.3-1.5 0-2.4-1-2.4-2.5 0-1.4 0.9-2.6 2.3-2.6 1.6 0 2 1.4 2 2.3q0 0.3 0 0.4zm2.5-0.6c0.1-0.6-0.2-1.5-1.2-1.5-0.9 0-1.3 0.9-1.3 1.5zm2.8-2v2h2.3v-2h0.9v4.9h-0.9v-2.2h-2.3v2.2h-0.9v-4.9zm5.5 0v2.1c0 0.7-0.1 1.2-0.1 1.9 0.3-0.6 0.5-0.9 0.8-1.5l1.5-2.5h1.1v4.9h-0.9v-2.1c0-0.8 0.1-1.2 0.1-2-0.3 0.6-0.5 1-0.8 1.5-0.5 0.8-1.1 1.7-1.6 2.6h-1v-4.9zm8.4 4.9h-0.9v-2.1h-0.7q-0.5 0-0.8 0.3c-0.3 0.3-0.5 0.9-0.7 1.4q-0.1 0.2-0.2 0.4h-0.9q0.2-0.3 0.3-0.6c0.2-0.4 0.3-1.1 0.8-1.4q0.2-0.2 0.5-0.3c-0.6-0.1-1.3-0.5-1.3-1.3 0-0.5 0.3-0.8 0.7-1 0.4-0.3 1-0.4 1.6-0.4 0.6 0 1.2 0.1 1.6 0.1zm-0.9-4.2c-0.2-0.1-0.4-0.1-0.7-0.1-0.6 0-1.4 0.2-1.4 0.8 0 0.7 0.8 0.9 1.3 0.9 0.4 0 0.6 0 0.8 0zm5.3-0.6v2h2.3v-2h0.9v4.9h-0.9v-2.2h-2.3v2.2h-0.9v-4.9zm8.1 3.7c0 0.4 0 0.9 0.1 1.2h-0.8l-0.1-0.6c-0.3 0.4-0.8 0.7-1.5 0.7-1 0-1.5-0.7-1.5-1.4 0-1.2 1-1.8 2.9-1.8v-0.1c0-0.4-0.1-1.2-1.1-1.1-0.4 0-0.9 0.1-1.3 0.3l-0.2-0.6c0.4-0.2 1-0.4 1.7-0.4 1.5 0 1.8 1 1.8 2zm-0.9-1.3c-0.9 0-2 0.1-2 1.1 0 0.6 0.4 0.8 0.8 0.8 0.7 0 1.1-0.4 1.2-0.8q0.1-0.1 0-0.3zm8 2.3c-0.3 0.1-0.8 0.3-1.4 0.3-1.5 0-2.5-1-2.5-2.5 0-1.5 1.1-2.6 2.6-2.6 0.6 0 1 0.2 1.3 0.3l-0.2 0.7c-0.2-0.2-0.6-0.3-1.1-0.3-1.1 0-1.7 0.9-1.7 1.9 0 1.1 0.7 1.8 1.7 1.8 0.5 0 0.9-0.1 1.1-0.2z"/>
			<path id="path64" fill-rule="evenodd" class="s6" d="m420.2 276l1.1 2.9c0.1 0.3 0.2 0.7 0.3 1 0.1-0.3 0.2-0.7 0.3-1l1-2.9h0.9l-1.3 3.5c-0.6 1.7-1.1 2.5-1.7 3.1-0.4 0.3-0.8 0.5-1.1 0.5l-0.2-0.7c0.2-0.1 0.5-0.2 0.8-0.4 0.2-0.2 0.5-0.6 0.7-1q0.1-0.2 0.1-0.2 0-0.1-0.1-0.3l-1.7-4.5zm4.3 0.1c0.4-0.1 1-0.1 1.6-0.1 0.8 0 2.2 0.1 2.2 1.2 0 0.6-0.5 1-1 1.1 0.7 0.1 1.2 0.5 1.2 1.2 0 1.3-1.6 1.5-2.6 1.5-0.5 0-1.1-0.1-1.4-0.1zm0.9 2h0.7c0.6 0 1.3-0.2 1.3-0.8q0-0.7-1.3-0.7c-0.3 0-0.5 0-0.7 0.1zm0 2.2c0.2 0 0.4 0 0.7 0 0.6 0 1.5-0.1 1.5-0.8 0-0.7-0.7-0.9-1.6-0.9h-0.6zm4.7-1.7c0 1.2 0.8 1.7 1.7 1.7 0.6 0 1-0.1 1.3-0.2l0.2 0.6c-0.3 0.1-0.9 0.3-1.6 0.3-1.5 0-2.4-1-2.4-2.5 0-1.4 0.8-2.6 2.3-2.6 1.6 0 2 1.4 2 2.3q0 0.3-0.1 0.4zm2.6-0.6c0-0.6-0.2-1.5-1.2-1.5-0.9 0-1.3 0.9-1.3 1.5zm2.8-2v2h2.3v-2h0.9v4.9h-0.9v-2.2h-2.3v2.2h-0.9v-4.9zm5.4 0v2.1c0 0.8 0 1.2 0 1.9 0.3-0.5 0.5-0.9 0.8-1.5l1.5-2.5h1.1v4.9h-0.9v-2.1c0-0.8 0-1.2 0.1-2-0.4 0.7-0.6 1.1-0.8 1.6-0.5 0.7-1.1 1.6-1.6 2.5h-1v-4.9zm4.8 1.6c0-0.6 0-1.1-0.1-1.6h0.8l0.1 0.9c0.4-0.6 0.9-1 1.7-1 1.2 0 2.1 1 2.1 2.5 0 1.7-1.1 2.6-2.2 2.6-0.7 0-1.2-0.3-1.5-0.7v2.6h-0.9zm0.9 1.3q0 0.2 0 0.4c0.2 0.6 0.7 1 1.3 1 1 0 1.5-0.8 1.5-1.9 0-1-0.5-1.8-1.4-1.8-0.6 0-1.2 0.4-1.4 1.1q0 0.2 0 0.4zm5.7-2.9v1.9h2.3v-1.9h0.9v4.8h-0.9v-2.2h-2.3v2.2h-0.9v-4.8zm4.9 0l1.1 2.8c0.1 0.4 0.2 0.8 0.3 1 0.1-0.2 0.2-0.6 0.3-1l1-2.8h0.9l-1.3 3.4c-0.6 1.7-1.1 2.6-1.7 3.1-0.4 0.4-0.8 0.5-1.1 0.6l-0.2-0.8c0.2 0 0.5-0.2 0.8-0.4 0.2-0.2 0.5-0.5 0.7-1q0.1-0.1 0.1-0.2 0-0.1-0.1-0.2l-1.8-4.5zm5.3 0v2h0.9c0.1-1.3 0.9-2.1 2.1-2.1 1.3 0 2.2 0.9 2.2 2.5 0 1.5-1 2.6-2.2 2.6-1.2 0-2.1-0.9-2.2-2.3h-0.8v2.1h-0.9v-4.8zm3 4.3c0.9 0 1.3-1 1.3-1.9 0-0.9-0.4-1.9-1.3-1.9-0.8 0-1.3 0.9-1.3 1.9 0 1 0.4 1.9 1.3 1.9zm-128.5 7.1v2c0 0.8 0 1.3 0 2 0.3-0.6 0.4-0.9 0.8-1.5l1.5-2.5h1v4.8h-0.8v-2c0-0.8 0-1.2 0.1-2h-0.1c-0.3 0.6-0.5 1-0.8 1.5-0.4 0.8-1 1.7-1.5 2.5h-1v-4.8zm7.8 0v2.1h0.2l1.8-2.1h1.1l-2.2 2.2c0.8 0.1 1.3 0.6 1.7 1.5 0.1 0.3 0.3 0.8 0.5 1.1h-0.9c-0.1-0.2-0.3-0.5-0.5-0.9-0.3-0.8-0.8-1.2-1.6-1.2h-0.1v2.1h-0.9v-4.8zm7.5 3.7c0 0.4 0 0.8 0 1.1h-0.8l-0.1-0.6c-0.2 0.4-0.8 0.8-1.5 0.8-1 0-1.5-0.7-1.5-1.4 0-1.2 1.1-1.9 3-1.9v-0.1c0-0.4-0.1-1.1-1.1-1.1-0.5 0-1 0.1-1.3 0.4l-0.2-0.6c0.4-0.3 1-0.4 1.6-0.4 1.5 0 1.9 1 1.9 2zm-0.9-1.4c-1 0-2.1 0.2-2.1 1.1 0 0.6 0.4 0.9 0.8 0.9 0.7 0 1.1-0.4 1.2-0.8q0.1-0.2 0.1-0.3zm3.1-2.4v2h2.3v-2h0.9v4.9h-0.9v-2.2h-2.3v2.2h-0.9v-4.9zm5.6 0v4.2h2.2v-4.2h0.9v4.2h0.5l-0.1 2.2h-0.6l-0.1-1.5h-3.7v-4.9zm5.1 2.6c0 1.2 0.8 1.7 1.7 1.7 0.6 0 1-0.1 1.3-0.3l0.2 0.7c-0.3 0.1-0.9 0.3-1.6 0.3-1.5 0-2.4-1-2.4-2.5 0-1.5 0.8-2.6 2.3-2.6 1.6 0 2 1.4 2 2.3q0 0.2-0.1 0.4zm2.6-0.6c0-0.6-0.2-1.5-1.2-1.5-0.9 0-1.3 0.8-1.3 1.5zm5.6-2v4.9h-0.9v-4.2h-1.6v1.2c0 1.4-0.2 2.3-0.8 2.7-0.2 0.2-0.5 0.3-1 0.3l-0.1-0.7c0.2 0 0.4-0.1 0.5-0.2 0.5-0.3 0.5-1 0.5-2.1v-1.9zm5.1 4.9h-0.9v-2.1h-0.7q-0.5 0-0.8 0.3c-0.3 0.3-0.5 0.9-0.7 1.4q-0.1 0.2-0.2 0.4h-0.9q0.2-0.3 0.3-0.6c0.2-0.5 0.3-1.1 0.8-1.5q0.2-0.2 0.5-0.2v-0.1c-0.6 0-1.3-0.4-1.3-1.2 0-0.5 0.3-0.8 0.7-1 0.4-0.3 1-0.4 1.6-0.4 0.6 0 1.2 0.1 1.6 0.1zm-0.9-4.3c-0.2 0-0.4 0-0.7 0-0.6 0-1.4 0.2-1.4 0.8 0 0.7 0.8 0.9 1.3 0.9 0.4 0 0.6 0 0.8 0zm2.3 1c0-0.6 0-1.1 0-1.6h0.8v0.8c0.4-0.6 1-0.9 1.8-0.9 1.2 0 2 1 2 2.5 0 1.7-1 2.6-2.2 2.6-0.6 0-1.2-0.3-1.5-0.8v2.7h-0.9zm0.9 1.3q0 0.2 0 0.3c0.2 0.7 0.7 1.1 1.4 1.1 0.9 0 1.4-0.8 1.4-1.9 0-1-0.5-1.8-1.4-1.8-0.6 0-1.2 0.4-1.3 1.1q-0.1 0.1-0.1 0.3zm8.3 1.8c-0.2 0.1-0.7 0.3-1.4 0.3-1.4 0-2.4-1-2.4-2.5 0-1.5 1-2.6 2.6-2.6 0.5 0 1 0.2 1.3 0.3l-0.2 0.7c-0.3-0.2-0.6-0.3-1.1-0.3-1.1 0-1.7 0.9-1.7 1.9 0 1.1 0.7 1.8 1.7 1.8 0.5 0 0.8-0.1 1.1-0.2zm1.9-4.7v2.1h0.2l1.8-2.1h1.1l-2.1 2.2c0.8 0.1 1.3 0.6 1.7 1.5 0.1 0.3 0.2 0.8 0.5 1.1h-1c-0.1-0.2-0.3-0.5-0.4-1-0.3-0.7-0.8-1.1-1.6-1.1h-0.2v2.1h-0.9v-4.8zm4.4 0l1 2.9c0.1 0.3 0.3 0.7 0.3 0.9h0.1c0.1-0.2 0.2-0.6 0.3-1l0.9-2.8h1l-1.4 3.4c-0.6 1.7-1 2.6-1.6 3.1-0.5 0.4-0.9 0.5-1.1 0.6l-0.2-0.8c0.2 0 0.5-0.2 0.7-0.4 0.3-0.2 0.6-0.5 0.8-1q0.1-0.1 0.1-0.2 0-0.1-0.1-0.2l-1.8-4.5zm5.3 0v2h0.8c0.2-1.3 1-2.1 2.2-2.1 1.2 0 2.1 1 2.1 2.5 0 1.5-1 2.6-2.2 2.6-1.2 0-2-0.9-2.1-2.3h-0.8v2.1h-0.9v-4.8zm3 4.3c0.9 0 1.3-1 1.3-1.9 0-0.9-0.5-1.9-1.3-1.9-0.9 0-1.3 0.9-1.3 1.9 0 1 0.4 1.9 1.3 1.9zm9.4-4.3v4.8h-0.9v-4.1h-2.3v4.1h-0.8v-4.8zm1.4 1.6c0-0.7 0-1.2 0-1.6h0.8v0.8c0.4-0.6 1-0.9 1.8-0.9 1.1 0 2 1 2 2.4 0 1.8-1 2.7-2.2 2.7-0.6 0-1.2-0.3-1.5-0.8v2.6h-0.9zm0.9 1.3q0 0.2 0 0.4c0.2 0.6 0.7 1 1.3 1 1 0 1.5-0.7 1.5-1.8 0-1-0.5-1.9-1.4-1.9-0.6 0-1.2 0.5-1.4 1.1q0 0.2 0 0.4zm6.8 2.1c-1.3 0-2.3-1-2.3-2.5 0-1.6 1.1-2.6 2.4-2.6 1.4 0 2.4 1 2.4 2.5 0 1.8-1.3 2.6-2.5 2.6zm0.1-0.7c0.8 0 1.5-0.8 1.5-1.9 0-0.8-0.5-1.8-1.5-1.8-1 0-1.5 0.9-1.5 1.9 0 1 0.6 1.8 1.5 1.8zm7.2-4.3v4.2h0.5l-0.1 2.2h-0.7v-1.5h-3.4v1.5h-0.7l-0.1-2.2h0.5q0.3-0.4 0.4-1 0.3-0.9 0.3-1.9v-1.3zm-2.5 1.5q0.1 1-0.2 1.8-0.2 0.5-0.4 0.9h2.3v-3.5h-1.7zm4.4-1.5l1.1 2.9c0.1 0.3 0.2 0.7 0.3 1 0.1-0.3 0.2-0.7 0.3-1l1-2.9h0.9l-1.3 3.5c-0.6 1.7-1.1 2.5-1.7 3-0.4 0.4-0.8 0.6-1.1 0.6l-0.2-0.7c0.2-0.1 0.5-0.2 0.8-0.5 0.2-0.2 0.5-0.5 0.7-1q0.1-0.1 0.1-0.2 0 0-0.1-0.2l-1.8-4.5zm5.4 0v2.1h0.2l1.8-2.1h1.1l-2.2 2.2c0.8 0.1 1.3 0.6 1.7 1.5 0.1 0.3 0.3 0.8 0.5 1.2h-0.9c-0.1-0.2-0.3-0.6-0.5-1-0.3-0.8-0.8-1.2-1.6-1.2h-0.1v2.2h-0.9v-4.9zm4.8 0v4.2h2.2v-4.2h0.9v4.2h0.5v2.2h-0.7l-0.1-1.5h-3.7v-4.9zm5.5 0v2.1c0 0.7 0 1.2-0.1 1.9h0.1c0.3-0.6 0.4-0.9 0.8-1.5l1.5-2.5h1v4.9h-0.8v-2.1c0-0.8 0-1.2 0-2-0.3 0.6-0.5 1-0.8 1.5-0.5 0.8-1 1.7-1.5 2.6h-1.1v-4.9zm5.7 0v2.1h0.8c0.1-1.3 1-2.2 2.2-2.2 1.2 0 2.1 1 2.1 2.5 0 1.6-1 2.6-2.2 2.6-1.2 0-2-0.9-2.1-2.3h-0.8v2.2h-0.9v-4.9zm3 4.3c0.8 0 1.2-0.9 1.2-1.9 0-0.9-0.4-1.8-1.2-1.8-0.9 0-1.3 0.9-1.3 1.9 0 0.9 0.4 1.8 1.2 1.8zm3.7 0.7c-0.3 0-0.6-0.3-0.6-0.6 0-0.4 0.3-0.7 0.6-0.7 0.4 0 0.6 0.3 0.6 0.7 0 0.3-0.2 0.6-0.6 0.6z"/>
			<path id="path66" class="s6" d="m131.2 603.7c0 39.3-31.8 71.1-71.1 71.1-39.3 0-71.1-31.8-71.1-71.1 0-39.2 31.8-71.1 71.1-71.1 39.3 0 71.1 31.9 71.1 71.1z"/>
			<path id="path68" class="s5" d="m52.4 613.7h3.8v-21.5h-3.8z"/>
			<path id="path70" class="s5" d="m77 601.2h-7.9c-4.3 0-4.4-0.8-4.4-2.6 0-2.8 1.2-3 6.5-3h2.8c6 0 6.6 0.4 6.8 1.7l0.1 0.5 3.7-0.1-0.1-0.6c-0.3-3.5-2.8-4.9-8.9-4.9h-5.8c-5.5 0-8.8 1-8.8 6.2 0 6 3.8 6.3 11.5 6.3h5.1c3.3 0 3.8 0.6 3.8 2.6 0 2.3-0.6 3.1-4.5 3.1h-8.4c-3.5 0-3.8-1.1-3.8-2.3v-0.6l-3.6 0.1v0.5c0 5.6 5.5 5.6 7.9 5.6h7.5c3.2 0 8.6 0 8.6-5.8v-1.3c0-4.8-4.3-5.4-8.1-5.4z"/>
			<path id="path72" class="s5" d="m104.4 601.2h-8c-4.2 0-4.4-0.8-4.4-2.6 0-2.8 1.3-3 6.5-3h2.9c5.9 0 6.6 0.4 6.8 1.7l0.1 0.5 3.6-0.1v-0.6c-0.4-3.5-2.9-4.9-8.9-4.9h-5.8c-5.6 0-8.8 1-8.8 6.2 0 6 3.7 6.3 11.5 6.3h5.1c3.3 0 3.8 0.6 3.8 2.6 0 2.3-0.7 3.1-4.5 3.1h-8.4c-3.6 0-3.9-1.1-3.9-2.3v-0.6l-3.6 0.1v0.5c0 5.6 5.6 5.6 8 5.6h7.5c3.2 0 8.5 0 8.5-5.8v-1.3c0-4.8-4.3-5.4-8-5.4z"/>
			<path id="path74" class="s1" d="m36.3 591h-12.5l-0.6-0.8h13.7z"/>
			<path id="path76" class="s1" d="m28.9 603l-0.6 0.7-6.5 8.1-0.6 0.7h13.6l-2.6 3.2h-12.4l-0.6-0.7-0.7 0.9-0.3 0.3-1.6 2-0.6 0.7h18.3l7.7-9.5h-13.7l0.6-0.8 2-2.4h13.7l2-2.5 0.6-0.7z"/>
			<path id="path78" class="s7" d="m41.4 608.6l0.6 0.8h-13.7l0.6-0.8z"/>
			<path id="path80" class="s7" d="m46.6 602.3v-0.1l-7.2-8.8h-13.7l-1.9-2.4-0.6-0.8h13.7l-2.6-3.2h-18.3l0.6 0.8 7.1 8.8 0.6 0.7 0.6-0.7h6.8 5.7l2.6 3.2h-13.7l0.6 0.7 1.4 1.8 0.6 0.7h18.3z"/>
			<path id="path82" class="s7" d="m32.8 615h-13.6l0.6 0.7h13.6z"/>
			<path id="path84" class="s1" d="m38.6 596.6h-13.7l-0.6 0.7h13.7z"/>
			<path id="path86" class="s1" d="m19.2 603h4.5l-7.7 9.5h-4.6z"/>
			<path id="path88" class="s7" d="m23.7 603h-4.5l-2.6-3.2h4.5z"/>
			<path id="path90" class="s0" d="m284.1 603.7c0 39.3-31.9 71.1-71.1 71.1-39.3 0-71.1-31.8-71.1-71.1 0-39.2 31.8-71.1 71.1-71.1 39.2 0 71.1 31.9 71.1 71.1z"/>
			<path id="path92" class="s5" d="m203.4 613.7h3.8v-21.5h-3.8z"/>
			<path id="path94" class="s5" d="m228.1 601.2h-8c-4.2 0-4.4-0.8-4.4-2.6 0-2.8 1.2-3 6.5-3h2.9c5.9 0 6.5 0.4 6.8 1.7l0.1 0.5 3.6-0.1v-0.6c-0.4-3.5-2.9-4.9-8.9-4.9h-5.8c-5.6 0-8.8 1-8.8 6.2 0 6 3.7 6.3 11.4 6.3h5.2c3.3 0 3.8 0.6 3.8 2.6 0 2.3-0.7 3.1-4.5 3.1h-8.4c-3.6 0-3.9-1.1-3.9-2.3v-0.6l-3.6 0.1v0.5c0 5.6 5.6 5.6 8 5.6h7.4c3.2 0 8.6 0 8.6-5.8v-1.3c0-4.8-4.3-5.4-8-5.4z"/>
			<path id="path96" class="s5" d="m255.5 601.2h-8c-4.3 0-4.4-0.8-4.4-2.6 0-2.8 1.2-3 6.5-3h2.8c6 0 6.6 0.4 6.8 1.7l0.1 0.5 3.7-0.1-0.1-0.6c-0.3-3.5-2.8-4.9-8.9-4.9h-5.8c-5.5 0-8.8 1-8.8 6.2 0 6 3.8 6.3 11.5 6.3h5.1c3.3 0 3.8 0.6 3.8 2.6 0 2.3-0.6 3.1-4.5 3.1h-8.4c-3.5 0-3.8-1.1-3.8-2.3v-0.6l-3.6 0.1v0.5c0 5.6 5.5 5.6 7.9 5.6h7.5c3.2 0 8.6 0 8.6-5.8v-1.3c0-4.8-4.3-5.4-8-5.4z"/>
			<path id="path98" class="s1" d="m187.3 591h-12.5l-0.6-0.8h13.7z"/>
			<path id="path100" class="s1" d="m179.9 603l-0.6 0.7-6.5 8.1-0.6 0.7h13.6l-2.5 3.2h-12.5l-0.6-0.7-0.7 0.9-0.2 0.3-1.7 2-0.5 0.7h-0.1 18.3l7.8-9.5h-13.7l0.6-0.8 2-2.4h13.6l2-2.5 0.6-0.7z"/>
			<path id="path102" class="s7" d="m192.5 608.6l0.6 0.8h-13.7l0.6-0.8z"/>
			<path id="path104" fill-rule="evenodd" class="s8" d="m197.6 602.3v-0.1l-7.1-8.8h-13.7l-2-2.4-0.6-0.8h13.7l-2.6-3.2h-18.3l0.6 0.8 7.2 8.8 0.6 0.7 0.5-0.7h6.9 5.6l2.6 3.2h-13.6l0.6 0.7 1.4 1.8 0.5 0.7h18.3z"/>
			<path id="path106" class="s7" d="m183.9 615h-13.7l0.6 0.7h13.6 0.1z"/>
			<path id="path108" class="s1" d="m189.6 596.6h-13.7l-0.5 0.7h13.6z"/>
			<path id="path110" class="s1" d="m170.2 603h4.6l-7.7 9.5h-4.6z"/>
			<path id="path112" fill-rule="evenodd" class="s8" d="m174.8 603h-4.6l-2.6-3.2h4.6z"/>
			<path id="path114" class="s2" d="m-7.1 710.1h153.9v120.6h-153.9z"/>
			<path id="path116" class="s3" d="m158 710.1h153.9v120.6h-153.9z"/>
			<path id="path118" fill-rule="evenodd" class="s8" d="m323.1 710.1h153.9v120.6h-153.9z"/>
			<g id="g120">
				<text id="tspan122" style="transform: matrix(1.333,0,0,1.333,-5.372,699.792)" >
					<tspan x="0" y="0" class="t4">ISS Dark_BlueISS BlueISS Light_Blueadd_1
</tspan>
				</text>
			</g>
			<path id="path126" fill-rule="evenodd" class="s5" d="m174.5 731.8v4.3h4.9v-4.3h1.4v10.2h-1.4v-4.8h-4.9v4.8h-1.3v-10.2zm13.8 5.4h-4v3.7h4.5v1.1h-5.8v-10.2h5.5v1.1h-4.2v3.2h4zm7.7 4.8l-1.3-2.2c-0.5-0.9-0.8-1.5-1.1-2.1h-0.1c-0.2 0.6-0.6 1.2-1.1 2.1l-1.2 2.2h-1.5l3.1-5.1-3-5.1h1.5l1.4 2.4c0.4 0.7 0.7 1.2 0.9 1.7h0.1c0.3-0.6 0.5-1 0.9-1.7l1.4-2.4h1.5l-3.1 5 3.2 5.2zm3.6-5.2c-0.6 0-0.9-0.4-0.9-0.9 0-0.6 0.4-1 0.9-1 0.5 0 0.9 0.4 0.9 1 0 0.5-0.4 0.9-0.9 0.9zm0 5.4c-0.5 0-0.9-0.4-0.9-1 0-0.5 0.4-0.9 0.9-0.9 0.5 0 0.9 0.4 0.9 0.9 0 0.6-0.4 1-0.9 1zm6.1-0.2l0.4-3h-1.3v-0.8h1.4l0.3-2.2h-1.3v-0.9h1.4l0.4-2.9h0.9l-0.4 2.9h1.6l0.4-2.9h0.9l-0.4 2.9h1.2v0.9h-1.4l-0.2 2.2h1.3v0.8h-1.5l-0.4 3h-0.9l0.4-3h-1.5l-0.4 3zm3-3.8l0.3-2.2h-1.6l-0.3 2.2zm6.9 4c-1.9 0-3.2-1.8-3.3-5.1 0-3.3 1.5-5.1 3.5-5.1 2 0 3.2 1.9 3.2 5 0 3.3-1.2 5.2-3.4 5.2zm0.1-1c1.4 0 2-1.6 2-4.1 0-2.5-0.6-4.1-2-4.1-1.2 0-2 1.6-2 4.1 0 2.5 0.8 4.1 2 4.1zm7.7 1c-1.9 0-3.3-1.8-3.3-5.1 0-3.3 1.4-5.1 3.4-5.1 2.1 0 3.3 1.9 3.3 5 0 3.3-1.3 5.2-3.4 5.2zm0.1-1c1.3 0 2-1.6 2-4.1 0-2.5-0.6-4.1-2-4.1-1.2 0-2 1.6-2 4.1-0.1 2.5 0.7 4.1 2 4.1zm7.8-9.2c1.9 0 2.9 1.2 2.9 2.4 0 0.9-0.4 1.8-1.7 2.3v0.1c1.3 0.5 2 1.3 2 2.5 0 1.7-1.4 2.9-3.3 2.9-2.1 0-3.3-1.2-3.3-2.7 0-1.2 0.7-2.1 1.9-2.6v-0.1c-1.1-0.5-1.6-1.3-1.6-2.2 0-1.5 1.4-2.6 3.1-2.6zm-0.1 9.2c1.2 0 2-0.7 2-1.7 0-1.2-0.9-1.8-2.2-2.2-1.1 0.3-1.8 1.1-1.8 2.1 0 0.9 0.7 1.8 2 1.8zm0-8.2c-1.1 0-1.7 0.7-1.7 1.5 0 1 0.7 1.6 1.9 1.9 0.8-0.3 1.5-0.9 1.5-1.8 0-0.8-0.5-1.6-1.7-1.6zm10.3 4.2h-4v3.7h4.5v1.1h-5.8v-10.2h5.5v1.1h-4.2v3.2h4zm7.4 0h-3.9v3.7h4.4v1.1h-5.8v-10.2h5.6v1.1h-4.2v3.3h3.9zm4.9 4.9c-2 0-3.3-1.8-3.3-5.1 0-3.3 1.4-5.1 3.4-5.1 2.1 0 3.3 1.9 3.3 5 0 3.4-1.3 5.2-3.4 5.2zm0.1-1c1.3 0 2-1.6 2-4.1 0-2.4-0.6-4-2-4-1.2 0-2 1.5-2 4-0.1 2.5 0.7 4.1 1.9 4.1zm-80.7 11.8c0.7-0.1 1.7-0.2 2.6-0.2 1.4 0 2.3 0.3 2.9 0.9 0.5 0.4 0.8 1.1 0.8 1.9 0 1.3-0.8 2.2-1.9 2.6 0.8 0.3 1.2 1 1.5 2.1 0.3 1.4 0.6 2.4 0.8 2.8h-1.4c-0.1-0.3-0.4-1.2-0.6-2.5-0.4-1.4-0.9-1.9-2.1-1.9h-1.2v4.4h-1.4zm1.4 4.6h1.3c1.4 0 2.3-0.8 2.3-1.9 0-1.3-1-1.9-2.3-1.9q-1 0-1.3 0.1zm14.6 5c-0.6 0.2-1.8 0.5-3.2 0.5-1.5 0-2.8-0.4-3.8-1.3-0.9-0.9-1.4-2.2-1.4-3.8 0-3.1 2.1-5.3 5.5-5.3 1.2 0 2.1 0.3 2.5 0.5l-0.3 1.1c-0.5-0.3-1.2-0.5-2.2-0.5-2.5 0-4.1 1.6-4.1 4.1 0 2.6 1.5 4.1 3.9 4.1 0.9 0 1.4-0.1 1.8-0.2v-3.1h-2.1v-1h3.4zm1.9-9.6c0.6-0.2 1.5-0.3 2.5-0.3 1.3 0 2.1 0.3 2.7 0.8 0.6 0.4 0.9 1 0.9 1.8 0 1-0.7 1.8-1.7 2.2v0.1c0.9 0.2 2.1 1 2.1 2.5 0 0.9-0.4 1.6-0.9 2.1-0.7 0.6-1.8 0.9-3.5 0.9-0.9 0-1.6-0.1-2.1-0.1zm1.4 4.2h1.2c1.3 0 2.2-0.8 2.2-1.8 0-1.1-0.9-1.6-2.3-1.6-0.6 0-0.9 0-1.1 0.1zm0 4.8q0.4 0.1 1.1 0.1c1.3 0 2.6-0.5 2.6-2 0-1.4-1.2-2-2.6-2h-1.1zm7.4-4.1c-0.5 0-0.9-0.4-0.9-1 0-0.5 0.4-0.9 0.9-0.9 0.5 0 0.9 0.4 0.9 0.9 0 0.6-0.4 1-0.9 1zm0 5.3c-0.5 0-0.9-0.4-0.9-0.9 0-0.6 0.4-1 0.9-1 0.6 0 0.9 0.4 0.9 1 0 0.5-0.3 0.9-0.9 0.9zm8.2-8.7l-1.7 0.9-0.3-1 2.2-1.2h1.1v9.8h-1.3zm10.5-0.3q-0.4 0-1 0.1c-2.1 0.4-3.2 1.9-3.4 3.5 0.5-0.6 1.3-1.1 2.4-1.1 1.8 0 3 1.2 3 3.1 0 1.8-1.2 3.5-3.3 3.5-2.1 0-3.5-1.6-3.5-4.2 0-1.9 0.7-3.4 1.7-4.4 0.8-0.8 1.9-1.3 3.2-1.5q0.6-0.1 0.9 0zm-2.3 8c1.2 0 1.9-1 1.9-2.4 0-1.4-0.8-2.2-2-2.2-0.8 0-1.5 0.5-1.9 1.2q-0.1 0.2-0.1 0.6c0 1.6 0.7 2.8 2.1 2.8zm8-3.7v1h-3.8v-1zm4.1-4h-0.1l-1.7 0.9-0.2-1 2.1-1.2h1.1v9.9h-1.2zm10.4-0.4q-0.4 0-1 0.1c-2.1 0.4-3.2 1.9-3.4 3.5 0.5-0.6 1.4-1.1 2.4-1.1 1.8 0 3 1.2 3 3.1 0 1.8-1.2 3.5-3.3 3.5-2.1 0-3.4-1.6-3.4-4.2 0-1.9 0.6-3.4 1.6-4.4 0.8-0.8 1.9-1.3 3.2-1.5q0.6 0 0.9 0zm-2.2 8c1.1 0 1.9-1 1.9-2.4 0-1.4-0.8-2.2-2.1-2.2-0.8 0-1.5 0.5-1.9 1.2q-0.1 0.2-0.1 0.6c0 1.6 0.7 2.8 2.1 2.8zm10.3-7.9h-3.7l-0.4 2.6c0.2-0.1 0.4-0.1 0.8-0.1 0.8 0 1.5 0.2 2.1 0.5 0.8 0.5 1.4 1.3 1.4 2.6 0 1.9-1.5 3.3-3.6 3.3-1.1 0-2-0.3-2.5-0.6l0.4-1c0.4 0.2 1.2 0.5 2.1 0.5 1.2 0 2.3-0.8 2.3-2.1 0-1.3-0.9-2.2-2.8-2.2-0.6 0-1 0.1-1.4 0.1l0.6-4.7h4.7zm5.4 4.2v0.9h-3.7v-0.9zm1.1 4.5v-0.8l1.1-1c2.5-2.4 3.6-3.7 3.6-5.1 0-1-0.4-2-1.9-2-0.9 0-1.6 0.5-2.1 0.9l-0.4-1c0.7-0.5 1.6-1 2.8-1 2.1 0 3 1.5 3 2.9 0 1.8-1.3 3.3-3.4 5.3l-0.8 0.7h4.4v1.1zm7.8 0v-0.8l1-1c2.5-2.4 3.7-3.7 3.7-5.1 0-1-0.5-2-2-2-0.8 0-1.6 0.5-2 0.9l-0.5-1c0.7-0.5 1.7-1 2.8-1 2.1 0 3 1.5 3 2.9 0 1.8-1.3 3.3-3.4 5.3l-0.7 0.7h4.4v1.1zm11.8 0v-2.7h-4.5v-0.8l4.3-6.3h1.5v6.1h1.4v1h-1.4v2.7zm0-3.7v-3.3q0-0.7 0-1.5c-0.3 0.6-0.6 1-0.8 1.4l-2.4 3.4zm-92.6 24.4c-0.5 0.3-1.5 0.5-2.7 0.5-2.9 0-5.1-1.8-5.1-5.1 0-3.2 2.2-5.4 5.4-5.4 1.2 0 2 0.3 2.4 0.5l-0.3 1.1c-0.5-0.3-1.2-0.5-2.1-0.5-2.4 0-4 1.6-4 4.2 0 2.5 1.5 4.1 3.9 4.1 0.9 0 1.7-0.2 2.2-0.4zm10.3-4.2c-0.1-1.4-0.2-3.1-0.2-4.4-0.4 1.2-0.8 2.5-1.3 3.9l-1.8 5h-1l-1.7-4.9q-0.7-2.1-1.2-4c0 1.3-0.1 3-0.2 4.5l-0.3 4.4h-1.2l0.7-10.2h1.7l1.7 5q0.7 1.8 1.1 3.4 0.4-1.5 1.1-3.4l1.8-5h1.7l0.6 10.2h-1.3zm5.8 4.5v-4.3l-3.2-5.9h1.5l1.5 2.8c0.3 0.8 0.7 1.4 1 2.1 0.3-0.6 0.6-1.3 1-2.1l1.5-2.8h1.5l-3.4 5.9v4.3zm5.8-10.2h1.3v4.9q0.5-0.6 0.8-1.1l3.2-3.8h1.6l-3.7 4.3 4 5.9h-1.6l-3.3-5-1 1.1v3.9h-1.3zm9 5c-0.5 0-0.8-0.4-0.8-0.9 0-0.6 0.3-1 0.9-1 0.5 0 0.9 0.4 0.9 1 0 0.5-0.4 0.9-0.9 0.9zm0 5.4c-0.6 0-0.9-0.4-0.9-1 0-0.5 0.4-0.9 0.9-0.9 0.5 0 0.9 0.4 0.9 0.9 0 0.6-0.4 1-0.9 1zm11.7-10v0.8l-4.3 9h-1.3l4.2-8.7h-4.8v-1.1zm7.8 0v0.8l-4.3 9h-1.4l4.3-8.7h-4.8v-1.1zm4.8 5.2v1h-3.7v-1zm4-4l-1.7 0.9-0.3-1 2.2-1.1h1.1v9.8h-1.3zm9 8.6v-2.7h-4.6v-0.9l4.4-6.2h1.5v6.1h1.3v1h-1.3v2.7zm0-3.7v-3.3q0-0.8 0-1.6c-0.3 0.6-0.6 1-0.8 1.5l-2.5 3.3v0.1zm7.2-0.9v1h-3.7v-1zm4.2 4.8c-1.9 0-3.2-1.8-3.2-5.1 0-3.3 1.4-5.1 3.4-5.1 2.1 0 3.3 1.8 3.3 5 0 3.3-1.3 5.2-3.5 5.2zm0.1-1.1c1.4 0 2-1.6 2-4.1 0-2.4-0.6-4-2-4-1.2 0-2 1.6-2 4 0 2.6 0.8 4.1 2 4.1zm8.1-3.7v1h-3.8v-1zm4.3 4.8c-1.9 0-3.2-1.8-3.3-5.1 0-3.3 1.5-5.1 3.5-5.1 2 0 3.2 1.8 3.2 5 0 3.3-1.2 5.2-3.4 5.2zm0.1-1.1c1.3 0 2-1.6 2-4.1 0-2.4-0.6-4-2-4-1.2 0-2 1.6-2 4 0 2.6 0.8 4.1 2 4.1zm-99.4 11.9c0.7-0.1 1.5-0.2 2.5-0.2q2 0 2.9 0.8c0.6 0.5 0.9 1.2 0.9 2.1q0 1.4-0.8 2.2c-0.7 0.7-1.8 1.1-3.1 1.1q-0.6 0-1.1-0.1v4.1h-1.3zm1.3 4.9q0.5 0.1 1.1 0.1c1.6 0 2.6-0.8 2.6-2.1 0-1.4-1-2-2.4-2-0.6 0-1 0-1.3 0.1zm11.5 3.4c0 0.6 0 1.3 0.1 1.8h-1.2l-0.1-1h-0.1c-0.4 0.6-1.2 1.1-2.2 1.1-1.5 0-2.3-1-2.3-2.1 0-1.7 1.6-2.7 4.5-2.7v-0.2c0-0.6-0.2-1.7-1.7-1.6-0.7 0-1.4 0.2-1.9 0.5l-0.3-0.9c0.6-0.4 1.5-0.6 2.4-0.6 2.2 0 2.8 1.5 2.8 3zm-1.3-2c-1.5 0-3.1 0.2-3.1 1.6 0 0.9 0.6 1.3 1.2 1.3 1 0 1.6-0.6 1.8-1.2q0.1-0.2 0.1-0.4zm3.4-1.6c0-0.8 0-1.4 0-2h1.1l0.1 1.2c0.4-0.7 1.3-1.4 2.5-1.4 1 0 2.5 0.6 2.5 3.1v4.4h-1.3v-4.2c0-1.2-0.4-2.2-1.7-2.2-0.8 0-1.5 0.6-1.8 1.4 0 0.1-0.1 0.4-0.1 0.6v4.4h-1.3zm10-3.7v1.7h1.9v1h-1.9v4c0 0.9 0.2 1.4 1 1.4 0.3 0 0.5 0 0.7-0.1l0.1 1c-0.3 0.1-0.7 0.2-1.2 0.2-0.6 0-1.1-0.2-1.4-0.6-0.4-0.4-0.5-1-0.5-1.9v-4h-1.2v-1h1.2v-1.3zm6.2 9.2c-1.9 0-3.5-1.4-3.5-3.8 0-2.4 1.7-3.8 3.7-3.8 2.1 0 3.5 1.5 3.5 3.7 0 2.7-1.9 3.9-3.6 3.9zm0-1c1.3 0 2.2-1.2 2.2-2.8 0-1.3-0.6-2.8-2.1-2.8-1.6 0-2.3 1.4-2.3 2.8 0 1.6 0.9 2.8 2.2 2.8zm5.3-4.5c0-0.8 0-1.4-0.1-2h1.2l0.1 1.2c0.4-0.7 1.2-1.3 2.4-1.3 1 0 2.6 0.6 2.6 3.1v4.3h-1.3v-4.2c0-1.2-0.5-2.2-1.7-2.2-0.9 0-1.6 0.7-1.8 1.4-0.1 0.2-0.1 0.4-0.1 0.6v4.4h-1.3zm9.1 2c0.1 1.7 1.2 2.5 2.5 2.5 1 0 1.6-0.2 2-0.4l0.3 1c-0.5 0.2-1.3 0.4-2.5 0.4-2.2 0-3.6-1.5-3.6-3.7 0-2.2 1.4-3.9 3.5-3.9 2.4 0 3 2.1 3 3.4q0 0.4 0 0.7zm3.8-1c0.1-0.8-0.3-2.2-1.8-2.2-1.4 0-1.9 1.3-2 2.2zm3.5-0.8c-0.5 0-0.9-0.4-0.9-0.9 0-0.6 0.4-1 0.9-1 0.5 0 0.9 0.4 0.9 1 0 0.5-0.4 0.9-0.9 0.9zm0 5.3c-0.5 0-0.9-0.4-0.9-0.9 0-0.5 0.4-0.9 0.9-0.9 0.6 0 0.9 0.4 0.9 0.9 0 0.5-0.3 0.9-0.9 0.9zm5.3-0.1v-0.8l1.1-1c2.5-2.4 3.7-3.7 3.7-5.2 0-1-0.5-1.9-2-1.9-0.9 0-1.6 0.4-2.1 0.8l-0.4-0.9c0.7-0.6 1.7-1 2.8-1 2.1 0 3 1.4 3 2.8 0 1.9-1.3 3.3-3.4 5.3l-0.8 0.7v0.1h4.4v1.1zm8.6-1c0.2 0.1 0.6 0 1 0 0.8-0.1 1.5-0.4 2.1-1 0.6-0.6 1.1-1.4 1.3-2.6h-0.1c-0.5 0.7-1.3 1.1-2.3 1.1-1.8 0-2.9-1.3-2.9-3 0-1.9 1.4-3.5 3.4-3.5 2 0 3.2 1.6 3.2 4.1 0 2.2-0.7 3.7-1.7 4.6-0.7 0.8-1.8 1.2-2.8 1.4-0.5 0-0.9 0-1.2 0zm2.4-8c-1.2 0-2 1-2 2.4 0 1.2 0.8 2.1 1.9 2.1 0.9 0 1.6-0.5 2-1.1q0.1-0.1 0.1-0.4c0-1.7-0.6-3-2-3zm5.3 8c0.3 0 0.7 0 1.1 0 0.8-0.1 1.5-0.4 2.1-1 0.6-0.6 1.1-1.4 1.3-2.6h-0.1c-0.5 0.7-1.3 1.1-2.3 1.1-1.8 0-2.9-1.4-2.9-3 0-1.9 1.3-3.5 3.4-3.5 2 0 3.2 1.6 3.2 4.1 0 2.2-0.7 3.7-1.7 4.6-0.7 0.8-1.8 1.2-2.8 1.3-0.5 0.1-1 0.1-1.3 0.1zm2.4-8c-1.1 0-1.9 1-1.9 2.4 0 1.2 0.8 2.1 1.9 2.1 0.9 0 1.6-0.5 2-1.1q0.1-0.1 0.1-0.5c0-1.7-0.7-2.9-2-2.9z"/>
			<path id="path128" fill-rule="evenodd" class="s6" d="m342 732v4.2h4.9v-4.2h1.3v10.2h-1.3v-4.8h-4.9v4.8h-1.4v-10.2zm13.8 5.4h-3.9v3.6h4.4v1.2h-5.7v-10.2h5.5v1.1h-4.2v3.2h3.9zm7.8 4.8l-1.3-2.3c-0.5-0.9-0.9-1.4-1.2-2-0.3 0.6-0.6 1.1-1.1 2l-1.2 2.3h-1.5l3.1-5.2-3-5h1.5l1.4 2.4c0.3 0.6 0.6 1.1 0.9 1.7 0.3-0.6 0.6-1.1 1-1.7l1.3-2.4h1.6l-3.1 4.9 3.1 5.3zm3.6-5.2c-0.5 0-0.9-0.4-0.9-0.9 0-0.6 0.4-1 0.9-1 0.6 0 0.9 0.4 0.9 1 0 0.5-0.3 0.9-0.9 0.9zm0 5.3c-0.5 0-0.8-0.4-0.8-0.9 0-0.6 0.3-1 0.9-1 0.5 0 0.8 0.4 0.8 1 0 0.5-0.3 0.9-0.8 0.9zm6-0.1l0.4-3h-1.2v-0.9h1.4l0.3-2.2h-1.4v-0.9h1.5l0.4-2.9h0.9l-0.4 2.9h1.6l0.3-2.9h0.9l-0.4 2.9h1.3v0.9h-1.4l-0.3 2.2h1.3v0.9h-1.4l-0.4 3h-0.9l0.4-3h-1.6l-0.4 3zm3-3.9l0.3-2.2h-1.5l-0.3 2.2zm5.9 0.7l-1.1 3.2h-1.4l3.5-10.2h1.6l3.5 10.2h-1.4l-1.1-3.2zm3.3-1.1l-1-2.9c-0.2-0.7-0.4-1.3-0.5-1.9q-0.3 0.9-0.5 1.9l-1 2.9zm9.4-4.6q-0.5 0-1 0c-2.1 0.4-3.2 1.9-3.5 3.5h0.1c0.4-0.6 1.3-1.1 2.4-1.1 1.7 0 2.9 1.2 2.9 3.2 0 1.8-1.2 3.4-3.3 3.4-2 0-3.4-1.6-3.4-4.2 0-1.9 0.7-3.4 1.6-4.4 0.9-0.8 2-1.3 3.2-1.4q0.6-0.1 1-0.1zm-2.3 8c1.1 0 1.9-0.9 1.9-2.3 0-1.5-0.8-2.3-2-2.3-0.8 0-1.6 0.5-2 1.2q-0.1 0.2-0.1 0.6c0 1.6 0.8 2.8 2.2 2.8zm4.8-9.3h5.5v1.1h-4.1v3.4h3.8v1.1h-3.8v4.6h-1.4zm10.1 10.3c-1.9 0-3.2-1.8-3.3-5 0-3.3 1.5-5.1 3.5-5.1 2 0 3.2 1.8 3.2 4.9 0 3.4-1.2 5.2-3.4 5.2zm0.1-1c1.3 0 2-1.6 2-4.1 0-2.4-0.6-4-2-4-1.2 0-2 1.5-2 4 0 2.6 0.7 4.1 2 4.1zm5-9.3h5.5v1.1h-4.2v3.4h3.8v1.1h-3.8v4.6h-1.3zm7.3 0h5.5v1.1h-4.1v3.4h3.8v1.1h-3.8v4.6h-1.4zm-72.1 51.9c-0.5 0.3-1.5 0.5-2.7 0.5-2.9 0-5.1-1.8-5.1-5.2 0-3.1 2.2-5.3 5.4-5.3 1.2 0 2 0.3 2.4 0.4l-0.4 1.1c-0.4-0.2-1.1-0.4-2-0.4-2.4 0-4 1.5-4 4.2 0 2.5 1.5 4.1 3.9 4.1 0.8 0 1.7-0.2 2.2-0.4zm10.2-4.2c0-1.4-0.1-3.1-0.1-4.4-0.4 1.2-0.8 2.5-1.3 3.9l-1.8 4.9h-1l-1.7-4.8q-0.7-2.2-1.2-4c0 1.3-0.1 3-0.2 4.5l-0.3 4.4h-1.2l0.7-10.2h1.7l1.7 4.9q0.6 1.9 1 3.5h0.1q0.4-1.5 1.1-3.5l1.8-4.9h1.7l0.6 10.2h-1.3zm5.8 4.5v-4.4l-3.2-5.8h1.5l1.4 2.8c0.4 0.8 0.7 1.4 1.1 2.1 0.3-0.7 0.6-1.3 1-2.1l1.5-2.8h1.5l-3.4 5.8v4.4zm5.8-10.2h1.3v4.9q0.4-0.6 0.8-1.1l3.2-3.8h1.6l-3.7 4.3 4 5.9h-1.6l-3.3-5-1 1.1v3.9h-1.3zm9 5c-0.5 0-0.8-0.4-0.8-0.9 0-0.6 0.3-1 0.8-1 0.6 0 0.9 0.4 0.9 1 0 0.5-0.3 0.9-0.9 0.9zm0 5.3c-0.5 0-0.8-0.4-0.8-0.9 0-0.6 0.3-1 0.9-1 0.5 0 0.9 0.4 0.9 1 0 0.5-0.4 0.9-0.9 0.9zm24.3-4.7v1h-3.7v-1zm12.4 0v1h-3.7v-1zm4.2 4.7c-1.9 0-3.2-1.8-3.2-5 0-3.3 1.4-5.1 3.4-5.1 2.1 0 3.3 1.8 3.3 4.9 0 3.4-1.3 5.2-3.5 5.2zm0.1-1c1.4 0 2-1.6 2-4.1 0-2.4-0.6-4-2-4-1.2 0-2 1.5-2 4 0 2.6 0.8 4.1 2 4.1zm8.1-3.7v1h-3.8v-1zm-87.2 15.6c0.6-0.2 1.4-0.3 2.5-0.3q2 0.1 2.9 0.9c0.5 0.5 0.9 1.2 0.9 2.1q0 1.4-0.8 2.2c-0.7 0.7-1.9 1.1-3.2 1.1q-0.5 0-1-0.1v4.1h-1.3zm1.3 4.9q0.4 0.1 1.1 0.1c1.6 0 2.5-0.8 2.5-2.2 0-1.3-0.9-1.9-2.4-1.9-0.5 0-1 0-1.2 0.1zm11.4 3.4c0 0.6 0.1 1.2 0.1 1.7h-1.1l-0.2-0.9c-0.4 0.6-1.2 1.1-2.3 1.1-1.4 0-2.2-1-2.2-2.1 0-1.8 1.6-2.7 4.4-2.7v-0.2c0-0.6-0.2-1.7-1.7-1.7-0.6 0-1.4 0.2-1.9 0.6l-0.3-0.9c0.6-0.4 1.5-0.6 2.4-0.6 2.3 0 2.8 1.5 2.8 2.9zm-1.3-1.9c-1.4-0.1-3.1 0.2-3.1 1.6 0 0.9 0.6 1.3 1.3 1.3 0.9 0 1.6-0.6 1.8-1.2q0-0.3 0-0.5zm3.5-1.6c0-0.7 0-1.3-0.1-1.9h1.2l0.1 1.1c0.4-0.6 1.2-1.3 2.4-1.3 1 0 2.6 0.6 2.6 3.1v4.4h-1.3v-4.2c0-1.2-0.5-2.2-1.7-2.2-0.9 0-1.6 0.6-1.8 1.3-0.1 0.2-0.1 0.4-0.1 0.7v4.4h-1.3zm9.9-3.8v1.8h1.9v1h-1.9v3.9c0 0.9 0.3 1.5 1 1.5 0.4 0 0.6-0.1 0.8-0.1v1c-0.2 0.1-0.6 0.2-1.1 0.2-0.7 0-1.2-0.2-1.5-0.6-0.3-0.4-0.5-1.1-0.5-1.9v-4h-1.1v-1h1.1v-1.4zm6.3 9.3c-2 0-3.5-1.5-3.5-3.8 0-2.4 1.6-3.9 3.6-3.9 2.1 0 3.6 1.6 3.6 3.8 0 2.7-1.9 3.9-3.7 3.9zm0.1-1c1.3 0 2.2-1.2 2.2-2.9 0-1.2-0.6-2.8-2.2-2.8-1.5 0-2.2 1.5-2.2 2.9 0 1.6 0.9 2.8 2.2 2.8zm5.2-4.5c0-0.8 0-1.4 0-2h1.2v1.2h0.1c0.3-0.7 1.2-1.4 2.4-1.4 1 0 2.6 0.6 2.6 3.2v4.3h-1.4v-4.2c0-1.2-0.4-2.2-1.7-2.2-0.8 0-1.5 0.6-1.7 1.4-0.1 0.2-0.1 0.4-0.1 0.6v4.4h-1.4zm9.2 1.9c0 1.8 1.2 2.6 2.5 2.6 0.9 0 1.5-0.2 2-0.4l0.3 0.9c-0.5 0.3-1.3 0.5-2.5 0.5-2.2 0-3.6-1.5-3.6-3.7 0-2.2 1.3-3.9 3.4-3.9 2.4 0 3.1 2.1 3.1 3.4q0 0.4-0.1 0.6zm3.9-0.9c0-0.9-0.3-2.2-1.8-2.2-1.4 0-2 1.3-2.1 2.2zm3.5-0.8c-0.5 0-0.8-0.4-0.8-0.9 0-0.6 0.3-1 0.9-1 0.5 0 0.8 0.4 0.8 1 0 0.5-0.3 0.9-0.8 0.9zm0 5.3c-0.6 0-0.9-0.4-0.9-0.9 0-0.6 0.4-1 0.9-1 0.5 0 0.9 0.4 0.9 1 0 0.5-0.4 0.9-0.9 0.9zm5.3-0.1v-0.9l1.1-1c2.5-2.4 3.6-3.6 3.6-5.1 0-1-0.5-1.9-1.9-1.9-0.9 0-1.7 0.4-2.1 0.8l-0.4-0.9c0.6-0.6 1.6-1 2.8-1 2.1 0 2.9 1.4 2.9 2.8 0 1.8-1.3 3.3-3.3 5.3l-0.8 0.7v0.1h4.4v1.1zm8.5-1c0.3 0 0.6 0 1.1 0 0.8-0.1 1.5-0.4 2.1-1 0.6-0.6 1.1-1.4 1.3-2.6h-0.1c-0.5 0.7-1.3 1.1-2.3 1.1-1.8 0-2.9-1.4-2.9-3.1 0-1.8 1.3-3.4 3.3-3.4 2.1 0 3.3 1.6 3.3 4.1 0 2.2-0.7 3.7-1.7 4.6-0.8 0.8-1.8 1.2-2.9 1.3-0.4 0.1-0.9 0.1-1.2 0.1zm2.4-8c-1.1 0-1.9 1-1.9 2.4 0 1.2 0.7 2 1.9 2 0.9 0 1.6-0.4 1.9-1q0.1-0.2 0.2-0.5c0-1.7-0.7-2.9-2.1-2.9zm7.5 0.4l-1.7 0.9-0.3-1 2.2-1.2h1.1v9.9h-1.3z"/>
			<path id="path130" fill-rule="evenodd" class="s6" d="m340.7 753.2c0.6-0.2 1.6-0.3 2.5-0.3 1.4 0 2.3 0.3 2.9 0.9 0.5 0.4 0.8 1.1 0.8 1.9 0 1.3-0.8 2.2-1.9 2.6 0.8 0.3 1.3 1 1.5 2.1 0.4 1.4 0.6 2.4 0.8 2.8h-1.4c-0.1-0.3-0.4-1.2-0.6-2.4-0.3-1.4-0.9-2-2.1-2h-1.2v4.4h-1.3zm1.3 4.6h1.3c1.4 0 2.3-0.7 2.3-1.9 0-1.3-0.9-1.9-2.3-1.9q-1 0-1.3 0.1zm14.6 5c-0.6 0.2-1.8 0.5-3.2 0.5-1.5 0-2.8-0.3-3.8-1.3-0.9-0.8-1.4-2.2-1.4-3.8 0-3 2.1-5.3 5.5-5.3 1.2 0 2.1 0.3 2.6 0.5l-0.4 1.1c-0.5-0.3-1.2-0.5-2.2-0.5-2.5 0-4.1 1.6-4.1 4.1 0 2.6 1.5 4.2 3.9 4.2 0.9 0 1.5-0.2 1.8-0.3v-3.1h-2.1v-1h3.4zm2-9.6c0.5-0.1 1.5-0.2 2.4-0.2 1.3 0 2.1 0.2 2.8 0.7 0.5 0.4 0.8 1 0.8 1.8 0 1-0.6 1.9-1.7 2.2v0.1c1 0.2 2.1 1 2.1 2.5 0 0.9-0.4 1.6-0.9 2.1-0.7 0.6-1.8 0.9-3.5 0.9-0.9 0-1.6 0-2-0.1zm1.3 4.2h1.2c1.4 0 2.2-0.8 2.2-1.7 0-1.2-0.9-1.7-2.3-1.7-0.6 0-0.9 0-1.1 0.1zm0 4.9q0.4 0 1.1 0c1.3 0 2.6-0.5 2.6-2 0-1.3-1.2-1.9-2.6-1.9h-1.1zm7.4-4.2c-0.5 0-0.9-0.4-0.9-0.9 0-0.6 0.4-1 0.9-1 0.6 0 0.9 0.4 0.9 1 0 0.5-0.3 0.9-0.9 0.9zm0 5.3c-0.5 0-0.9-0.4-0.9-0.9 0-0.6 0.4-1 0.9-1 0.6 0 0.9 0.4 0.9 1 0 0.5-0.3 0.9-0.9 0.9zm8.3-8.7h-0.1l-1.7 0.9-0.2-1 2.1-1.2h1.1v9.9h-1.2zm10.4-0.3q-0.4-0.1-1 0c-2.1 0.4-3.2 1.9-3.4 3.5h0.1c0.4-0.6 1.3-1.1 2.3-1.1 1.8 0 3 1.2 3 3.1 0 1.9-1.2 3.5-3.3 3.5-2.1 0-3.4-1.6-3.4-4.2 0-1.9 0.6-3.4 1.6-4.4 0.8-0.8 1.9-1.3 3.2-1.4q0.6-0.1 0.9-0.1zm-2.2 8c1.1 0 1.9-0.9 1.9-2.4 0-1.4-0.8-2.2-2.1-2.2-0.8 0-1.5 0.5-1.9 1.2q-0.1 0.2-0.1 0.6c0 1.6 0.7 2.8 2.1 2.8zm10.1-8q-0.4 0-1 0.1c-2.1 0.3-3.2 1.8-3.4 3.4 0.5-0.6 1.3-1.1 2.4-1.1 1.7 0 3 1.3 3 3.2 0 1.8-1.3 3.4-3.3 3.4-2.1 0-3.5-1.6-3.5-4.2 0-1.9 0.7-3.4 1.7-4.4 0.8-0.8 1.9-1.3 3.1-1.4q0.6-0.1 1-0.1zm-2.3 8c1.1 0 1.9-0.9 1.9-2.3 0-1.4-0.8-2.3-2-2.3-0.8 0-1.6 0.5-1.9 1.2q-0.2 0.2-0.2 0.6c0 1.6 0.8 2.8 2.2 2.8zm7.9-3.7v1h-3.7v-1zm1.1 4.6v-0.8l1.1-1c2.5-2.4 3.6-3.7 3.6-5.2 0-1-0.4-1.9-1.9-1.9-0.9 0-1.6 0.4-2.1 0.8l-0.4-0.9c0.6-0.6 1.6-1 2.8-1 2.1 0 3 1.4 3 2.8 0 1.9-1.4 3.3-3.4 5.3l-0.8 0.7v0.1h4.4v1.1zm11.9 0v-2.7h-4.6v-0.9l4.4-6.3h1.4v6.2h1.4v1h-1.4v2.7zm0-3.7v-3.3q0-0.8 0.1-1.6h-0.1c-0.3 0.6-0.5 1-0.8 1.5l-2.4 3.3v0.1zm6.8 3.8c-1.9 0-3.2-1.8-3.3-5 0-3.3 1.5-5.1 3.5-5.1 2 0 3.2 1.8 3.2 5 0 3.3-1.2 5.1-3.4 5.1zm0.1-1c1.3 0 2-1.6 2-4.1 0-2.4-0.6-4-2-4-1.2 0-2 1.6-2 4 0 2.6 0.7 4.1 2 4.1zm8-3.7v1h-3.7v-1zm1.1 4.6v-0.8l1.1-1c2.5-2.4 3.6-3.7 3.6-5.2 0-1-0.4-1.9-1.9-1.9-0.9 0-1.6 0.4-2.1 0.8l-0.4-0.9c0.7-0.6 1.6-1 2.8-1 2.1 0 3 1.4 3 2.8 0 1.9-1.3 3.3-3.4 5.3l-0.8 0.7v0.1h4.4v1.1zm13.6-8.7h-3.7l-0.4 2.5c0.2 0 0.4-0.1 0.8-0.1 0.8 0 1.5 0.2 2.1 0.6 0.8 0.4 1.4 1.2 1.4 2.5 0 1.9-1.5 3.3-3.6 3.3-1.1 0-2-0.3-2.5-0.6l0.4-1c0.4 0.3 1.2 0.6 2.1 0.6 1.2 0 2.3-0.8 2.3-2.2 0-1.2-0.9-2.1-2.8-2.1-0.6 0-1 0-1.4 0.1l0.6-4.8h4.7zm7.8 0h-3.8l-0.3 2.6c0.2-0.1 0.4-0.1 0.8-0.1 0.7 0 1.5 0.2 2.1 0.5 0.8 0.5 1.4 1.3 1.4 2.6 0 1.9-1.5 3.3-3.7 3.3-1 0-1.9-0.3-2.4-0.6l0.3-1c0.4 0.3 1.2 0.6 2.1 0.6 1.3 0 2.4-0.9 2.4-2.2 0-1.2-0.9-2.2-2.9-2.2-0.5 0-1 0.1-1.3 0.1l0.6-4.7h4.7zm-65.5 28.3c0.4 0.2 1.3 0.6 2.2 0.6 1.7 0 2.2-1.1 2.2-1.9 0-1.4-1.2-2-2.5-2h-0.8v-1h0.8c0.9 0 2.2-0.5 2.2-1.7 0-0.7-0.5-1.4-1.8-1.4-0.7 0-1.5 0.3-1.9 0.6l-0.4-1c0.5-0.3 1.5-0.7 2.6-0.7 1.9 0 2.8 1.1 2.8 2.3 0 1.1-0.6 1.9-1.8 2.4 1.2 0.2 2.2 1.1 2.2 2.5 0 1.6-1.3 3-3.6 3-1.1 0-2.1-0.4-2.6-0.7zm13.1-7.4q-0.4 0-1 0.1c-2.1 0.3-3.2 1.8-3.4 3.5 0.5-0.7 1.3-1.2 2.4-1.2 1.7 0 3 1.3 3 3.2 0 1.8-1.3 3.5-3.3 3.5-2.1 0-3.5-1.7-3.5-4.2 0-2 0.7-3.5 1.7-4.5 0.8-0.8 1.9-1.3 3.1-1.4q0.6-0.1 1-0.1zm-2.3 8.1c1.2 0 1.9-1 1.9-2.4 0-1.4-0.8-2.3-2-2.3-0.8 0-1.6 0.5-1.9 1.2q-0.1 0.3-0.2 0.6c0.1 1.6 0.8 2.9 2.2 2.9zm14.7-8.1q-0.4 0-1 0.1c-2.1 0.3-3.2 1.8-3.4 3.5 0.5-0.7 1.3-1.2 2.4-1.2 1.7 0 3 1.3 3 3.2 0 1.8-1.3 3.5-3.3 3.5-2.1 0-3.5-1.7-3.5-4.2 0-1.9 0.7-3.5 1.7-4.4 0.8-0.8 1.9-1.3 3.1-1.5q0.6-0.1 1-0.1zm-2.3 8.1c1.1 0 1.9-1 1.9-2.4 0-1.4-0.8-2.3-2-2.3-0.8 0-1.6 0.5-1.9 1.3q-0.2 0.2-0.2 0.5c0 1.7 0.8 2.9 2.2 2.9zm24.6 1c-1.9 0-3.2-1.8-3.3-5.1 0-3.3 1.5-5.1 3.5-5.1 2 0 3.2 1.9 3.2 5 0 3.3-1.2 5.2-3.4 5.2zm0.1-1c1.3 0 2-1.6 2-4.1 0-2.5-0.6-4-2-4-1.2 0-2 1.5-2 4 0 2.5 0.8 4.1 2 4.1z"/>
			<path id="path132" fill-rule="evenodd" class="s5" d="m9 731.8v4.3h5v-4.3h1.3v10.2h-1.3v-4.8h-5v4.8h-1.3v-10.2zm13.8 5.4h-3.9v3.7h4.4v1.1h-5.8v-10.2h5.6v1.1h-4.2v3.2h3.9zm7.8 4.8l-1.3-2.2c-0.6-0.9-0.9-1.5-1.2-2.1-0.3 0.6-0.6 1.2-1.1 2.1l-1.3 2.2h-1.5l3.2-5.1-3-5.1h1.5l1.3 2.4c0.4 0.7 0.7 1.2 1 1.7 0.3-0.6 0.6-1 0.9-1.7l1.4-2.4h1.5l-3.1 5 3.2 5.2zm3.6-5.2c-0.5 0-0.9-0.4-0.9-0.9 0-0.6 0.4-1 0.9-1 0.6 0 0.9 0.4 0.9 1 0 0.5-0.3 0.9-0.9 0.9zm0 5.4c-0.5 0-0.9-0.4-0.9-1 0-0.5 0.4-0.9 0.9-0.9 0.6 0 0.9 0.4 0.9 0.9 0 0.6-0.3 1-0.9 1zm6.1-0.2l0.4-3h-1.2v-0.8h1.3l0.3-2.2h-1.3v-0.9h1.5l0.3-2.9h0.9l-0.4 2.9h1.6l0.4-2.9h0.9l-0.4 2.9h1.3v0.9h-1.4l-0.3 2.2h1.3v0.8h-1.4l-0.4 3h-0.9l0.4-3h-1.6l-0.4 3zm3-3.8l0.3-2.2h-1.6l-0.3 2.2zm7 4c-2 0-3.3-1.8-3.3-5.1 0-3.3 1.4-5.1 3.4-5.1 2.1 0 3.3 1.9 3.3 5 0 3.3-1.3 5.2-3.4 5.2zm0-1c1.4 0 2-1.6 2-4.1 0-2.5-0.6-4.1-2-4.1-1.2 0-1.9 1.6-1.9 4.1-0.1 2.5 0.7 4.1 1.9 4.1zm7.7 1c-1.9 0-3.2-1.8-3.2-5.1 0-3.3 1.4-5.1 3.4-5.1 2 0 3.2 1.9 3.2 5 0 3.3-1.2 5.2-3.4 5.2zm0.1-1c1.4 0 2-1.6 2-4.1 0-2.5-0.6-4.1-2-4.1-1.2 0-2 1.6-2 4.1 0 2.5 0.8 4.1 2 4.1zm8.7 0.8v-2.7h-4.6v-0.8l4.4-6.3h1.4v6.1h1.4v1h-1.4v2.7zm0-3.7v-3.3q0-0.8 0.1-1.5h-0.1c-0.3 0.5-0.5 1-0.8 1.4l-2.4 3.4zm9.3-5.2q-0.5 0-1 0.1c-2.1 0.3-3.2 1.8-3.5 3.5h0.1c0.4-0.7 1.3-1.2 2.4-1.2 1.7 0 2.9 1.3 2.9 3.2 0 1.8-1.2 3.5-3.3 3.5-2 0-3.4-1.7-3.4-4.2 0-1.9 0.7-3.5 1.6-4.4 0.9-0.8 1.9-1.3 3.2-1.5q0.6-0.1 1-0.1zm-2.3 8.1c1.1 0 1.9-1 1.9-2.4 0-1.4-0.8-2.3-2.1-2.3-0.8 0-1.5 0.5-1.9 1.3q-0.1 0.2-0.1 0.5c0 1.7 0.8 2.9 2.2 2.9zm10.8-9v0.9l-4.3 8.9h-1.4l4.3-8.7h-4.8v-1.1zm3.5 6.6l-1.1 3.2h-1.4l3.5-10.2h1.6l3.5 10.2h-1.4l-1.1-3.2zm3.3-1l-1-2.9c-0.2-0.7-0.4-1.3-0.5-1.9h-0.1q-0.2 0.9-0.4 1.8l-1 3zm-83.6 15.2c0.6-0.1 1.6-0.2 2.5-0.2 1.4 0 2.3 0.3 2.9 0.8 0.5 0.5 0.8 1.2 0.8 2 0 1.3-0.8 2.2-1.9 2.6 0.8 0.3 1.3 1 1.5 2.1 0.4 1.4 0.6 2.4 0.8 2.8h-1.4c-0.1-0.3-0.4-1.2-0.6-2.5-0.3-1.4-0.9-1.9-2.1-1.9h-1.2v4.4h-1.3zm1.3 4.6h1.3c1.4 0 2.3-0.8 2.3-1.9 0-1.4-0.9-1.9-2.3-1.9q-1 0-1.3 0.1zm14.6 5c-0.6 0.2-1.8 0.5-3.2 0.5-1.5 0-2.8-0.4-3.8-1.3-0.9-0.9-1.4-2.2-1.4-3.8 0-3.1 2.1-5.3 5.5-5.3 1.2 0 2.1 0.3 2.6 0.5l-0.4 1.1c-0.5-0.3-1.2-0.5-2.2-0.5-2.5 0-4.1 1.6-4.1 4.1 0 2.6 1.5 4.1 3.9 4.1 0.9 0 1.5-0.1 1.8-0.2v-3.1h-2.1v-1h3.4zm2-9.6c0.5-0.2 1.5-0.3 2.4-0.3 1.3 0 2.1 0.3 2.8 0.8 0.5 0.4 0.8 1 0.8 1.8 0 1-0.6 1.8-1.7 2.2v0.1c1 0.2 2.1 1 2.1 2.5 0 0.9-0.4 1.5-0.9 2-0.7 0.7-1.8 1-3.5 1-0.9 0-1.6-0.1-2-0.1zm1.3 4.2h1.2c1.4 0 2.2-0.8 2.2-1.8 0-1.2-0.9-1.6-2.3-1.6-0.6 0-0.9 0-1.1 0.1zm0 4.8q0.4 0.1 1.1 0.1c1.3 0 2.6-0.5 2.6-2 0-1.4-1.2-2-2.6-2h-1.1zm7.4-4.1c-0.5 0-0.9-0.4-0.9-1 0-0.5 0.4-0.9 0.9-0.9 0.6 0 0.9 0.4 0.9 0.9 0 0.6-0.3 1-0.9 1zm0 5.3c-0.5 0-0.9-0.4-0.9-0.9 0-0.6 0.4-1 0.9-1 0.6 0 0.9 0.4 0.9 1 0 0.5-0.3 0.9-0.9 0.9zm16.6-4.7v0.9h-3.7v-0.9zm20.2 0v0.9h-3.8v-0.9zm-56.3 25.2c-0.4 0.3-1.4 0.5-2.7 0.5-2.8 0-5-1.8-5-5.1 0-3.2 2.2-5.4 5.3-5.4 1.3 0 2.1 0.3 2.5 0.5l-0.4 1.1c-0.5-0.3-1.2-0.5-2-0.5-2.4 0-4 1.6-4 4.2 0 2.5 1.4 4.1 3.9 4.1 0.8 0 1.6-0.2 2.2-0.4zm10.2-4.2c-0.1-1.4-0.1-3.1-0.1-4.4h-0.1c-0.3 1.2-0.7 2.5-1.3 3.9l-1.8 5h-1l-1.6-4.9q-0.8-2.1-1.2-4c-0.1 1.3-0.1 3-0.2 4.6l-0.3 4.3h-1.2l0.7-10.2h1.6l1.8 5q0.6 1.8 1 3.4 0.5-1.5 1.1-3.4l1.8-5h1.7l0.7 10.2h-1.3zm5.8 4.5v-4.3l-3.2-5.9h1.5l1.4 2.8c0.4 0.8 0.7 1.4 1 2.1h0.1c0.2-0.6 0.6-1.3 1-2.1l1.5-2.8h1.4l-3.4 5.9v4.3zm5.8-10.2h1.4v4.9q0.4-0.6 0.8-1.1l3.1-3.8h1.7l-3.7 4.3 3.9 5.9h-1.5l-3.4-5-0.9 1.1v3.9h-1.4zm9.1 5c-0.5 0-0.9-0.4-0.9-0.9 0-0.6 0.4-1 0.9-1 0.6 0 0.9 0.4 0.9 1 0 0.5-0.3 0.9-0.9 0.9zm0 5.4c-0.5 0-0.9-0.4-0.9-1 0-0.5 0.4-0.9 0.9-0.9 0.6 0 0.9 0.4 0.9 0.9 0 0.6-0.3 1-0.9 1zm-2.9-21.1c-2 0-3.3-1.8-3.3-5 0-3.3 1.4-5.1 3.4-5.1 2.1 0 3.3 1.8 3.3 4.9 0 3.4-1.3 5.2-3.4 5.2zm0.1-1c1.3 0 2-1.6 2-4.1 0-2.4-0.6-4-2-4-1.2 0-2 1.5-2 4-0.1 2.5 0.7 4.1 1.9 4.1zm15.6-9v0.9l-4.3 9h-1.3l4.2-8.7v-0.1h-4.8v-1.1zm4.5 10c-1.9 0-3.2-1.8-3.2-5 0-3.3 1.4-5.1 3.4-5.1 2.1 0 3.3 1.8 3.3 4.9 0 3.4-1.3 5.2-3.5 5.2zm0.1-1c1.4 0 2-1.6 2-4.1 0-2.4-0.6-4-2-4-1.2 0-2 1.5-2 4 0 2.5 0.8 4.1 2 4.1zm12.1-7.7l-1.7 0.9-0.3-1 2.1-1.2h1.2v9.9h-1.3zm4.9 8.5v-0.8l1-1c2.5-2.4 3.7-3.6 3.7-5.1 0-1-0.5-1.9-2-1.9-0.9 0-1.6 0.4-2.1 0.8l-0.4-1c0.7-0.5 1.7-1 2.8-1 2.1 0 3 1.5 3 2.9 0 1.8-1.3 3.3-3.4 5.3l-0.8 0.7h4.4v1.1zm7.8 0v-0.8l1.1-1c2.5-2.4 3.6-3.6 3.6-5.1 0-1-0.5-1.9-1.9-1.9-0.9 0-1.7 0.4-2.1 0.8l-0.4-1c0.6-0.5 1.6-1 2.7-1 2.2 0 3 1.5 3 2.9 0 1.8-1.3 3.3-3.3 5.3l-0.8 0.7h4.4v1.1zm-33.8 12.5l-1.7 0.9-0.3-1 2.2-1.1h1.1v9.8h-1.3zm8 8.8c-1.9 0-3.2-1.8-3.2-5.1 0-3.3 1.4-5.1 3.4-5.1 2 0 3.2 1.8 3.2 5 0 3.3-1.2 5.2-3.4 5.2zm0.1-1.1c1.4 0 2-1.6 2-4.1 0-2.4-0.6-4-2-4-1.2 0-2 1.6-2 4 0 2.6 0.8 4.1 2 4.1zm7.7 1.1c-1.9 0-3.3-1.8-3.3-5.1 0-3.3 1.5-5.1 3.4-5.1 2.1 0 3.3 1.8 3.3 5 0 3.3-1.3 5.2-3.4 5.2zm0.1-1.1c1.3 0 2-1.6 2-4.1 0-2.4-0.6-4-2-4-1.2 0-2 1.6-2 4-0.1 2.6 0.7 4.1 2 4.1zm8-3.7v1h-3.7v-1zm6.7-4.3q-0.4 0-1 0.1c-2.1 0.3-3.2 1.8-3.4 3.4 0.5-0.6 1.3-1.1 2.4-1.1 1.8 0 3 1.3 3 3.2 0 1.8-1.2 3.5-3.3 3.5-2.1 0-3.4-1.7-3.4-4.2 0-2 0.6-3.5 1.6-4.5 0.8-0.8 1.9-1.3 3.2-1.4q0.6-0.1 0.9-0.1zm-2.3 8c1.2 0 2-0.9 2-2.3 0-1.4-0.8-2.3-2.1-2.3-0.8 0-1.5 0.5-1.9 1.2q-0.1 0.2-0.1 0.6c0 1.6 0.7 2.8 2.1 2.8zm7.6 1.1c-1.9 0-3.2-1.8-3.3-5.1 0-3.3 1.5-5.1 3.5-5.1 2 0 3.2 1.8 3.2 5 0 3.3-1.2 5.2-3.4 5.2zm0.1-1.1c1.3 0 2-1.6 2-4.1 0-2.4-0.6-4-2-4-1.2 0-2 1.6-2 4 0 2.6 0.7 4.1 2 4.1zm8-3.7v1h-3.7v-1zm4.3 4.8c-2 0-3.3-1.8-3.3-5.1 0-3.3 1.4-5.1 3.4-5.1 2.1 0 3.3 1.8 3.3 5 0 3.3-1.3 5.2-3.4 5.2zm0.1-1.1c1.3 0 2-1.6 2-4.1 0-2.4-0.7-4-2-4-1.3 0-2 1.6-2 4-0.1 2.6 0.7 4.1 1.9 4.1zm8.1-3.7v1h-3.7v-1zm5.2 4.6v-2.7h-4.6v-0.9l4.4-6.2h1.5v6.1h1.4v1h-1.4v2.7zm0-3.7v-3.3q0-0.8 0-1.6c-0.3 0.6-0.6 1-0.8 1.5l-2.4 3.3v0.1zm6.7 3.9c-1.9 0-3.2-1.8-3.2-5.1 0-3.3 1.4-5.1 3.4-5.1 2.1 0 3.2 1.8 3.2 5 0 3.3-1.2 5.2-3.4 5.2zm0.1-1.1c1.4 0 2-1.6 2-4.1 0-2.4-0.6-4-2-4-1.2 0-2 1.6-2 4 0 2.6 0.8 4.1 2 4.1zm-56.5 21.9v-0.8l1-1c2.5-2.4 3.7-3.7 3.7-5.1 0-1-0.5-2-2-2-0.9 0-1.6 0.5-2 0.9l-0.5-1c0.7-0.5 1.7-1 2.8-1 2.1 0 3 1.5 3 2.9 0 1.8-1.3 3.3-3.4 5.3l-0.8 0.7h4.5v1.1zm8.5-0.9c0.3 0 0.6 0 1.1-0.1 0.7 0 1.5-0.4 2-0.9 0.7-0.6 1.1-1.4 1.3-2.6-0.6 0.7-1.4 1-2.4 1-1.7 0-2.9-1.3-2.9-3 0-1.8 1.4-3.5 3.4-3.5 2 0 3.3 1.7 3.3 4.2 0 2.1-0.8 3.7-1.7 4.6-0.8 0.7-1.8 1.2-2.9 1.3-0.5 0.1-0.9 0.1-1.2 0.1zm2.4-8.1c-1.1 0-1.9 1-1.9 2.4 0 1.3 0.7 2.1 1.9 2.1 0.9 0 1.5-0.4 1.9-1q0.1-0.2 0.1-0.5c0-1.7-0.6-3-2-3zm8.7 9v-2.7h-4.6v-0.8l4.4-6.3h1.5v6.1h1.3v1h-1.3v2.7zm0-3.7v-3.3q0-0.7 0-1.5c-0.3 0.6-0.6 1-0.9 1.4l-2.4 3.4zm-78-6.3c0.7-0.2 1.5-0.2 2.6-0.2q1.9 0 2.8 0.8c0.6 0.5 0.9 1.2 0.9 2.1q0 1.4-0.8 2.2c-0.7 0.7-1.8 1.1-3.1 1.1q-0.6 0-1-0.1v4.1h-1.4zm1.4 4.9q0.4 0.1 1.1 0.1c1.5 0 2.5-0.8 2.5-2.1 0-1.4-0.9-2-2.4-2-0.6 0-1 0-1.2 0.1zm11.4 3.4c0 0.6 0 1.3 0.1 1.8h-1.2l-0.1-1c-0.4 0.6-1.2 1.1-2.3 1.1-1.5 0-2.2-1-2.2-2.1 0-1.8 1.6-2.7 4.4-2.7v-0.2c0-0.6-0.2-1.7-1.7-1.7-0.7 0-1.4 0.2-1.9 0.6l-0.3-0.9c0.6-0.4 1.5-0.6 2.4-0.6 2.3 0 2.8 1.5 2.8 3zm-1.3-2c-1.4-0.1-3.1 0.2-3.1 1.6 0 0.9 0.6 1.3 1.3 1.3 0.9 0 1.5-0.6 1.8-1.2q0-0.2 0-0.4zm3.5-1.7c0-0.7-0.1-1.3-0.1-1.9h1.2v1.2h0.1c0.3-0.7 1.2-1.4 2.4-1.4 1 0 2.6 0.6 2.6 3.1v4.4h-1.3v-4.2c0-1.2-0.5-2.2-1.7-2.2-0.9 0-1.6 0.6-1.8 1.4-0.1 0.1-0.1 0.4-0.1 0.6v4.4h-1.3zm9.9-3.7v1.7h1.9v1h-1.9v4c0 0.9 0.2 1.4 1 1.4 0.4 0 0.6-0.1 0.8-0.1v1c-0.2 0.1-0.6 0.2-1.2 0.2-0.6 0-1.1-0.2-1.4-0.6-0.4-0.4-0.5-1-0.5-1.9v-4h-1.1v-1h1.1v-1.3zm6.3 9.2c-2 0-3.5-1.4-3.5-3.8 0-2.4 1.6-3.9 3.6-3.9 2.1 0 3.5 1.6 3.5 3.8 0 2.7-1.9 3.9-3.6 3.9zm0.1-1c1.2 0 2.2-1.2 2.2-2.9 0-1.2-0.6-2.8-2.2-2.8-1.6 0-2.3 1.5-2.3 2.9 0 1.6 1 2.8 2.2 2.8zm5.3-4.5c0-0.8 0-1.4-0.1-2h1.2l0.1 1.2c0.4-0.7 1.2-1.4 2.5-1.4 1 0 2.5 0.7 2.5 3.2v4.3h-1.3v-4.2c0-1.2-0.4-2.2-1.7-2.2-0.8 0-1.5 0.7-1.8 1.4 0 0.2-0.1 0.4-0.1 0.6v4.4h-1.3zm9.2 2c0 1.7 1.1 2.5 2.5 2.5 0.9 0 1.5-0.2 2-0.4l0.2 1c-0.4 0.2-1.3 0.4-2.4 0.4-2.3 0-3.6-1.5-3.6-3.7 0-2.2 1.3-3.9 3.4-3.9 2.4 0 3 2.1 3 3.4q0 0.4 0 0.7zm3.9-1c0-0.8-0.4-2.2-1.9-2.2-1.3 0-1.9 1.3-2 2.2zm3.5-0.8c-0.5 0-0.9-0.4-0.9-0.9 0-0.6 0.4-1 0.9-1 0.6 0 0.9 0.4 0.9 1 0 0.5-0.3 0.9-0.9 0.9zm0 5.3c-0.5 0-0.8-0.4-0.8-0.9 0-0.6 0.3-0.9 0.8-0.9 0.6 0 0.9 0.3 0.9 0.9 0 0.5-0.3 0.9-0.9 0.9z"/>
			<path id="path134" fill-rule="evenodd" class="s6" d="m331.3 607.5l1.3 2.9q0.3 0.6 0.5 1.2h0.1c0.1-0.3 0.2-0.7 0.4-1.2l1-2.9h1l-1.5 3.5c-0.3 0.9-0.8 2-1.2 2.6q-0.7 0.8-1.6 0.8-0.3 0-0.5 0l0.1-0.7q0.1 0 0.3 0c0.8 0 1.2-0.7 1.4-1.2 0.1-0.1 0-0.2 0-0.4l-2.3-4.6zm8.7 1.9v4.9h-0.9v-4.2h-2.2v4.2h-0.9v-4.9zm1.4 1.6c0-0.6 0-1.1 0-1.6h0.8v0.9h0.1c0.3-0.6 0.9-1 1.7-1 1.2 0 2.1 1 2.1 2.5 0 1.8-1.1 2.6-2.3 2.6-0.6 0-1.2-0.2-1.5-0.7v2.6h-0.9zm0.9 1.3q0 0.2 0.1 0.4c0.1 0.6 0.7 1 1.3 1 0.9 0 1.5-0.7 1.5-1.9 0-0.9-0.5-1.8-1.5-1.8-0.6 0-1.2 0.4-1.3 1.1q-0.1 0.2-0.1 0.4zm6.9 2.1c-1.4 0-2.4-1-2.4-2.5 0-1.7 1.1-2.6 2.4-2.6 1.4 0 2.4 1 2.4 2.5 0 1.8-1.3 2.6-2.4 2.6zm0-0.7c0.9 0 1.5-0.8 1.5-1.9 0-0.8-0.4-1.9-1.5-1.9-1 0-1.5 1-1.5 1.9 0 1.1 0.6 1.9 1.5 1.9zm4.3-4.3v4.2h1.8v-4.2h0.8v4.2h1.7v-4.2h0.9v4.2h0.5v2.2h-0.7l-0.1-1.5h-5.7v-4.9zm7.1 2.6c0.1 1.2 0.8 1.7 1.7 1.7 0.6 0 1-0.1 1.4-0.3l0.1 0.7c-0.3 0.1-0.8 0.3-1.6 0.3-1.5 0-2.4-1-2.4-2.5 0-1.5 0.9-2.6 2.3-2.6 1.6 0 2 1.4 2 2.3q0 0.2 0 0.4zm2.6-0.7c0-0.5-0.3-1.4-1.3-1.4-0.9 0-1.3 0.8-1.3 1.4zm2.8-1.9v1.9h2.3v-1.9h0.9v4.9h-0.9v-2.2h-2.3v2.2h-0.9v-4.9zm5.5 0v1.9h2.3v-1.9h0.9v4.9h-0.9v-2.2h-2.3v2.2h-0.9v-4.9zm8.1 3.7c0 0.4 0 0.8 0.1 1.2h-0.8l-0.1-0.7c-0.3 0.4-0.8 0.8-1.5 0.8-1 0-1.5-0.7-1.5-1.4 0-1.2 1-1.9 2.9-1.8v-0.1c0-0.4-0.1-1.2-1.1-1.2-0.5 0-0.9 0.2-1.3 0.4l-0.2-0.6c0.4-0.3 1-0.4 1.6-0.4 1.5 0 1.9 1 1.9 2zm-0.9-1.4c-0.9 0-2 0.2-2 1.1 0 0.6 0.4 0.9 0.8 0.9 0.6 0 1.1-0.4 1.2-0.8q0-0.2 0-0.3zm6 2.5h-0.9v-2.1h-0.7q-0.5 0-0.8 0.3c-0.4 0.3-0.5 0.9-0.7 1.4q-0.1 0.2-0.2 0.4h-0.9q0.1-0.3 0.3-0.6c0.2-0.4 0.3-1.1 0.7-1.4q0.3-0.2 0.6-0.3c-0.6-0.1-1.3-0.5-1.3-1.3 0-0.5 0.3-0.8 0.7-1 0.4-0.3 1-0.4 1.6-0.4 0.6 0 1.1 0.1 1.6 0.1zm-0.9-4.3c-0.2 0-0.4 0-0.8 0-0.5 0-1.3 0.2-1.3 0.8 0 0.7 0.8 0.9 1.3 0.9 0.4 0 0.6 0 0.8 0zm4.4-0.5c0.4-0.1 1-0.2 1.6-0.2 0.8 0 2.1 0.2 2.1 1.3 0 0.6-0.4 1-1 1.1 0.7 0.1 1.3 0.5 1.3 1.2 0 1.3-1.6 1.4-2.6 1.4-0.6 0-1.1 0-1.4 0zm0.9 2h0.6c0.7 0 1.4-0.2 1.4-0.8q0-0.7-1.3-0.7c-0.3 0-0.5 0-0.7 0zm0 2.3c0.2 0 0.4 0 0.7 0 0.6 0 1.5-0.1 1.5-0.8 0-0.7-0.8-0.9-1.6-0.9h-0.6zm4.7-1.7c0 1.2 0.8 1.7 1.7 1.7 0.6 0 1-0.1 1.3-0.3l0.2 0.7c-0.3 0.1-0.9 0.3-1.7 0.3-1.5 0-2.4-1-2.4-2.5 0-1.4 0.9-2.6 2.3-2.6 1.6 0 2 1.4 2 2.3q0 0.3 0 0.4zm2.6-0.6c0-0.6-0.2-1.5-1.2-1.5-0.9 0-1.3 0.9-1.4 1.5zm2-0.4c0-0.6 0-1.1-0.1-1.6h0.8l0.1 0.8c0.4-0.6 0.9-0.9 1.7-0.9 1.2 0 2.1 1 2.1 2.5 0 1.7-1.1 2.6-2.2 2.6-0.7 0-1.2-0.3-1.5-0.8v2.7h-0.9zm0.9 1.3q0 0.2 0 0.3c0.2 0.7 0.7 1.1 1.3 1.1 1 0 1.5-0.8 1.5-1.9 0-1-0.5-1.8-1.4-1.8-0.6 0-1.2 0.4-1.4 1.1q0 0.2 0 0.3zm8.3 1.8c-0.2 0.2-0.8 0.3-1.4 0.3-1.5 0-2.4-1-2.4-2.5 0-1.5 1-2.6 2.6-2.6 0.5 0 1 0.2 1.2 0.3l-0.2 0.7c-0.2-0.1-0.5-0.3-1-0.3-1.1 0-1.7 0.9-1.7 1.9 0 1.1 0.7 1.8 1.7 1.8 0.5 0 0.8-0.1 1-0.2zm1.9-4.7v2c0 0.8 0 1.3-0.1 2h0.1c0.3-0.6 0.4-0.9 0.8-1.5l1.5-2.5h1v4.9h-0.8v-2.1c0-0.8 0-1.2 0-2-0.3 0.6-0.5 1-0.8 1.5-0.5 0.8-1 1.7-1.5 2.6h-1v-4.9zm8.3 4.9h-0.9v-2.1h-0.6q-0.6 0-0.8 0.3c-0.4 0.3-0.5 0.9-0.7 1.4q-0.1 0.2-0.2 0.4h-1q0.2-0.3 0.3-0.6c0.2-0.5 0.4-1.1 0.8-1.5q0.2-0.2 0.6-0.3c-0.7 0-1.3-0.4-1.3-1.2 0-0.5 0.2-0.8 0.6-1.1 0.4-0.2 1-0.3 1.7-0.3 0.5 0 1.1 0.1 1.5 0.1zm-0.9-4.3c-0.2 0-0.4 0-0.7 0-0.6 0-1.3 0.1-1.3 0.8 0 0.6 0.8 0.9 1.3 0.9 0.4 0 0.5 0 0.7 0zm8.2-0.6v4.9h-0.9v-4.2h-1.7v1.2c0 1.4-0.1 2.3-0.8 2.7-0.2 0.2-0.5 0.3-0.9 0.3l-0.1-0.7c0.2 0 0.3-0.1 0.5-0.2 0.4-0.3 0.5-1 0.5-2.1v-1.9zm3.4 5c-1.3 0-2.3-1-2.3-2.5 0-1.7 1-2.6 2.4-2.6 1.4 0 2.3 1 2.3 2.5 0 1.8-1.2 2.6-2.4 2.6zm0.1-0.7c0.8 0 1.4-0.8 1.4-1.9 0-0.8-0.4-1.9-1.4-1.9-1.1 0-1.5 1-1.5 1.9 0 1.1 0.6 1.9 1.4 1.9zm6.5-4.3v0.7h-2.1v4.2h-0.9v-4.9zm2.7 5c-1.3 0-2.3-1-2.3-2.5 0-1.7 1.1-2.6 2.4-2.6 1.4 0 2.3 1 2.3 2.5 0 1.8-1.2 2.6-2.4 2.6zm0.1-0.7c0.8 0 1.4-0.8 1.4-1.9 0-0.8-0.4-1.9-1.4-1.9-1.1 0-1.5 1-1.5 1.9 0 1.1 0.6 1.9 1.5 1.9zm6.7-4.3v0.7h-1.5v4.2h-0.9v-4.2h-1.5v-0.7zm1.5 0v2c0 0.8 0 1.3 0 2 0.3-0.6 0.5-0.9 0.8-1.5l1.5-2.5h1.1v4.9h-0.9v-2.1c0-0.8 0-1.2 0.1-2-0.4 0.6-0.6 1-0.9 1.5-0.4 0.8-1 1.7-1.5 2.6h-1v-4.9zm8.8 0v4.9h-0.9v-4.2h-2.3v4.2h-0.9v-4.9zm4.9 3.7c0 0.4 0 0.8 0.1 1.2h-0.8l-0.1-0.7c-0.3 0.4-0.8 0.8-1.5 0.8-1 0-1.5-0.7-1.5-1.4 0-1.2 1-1.9 2.9-1.8v-0.1c0-0.5-0.1-1.2-1.1-1.2-0.4 0-0.9 0.2-1.3 0.4l-0.2-0.6c0.4-0.3 1-0.4 1.7-0.4 1.5 0 1.8 1 1.8 2zm-0.8-1.4c-1 0-2.1 0.2-2.1 1.1 0 0.6 0.4 0.9 0.8 0.9 0.7 0 1.1-0.4 1.2-0.8q0.1-0.2 0.1-0.3zm2.6 2.6c-0.3 0-0.6-0.3-0.6-0.6 0-0.4 0.3-0.7 0.6-0.7 0.4 0 0.6 0.3 0.6 0.7 0 0.3-0.2 0.6-0.6 0.6zm-129.8 4.5v2.9c0 1 0 1.9-0.1 2.8h0.1c0.3-0.7 0.7-1.4 1.2-2.2l2.2-3.5h0.9v6.8h-0.8v-2.9c0-1.1 0-1.9 0.1-2.8h-0.1c-0.3 0.8-0.8 1.5-1.2 2.3l-2.2 3.4h-0.9v-6.8zm9.3 6.6c-0.3 0.1-0.8 0.3-1.4 0.3-1.5 0-2.5-1-2.5-2.5 0-1.5 1.1-2.6 2.6-2.6 0.6 0 1 0.1 1.3 0.3l-0.2 0.6c-0.2-0.1-0.6-0.2-1.1-0.2-1.1 0-1.7 0.8-1.7 1.8 0 1.2 0.7 1.9 1.7 1.9 0.5 0 0.9-0.1 1.1-0.3zm5.1-4.7v4.9h-0.9v-4.2h-2.3v4.2h-0.9v-4.9zm3.4 5c-1.3 0-2.3-0.9-2.3-2.5 0-1.6 1.1-2.6 2.4-2.6 1.4 0 2.4 1 2.4 2.5 0 1.8-1.3 2.6-2.4 2.6zm0-0.6c0.8 0 1.5-0.8 1.5-1.9 0-0.9-0.4-1.9-1.5-1.9-1 0-1.5 1-1.5 1.9 0 1.1 0.6 1.9 1.5 1.9zm7.2-4.4v4.9h-0.9v-4.2h-1.7v1.3c0 1.4-0.1 2.3-0.7 2.7-0.3 0.2-0.5 0.3-1 0.3l-0.1-0.7c0.2 0 0.4-0.1 0.5-0.2 0.5-0.3 0.5-1 0.5-2.1v-2zm2.3 0v1.7c0.2 0 0.6-0.1 0.8-0.1 1.1 0 2.3 0.4 2.3 1.7 0 0.5-0.2 0.8-0.5 1.1-0.6 0.5-1.4 0.6-2.2 0.6-0.4 0-0.9-0.1-1.3-0.1v-4.9zm0 4.3q0.3 0 0.7 0c0.6 0 1.5-0.2 1.5-1 0-0.8-0.9-1-1.5-1q-0.4 0-0.7 0zm4.6-2.2h0.4c0.8 0 1.3-0.3 1.3-0.8 0-0.4-0.4-0.7-1-0.7-0.4 0-0.8 0.1-1.2 0.4l-0.2-0.6c0.5-0.3 1.1-0.4 1.6-0.4 0.8 0 1.7 0.3 1.7 1.3 0 0.6-0.6 1-1.1 1.1 0.7 0.1 1.3 0.5 1.3 1.2 0 1.1-1.1 1.5-2.1 1.5-0.6 0-1.1-0.2-1.6-0.4l0.3-0.6c0.3 0.2 0.8 0.3 1.3 0.3 0.7 0 1.2-0.4 1.2-0.8 0-0.7-0.7-0.9-1.5-0.9h-0.4zm4.2-2l1 2.9c0.1 0.3 0.3 0.7 0.3 1h0.1c0-0.3 0.1-0.7 0.3-1.1l0.9-2.8h1l-1.4 3.5c-0.6 1.6-1 2.5-1.6 3-0.5 0.4-0.9 0.5-1.1 0.6l-0.2-0.8c0.2 0 0.5-0.2 0.7-0.4 0.3-0.2 0.6-0.5 0.8-1q0-0.1 0.1-0.2 0-0.1-0.1-0.2l-1.8-4.5zm4.8 2.6c0 1.2 0.8 1.7 1.7 1.7 0.6 0 1-0.1 1.3-0.3l0.2 0.6c-0.3 0.2-0.9 0.4-1.6 0.4-1.5 0-2.4-1-2.4-2.5 0-1.5 0.8-2.6 2.3-2.6 1.6 0 2 1.4 2 2.3q0 0.2-0.1 0.4zm2.6-0.7c0-0.5-0.2-1.4-1.2-1.4-0.9 0-1.3 0.8-1.3 1.4zm5.2-1.9v0.7h-1.6v4.2h-0.8v-4.2h-1.6v-0.7zm4.2 4.7c-0.3 0.1-0.8 0.3-1.4 0.3-1.5 0-2.5-1-2.5-2.5 0-1.5 1.1-2.6 2.7-2.6 0.5 0 0.9 0.1 1.2 0.2l-0.2 0.7c-0.2-0.1-0.6-0.2-1-0.2-1.2 0-1.8 0.8-1.8 1.8 0 1.1 0.8 1.8 1.7 1.8 0.5 0 0.9-0.1 1.1-0.2zm4.7 0.2h-0.9v-2.1h-0.6q-0.6 0.1-0.8 0.3c-0.4 0.3-0.5 0.9-0.7 1.4q-0.1 0.2-0.2 0.4h-1q0.2-0.2 0.3-0.6c0.2-0.4 0.3-1.1 0.8-1.4q0.2-0.2 0.5-0.3c-0.6-0.1-1.3-0.5-1.3-1.3 0-0.5 0.3-0.8 0.7-1 0.4-0.2 1-0.3 1.6-0.3 0.6 0 1.2 0 1.6 0.1zm-0.9-4.3c-0.2-0.1-0.4-0.1-0.7-0.1-0.6 0-1.3 0.2-1.3 0.9 0 0.6 0.7 0.8 1.3 0.8 0.3 0 0.5 0 0.7 0zm8.5-0.6v4.9h-0.9v-4.2h-2.3v4.2h-0.9v-4.9zm1.5 1.6c0-0.6 0-1.1 0-1.6h0.7l0.1 0.9c0.4-0.7 1-1 1.7-1 1.2 0 2.1 1 2.1 2.5 0 1.7-1.1 2.6-2.2 2.6-0.7 0-1.2-0.3-1.5-0.8v2.7h-0.9zm0.9 1.3q0 0.2 0 0.4c0.2 0.6 0.7 1 1.3 1 1 0 1.5-0.8 1.5-1.9 0-1-0.5-1.8-1.4-1.8-0.6 0-1.2 0.4-1.4 1.1q0 0.2 0 0.4zm5.6-2.9v2c0 0.8 0 1.3 0 2 0.3-0.6 0.5-1 0.8-1.5l1.5-2.5h1.1v4.8h-0.9v-2c0-0.8 0-1.3 0.1-2-0.4 0.6-0.6 1-0.8 1.5-0.5 0.7-1.1 1.7-1.6 2.5h-1v-4.8zm-74 11.4c0.4 0 1-0.1 1.6-0.1 0.8 0 2.2 0.1 2.2 1.2 0 0.6-0.5 1-1 1.1v0.1c0.7 0.1 1.2 0.5 1.2 1.2 0 1.2-1.6 1.4-2.6 1.4-0.5 0-1.1 0-1.4-0.1zm0.9 2.1h0.7c0.6 0 1.3-0.3 1.3-0.8q0-0.8-1.3-0.8c-0.3 0-0.5 0.1-0.7 0.1zm0 2.2c0.2 0.1 0.4 0.1 0.7 0.1 0.6 0 1.5-0.2 1.5-0.9 0-0.7-0.7-0.8-1.6-0.8h-0.6zm5.1-4.3v1.6c0.2 0 0.4-0.1 0.8-0.1 1 0 2.1 0.5 2.1 1.7 0 0.5-0.2 0.9-0.5 1.1-0.6 0.5-1.4 0.6-2 0.6-0.5 0-0.9-0.1-1.3-0.1v-4.8zm0 4.2q0.2 0.1 0.6 0.1c0.7 0 1.4-0.3 1.4-1.1 0-0.8-0.7-1-1.4-1q-0.3 0-0.6 0zm4.4-4.2v4.9h-0.9v-4.9zm4.9 4.7c-0.2 0.1-0.7 0.3-1.4 0.3-1.4 0-2.4-1-2.4-2.5 0-1.5 1-2.6 2.6-2.6 0.5 0 1 0.1 1.3 0.2l-0.3 0.7c-0.2-0.1-0.5-0.2-1-0.2-1.1 0-1.7 0.8-1.7 1.8 0 1.2 0.7 1.9 1.7 1.9 0.5 0 0.8-0.2 1.1-0.3zm2.9 0.3c-1.3 0-2.3-1-2.3-2.5 0-1.6 1.1-2.6 2.4-2.6 1.4 0 2.4 1 2.4 2.5 0 1.8-1.3 2.6-2.4 2.6zm0-0.6c0.8 0 1.5-0.8 1.5-2 0-0.8-0.4-1.8-1.5-1.8-1 0-1.5 0.9-1.5 1.9 0 1 0.6 1.9 1.5 1.9zm6.7-4.4v0.7h-1.5v4.2h-0.9v-4.2h-1.5v-0.7zm1.1 2.6c0 1.2 0.8 1.7 1.7 1.7 0.6 0 1-0.1 1.3-0.2l0.2 0.6c-0.3 0.1-0.9 0.3-1.6 0.3-1.5 0-2.4-1-2.4-2.5 0-1.4 0.8-2.6 2.3-2.6 1.6 0 2 1.4 2 2.3q0 0.3-0.1 0.4zm2.6-0.6c0-0.6-0.2-1.5-1.2-1.5-0.9 0-1.3 0.9-1.3 1.5zm6 3c-1.3 0-2.3-1-2.3-2.5 0-1.6 1.1-2.6 2.4-2.6 1.4 0 2.4 1 2.4 2.5 0 1.8-1.3 2.6-2.5 2.6zm0.1-0.6c0.8 0 1.5-0.8 1.5-2 0-0.8-0.4-1.8-1.5-1.8-1 0-1.5 0.9-1.5 1.9 0 1 0.6 1.9 1.5 1.9zm6.7-4.4v0.7h-1.5v4.2h-0.9v-4.2h-1.5v-0.7zm4.3 0v0.7h-1.5v4.2h-0.9v-4.2h-1.5v-0.7zm1.6 0v2.1c0 0.8 0 1.2-0.1 1.9 0.4-0.5 0.5-0.9 0.8-1.5l1.6-2.5h1v4.9h-0.8v-2.1c0-0.8 0-1.2 0-2-0.3 0.7-0.5 1-0.8 1.6-0.5 0.7-1 1.6-1.5 2.5h-1.1v-4.9zm8.3 4.7c-0.2 0.1-0.8 0.3-1.4 0.3-1.5 0-2.4-1-2.4-2.5 0-1.5 1-2.6 2.6-2.6 0.5 0 1 0.1 1.2 0.3l-0.2 0.7c-0.2-0.2-0.5-0.3-1-0.3-1.1 0-1.8 0.9-1.8 1.9 0 1.1 0.8 1.8 1.7 1.8 0.5 0 0.9-0.1 1.1-0.2zm2-4.7v2.1h0.2l1.8-2.1h1.1l-2.2 2.2c0.8 0 1.3 0.6 1.7 1.4 0.1 0.4 0.3 0.8 0.5 1.2h-0.9c-0.1-0.2-0.3-0.6-0.5-1-0.3-0.7-0.8-1.1-1.6-1.1h-0.1v2.1h-0.9v-4.8zm7.5 3.7c0 0.4 0 0.8 0 1.1h-0.8l-0.1-0.6c-0.2 0.4-0.8 0.8-1.5 0.8-1 0-1.5-0.7-1.5-1.5 0-1.1 1.1-1.8 3-1.8v-0.1c0-0.4-0.1-1.1-1.1-1.1-0.5 0-1 0.1-1.3 0.4l-0.2-0.6c0.4-0.3 1-0.5 1.6-0.5 1.5 0 1.9 1.1 1.9 2zm-0.9-1.3c-1 0-2.1 0.2-2.1 1.1 0 0.6 0.4 0.9 0.8 0.9 0.7 0 1.1-0.4 1.2-0.8q0.1-0.2 0.1-0.3zm4.3-0.5l4.7-2.4v0.7l-3.9 2 3.9 2v0.7l-4.7-2.4zm9.8-2.9h-2.5l-0.3 1.7c0.2 0 0.3-0.1 0.5-0.1 0.6 0 1 0.1 1.4 0.4 0.6 0.3 1 0.8 1 1.7 0 1.3-1 2.2-2.5 2.2-0.7 0-1.3-0.2-1.6-0.4l0.2-0.7c0.3 0.2 0.8 0.4 1.4 0.4 0.9 0 1.6-0.5 1.6-1.4 0-0.9-0.6-1.5-1.9-1.5q-0.6 0-0.9 0.1l0.4-3.2h3.2zm3.3 6c-1.3 0-2.2-1.2-2.2-3.4 0-2.2 1-3.4 2.3-3.4 1.4 0 2.2 1.2 2.2 3.3 0 2.2-0.9 3.5-2.3 3.5zm0.1-0.7c0.9 0 1.3-1.1 1.3-2.8 0-1.6-0.4-2.6-1.3-2.6-0.8 0-1.4 1-1.4 2.6 0 1.8 0.5 2.8 1.4 2.8zm5.5-4.3h1.1l0.8 2.4c0.2 0.4 0.4 1 0.5 1.4 0.1-0.4 0.4-1.2 0.6-1.7l0.8-2.1h1.1l0.3 4.9h-0.8l-0.2-2.4c0-0.5 0-1.1 0-1.7h-0.1c-0.1 0.4-0.2 0.8-0.5 1.6l-0.9 2.4h-0.7l-0.9-2.4c-0.1-0.4-0.3-1.2-0.4-1.6h-0.1c0 0.6 0 1.2-0.1 1.7l-0.1 2.4h-0.8zm6.4 0h1.1l0.9 2.4c0.1 0.4 0.3 1 0.5 1.4 0.1-0.4 0.4-1.2 0.6-1.7l0.7-2.1h1.1l0.4 4.8h-0.9l-0.1-2.3c0-0.5 0-1.1-0.1-1.7-0.1 0.4-0.3 0.8-0.5 1.5l-1 2.5h-0.6l-0.9-2.4c-0.1-0.5-0.4-1.2-0.5-1.6 0 0.5-0.1 1.2-0.1 1.7l-0.1 2.3h-0.8zm5.8 6.2c0.2-0.6 0.5-1.7 0.6-2.5l1-0.1c-0.3 0.9-0.7 2-1 2.5zm1-4.7c-0.3 0-0.6-0.3-0.6-0.6 0-0.4 0.3-0.7 0.6-0.7 0.4 0 0.6 0.3 0.6 0.7 0 0.3-0.2 0.6-0.6 0.6zm-96.7 10v4.2h0.5l-0.1 2.2h-0.7v-1.5h-3.4v1.5h-0.7l-0.1-2.2h0.4q0.4-0.5 0.5-1 0.3-0.9 0.3-2v-1.2zm-2.5 1.5q0 0.9-0.2 1.8-0.2 0.5-0.4 0.9h2.2v-3.5h-1.6zm7.8-1.5v4.9h-0.9v-4.2h-1.6v1.2c0 1.4-0.2 2.3-0.8 2.7-0.2 0.2-0.5 0.3-1 0.3l-0.1-0.7c0.2 0 0.4-0.1 0.5-0.2 0.5-0.3 0.5-1 0.5-2.1v-1.9zm5.1 4.9h-0.9v-2.1h-0.7q-0.5 0-0.8 0.3c-0.3 0.3-0.5 0.9-0.7 1.4q-0.1 0.2-0.2 0.4h-0.9q0.2-0.3 0.3-0.6c0.2-0.5 0.3-1.1 0.8-1.5q0.2-0.2 0.5-0.2v-0.1c-0.6 0-1.3-0.4-1.3-1.2 0-0.5 0.3-0.8 0.7-1 0.4-0.3 1-0.4 1.6-0.4 0.6 0 1.2 0.1 1.6 0.1zm-0.9-4.3c-0.2 0-0.4 0-0.7 0-0.6 0-1.4 0.2-1.4 0.8 0 0.7 0.8 0.9 1.3 0.9 0.4 0 0.6 0 0.8 0zm5.3-0.6v2h2.3v-2h0.9v4.9h-0.9v-2.2h-2.3v2.2h-0.9v-4.9zm8.1 3.7c0 0.4 0 0.8 0.1 1.2h-0.8l-0.1-0.6c-0.3 0.3-0.8 0.7-1.5 0.7-1 0-1.5-0.7-1.5-1.4 0-1.2 1-1.8 2.9-1.8v-0.1c0-0.4-0.1-1.2-1.1-1.2-0.4 0-0.9 0.2-1.3 0.4l-0.2-0.6c0.4-0.3 1-0.4 1.6-0.4 1.6 0 1.9 1 1.9 2zm-0.9-1.3c-0.9-0.1-2 0.1-2 1.1 0 0.5 0.4 0.8 0.8 0.8 0.7 0 1.1-0.4 1.2-0.8q0.1-0.2 0-0.3zm3.2-2.4v2h2.3v-2h0.9v4.9h-0.9v-2.2h-2.3v2.2h-0.9v-4.9zm5.2 2.6c0 1.2 0.7 1.7 1.6 1.7 0.7 0 1.1-0.1 1.4-0.3l0.1 0.7c-0.3 0.1-0.8 0.3-1.6 0.3-1.5 0-2.4-1-2.4-2.5 0-1.4 0.9-2.6 2.3-2.6 1.6 0 2 1.4 2 2.3q0 0.3 0 0.4zm2.6-0.6c0-0.6-0.3-1.5-1.2-1.5-1 0-1.3 0.9-1.4 1.5zm5.4 2.7c-0.2 0.1-0.7 0.3-1.4 0.3-1.4 0-2.4-1-2.4-2.5 0-1.5 1-2.6 2.6-2.6 0.5 0 1 0.1 1.2 0.3l-0.2 0.6c-0.2-0.1-0.5-0.2-1-0.2-1.1 0-1.7 0.8-1.7 1.9 0 1.1 0.7 1.8 1.7 1.8 0.5 0 0.8-0.1 1.1-0.3zm1.5-2.1c0 1.2 0.7 1.7 1.6 1.7 0.7 0 1-0.1 1.4-0.2l0.1 0.6c-0.3 0.2-0.8 0.3-1.6 0.3-1.5 0-2.4-1-2.4-2.4 0-1.5 0.9-2.7 2.3-2.7 1.6 0 2 1.4 2 2.3q0 0.3 0 0.4zm2.6-0.6c0-0.6-0.3-1.4-1.3-1.4-0.9 0-1.2 0.8-1.3 1.4zm2.8-2v2h2.3v-2h0.9v4.9h-0.9v-2.2h-2.3v2.2h-0.9v-4.9zm5.5 0v2.1c0 0.8 0 1.3-0.1 2 0.3-0.6 0.5-1 0.8-1.5l1.6-2.6h1v4.9h-0.8v-2.1c0-0.7 0-1.2 0-1.9-0.3 0.6-0.5 1-0.8 1.5-0.5 0.7-1 1.7-1.5 2.5h-1.1v-4.9zm8.4 4.9h-0.9v-2h-0.6q-0.6 0-0.8 0.3c-0.4 0.2-0.5 0.8-0.7 1.3q-0.1 0.2-0.2 0.4h-1q0.2-0.2 0.3-0.5c0.2-0.5 0.3-1.1 0.8-1.5q0.2-0.2 0.5-0.3c-0.6-0.1-1.3-0.5-1.3-1.2 0-0.5 0.3-0.9 0.7-1.1 0.4-0.2 1-0.3 1.6-0.3 0.6 0 1.2 0 1.6 0.1zm-0.9-4.3c-0.2 0-0.4-0.1-0.7-0.1-0.6 0-1.3 0.2-1.3 0.9 0 0.6 0.7 0.8 1.3 0.8 0.3 0 0.5 0 0.7 0zm5.3-0.6v2h2.3v-2h0.9v4.9h-0.9v-2.2h-2.3v2.2h-0.9v-4.9zm8.1 3.8c0 0.4 0.1 0.8 0.1 1.1h-0.8l-0.1-0.6c-0.3 0.4-0.8 0.7-1.5 0.7-1 0-1.5-0.7-1.5-1.4 0-1.1 1.1-1.8 3-1.8v-0.1c0-0.4-0.2-1.1-1.2-1.1-0.4 0-0.9 0.1-1.2 0.4l-0.2-0.6c0.4-0.3 1-0.5 1.6-0.5 1.5 0 1.8 1.1 1.8 2zm-0.8-1.3c-1 0-2.1 0.2-2.1 1.1 0 0.6 0.4 0.9 0.8 0.9 0.7 0 1.1-0.4 1.2-0.9q0.1-0.1 0.1-0.2zm7.9 2.3c-0.3 0.1-0.8 0.3-1.4 0.3-1.5 0-2.5-1-2.5-2.5 0-1.5 1.1-2.6 2.7-2.6 0.5 0 1 0.1 1.2 0.2l-0.2 0.7c-0.2-0.1-0.5-0.2-1-0.2-1.2 0-1.8 0.8-1.8 1.8 0 1.1 0.8 1.8 1.7 1.8 0.5 0 0.9-0.1 1.1-0.2z"/>
			<path id="path136" fill-rule="evenodd" class="s6" d="m414.9 643.7l1.1 2.8c0.1 0.4 0.2 0.8 0.3 1 0.1-0.2 0.2-0.6 0.3-1l1-2.8h1l-1.4 3.4c-0.6 1.7-1 2.6-1.7 3.1-0.4 0.4-0.8 0.5-1 0.6l-0.3-0.8c0.3 0 0.5-0.2 0.8-0.4 0.3-0.2 0.5-0.5 0.8-1q0-0.1 0-0.2 0-0.1 0-0.2l-1.8-4.5zm4.4 0c0.3 0 0.9-0.1 1.5-0.1 0.8 0 2.2 0.1 2.2 1.2 0 0.6-0.5 1-1 1.1v0.1c0.7 0.1 1.2 0.5 1.2 1.2 0 1.2-1.6 1.4-2.6 1.4-0.5 0-1.1 0-1.3-0.1zm0.8 2.1h0.7c0.6 0 1.3-0.3 1.3-0.8q0-0.8-1.3-0.8c-0.3 0-0.5 0.1-0.7 0.1zm0 2.2c0.3 0.1 0.4 0.1 0.7 0.1 0.6 0 1.5-0.2 1.5-0.9 0-0.7-0.7-0.8-1.5-0.8h-0.7zm4.7-1.7c0.1 1.2 0.8 1.6 1.7 1.6 0.6 0 1-0.1 1.4-0.2l0.1 0.6c-0.3 0.2-0.8 0.3-1.6 0.3-1.5 0-2.4-1-2.4-2.4 0-1.5 0.9-2.7 2.3-2.7 1.6 0 2 1.4 2 2.3q0 0.3 0 0.5zm2.5-0.7c0.1-0.5-0.2-1.4-1.2-1.4-0.9 0-1.3 0.8-1.3 1.4zm2.8-1.9v1.9h2.3v-1.9h0.9v4.8h-0.9v-2.2h-2.3v2.2h-0.9v-4.8zm5.5 0v2c0 0.8-0.1 1.3-0.1 2 0.3-0.6 0.5-1 0.8-1.5l1.5-2.5h1.1v4.8h-0.9v-2c0-0.8 0.1-1.2 0.1-2-0.3 0.6-0.5 1-0.8 1.5-0.5 0.7-1 1.7-1.6 2.5h-1v-4.8zm4.8 1.6c0-0.7 0-1.2-0.1-1.6h0.8l0.1 0.8c0.4-0.6 0.9-1 1.7-1 1.2 0 2.1 1 2.1 2.5 0 1.8-1.1 2.7-2.2 2.7-0.7 0-1.2-0.3-1.5-0.8v2.6h-0.9zm0.9 1.3q0 0.2 0 0.4c0.2 0.6 0.7 1 1.3 1 1 0 1.5-0.7 1.5-1.8 0-1-0.5-1.9-1.4-1.9-0.6 0-1.2 0.5-1.4 1.1q0 0.2 0 0.4zm5.7-2.9v2h2.3v-2h0.9v4.9h-0.9v-2.2h-2.3v2.2h-0.9v-4.9zm4.9 0l1.1 2.9c0.1 0.3 0.2 0.7 0.3 1 0.1-0.3 0.2-0.7 0.3-1l1-2.9h0.9l-1.3 3.5c-0.6 1.6-1.1 2.5-1.7 3-0.4 0.4-0.8 0.6-1.1 0.6l-0.2-0.7c0.2-0.1 0.5-0.3 0.8-0.5 0.2-0.2 0.5-0.5 0.7-1q0.1-0.1 0.1-0.2 0 0-0.1-0.2l-1.7-4.5zm5.2 0v2.1h0.9c0.1-1.3 1-2.2 2.1-2.2 1.3 0 2.2 1 2.2 2.5 0 1.6-1 2.6-2.2 2.6-1.2 0-2.1-0.9-2.2-2.3h-0.8v2.2h-0.8v-4.9zm2.9 4.3c0.9 0 1.3-1 1.3-1.9 0-0.9-0.4-1.8-1.3-1.8-0.8 0-1.3 0.9-1.3 1.9 0 0.9 0.5 1.8 1.3 1.8zm-128.5 7.1v2.1c0 0.7 0 1.2 0 1.9 0.3-0.6 0.5-0.9 0.8-1.5l1.5-2.5h1.1v4.9h-0.9v-2.1c0-0.8 0-1.2 0.1-2h-0.1c-0.3 0.6-0.5 1-0.8 1.5-0.4 0.8-1 1.7-1.5 2.6h-1v-4.9zm7.8 0v2.1h0.2l1.8-2.1h1.1l-2.1 2.2c0.8 0.1 1.2 0.6 1.6 1.5 0.1 0.3 0.3 0.8 0.5 1.2h-0.9c-0.1-0.2-0.3-0.6-0.5-1-0.3-0.8-0.7-1.2-1.6-1.2h-0.1v2.2h-0.9v-4.9zm7.5 3.7c0 0.4 0 0.9 0 1.2h-0.8v-0.6h-0.1c-0.2 0.4-0.8 0.7-1.5 0.7-0.9 0-1.5-0.7-1.5-1.4 0-1.2 1.1-1.8 3-1.8v-0.1c0-0.4-0.1-1.2-1.1-1.2-0.5 0-1 0.2-1.3 0.4l-0.2-0.6c0.4-0.2 1-0.4 1.6-0.4 1.5 0 1.9 1 1.9 2zm-0.9-1.3c-1-0.1-2.1 0.1-2.1 1.1 0 0.6 0.4 0.8 0.9 0.8 0.6 0 1-0.4 1.2-0.8q0-0.1 0-0.3zm3.1-2.4v2h2.4v-2h0.8v4.9h-0.8v-2.2h-2.4v2.2h-0.8v-4.9zm5.5 0v4.2h2.2v-4.2h0.9v4.2h0.5l-0.1 2.2h-0.6l-0.1-1.5h-3.7v-4.9zm5.1 2.6c0.1 1.2 0.8 1.7 1.7 1.7 0.6 0 1-0.1 1.3-0.2l0.2 0.6c-0.3 0.1-0.8 0.3-1.6 0.3-1.5 0-2.4-1-2.4-2.5 0-1.4 0.9-2.6 2.3-2.6 1.6 0 2 1.4 2 2.3q0 0.3 0 0.4zm2.5-0.6c0.1-0.6-0.2-1.5-1.2-1.5-0.9 0-1.3 0.9-1.3 1.5zm5.6-2v4.9h-0.9v-4.2h-1.6v1.3c0 1.3-0.2 2.3-0.8 2.7-0.2 0.2-0.5 0.3-1 0.3v-0.7c0.1-0.1 0.3-0.1 0.4-0.2 0.5-0.4 0.5-1 0.5-2.1v-2zm5.1 4.9h-0.9v-2h-0.7q-0.5 0-0.8 0.2c-0.3 0.3-0.5 0.9-0.7 1.4q0 0.2-0.2 0.4h-0.9q0.2-0.2 0.3-0.6c0.2-0.4 0.3-1.1 0.8-1.4q0.2-0.2 0.5-0.3c-0.6-0.1-1.3-0.5-1.3-1.2 0-0.5 0.3-0.9 0.7-1.1 0.4-0.2 1-0.3 1.6-0.3 0.6 0 1.2 0 1.6 0.1zm-0.9-4.3c-0.2-0.1-0.4-0.1-0.7-0.1-0.6 0-1.4 0.2-1.4 0.9 0 0.6 0.8 0.8 1.3 0.8 0.4 0 0.6 0 0.8 0zm2.3 1c0-0.6 0-1.1 0-1.6h0.8v0.9h0.1c0.3-0.6 0.9-1 1.7-1 1.2 0 2.1 1 2.1 2.5 0 1.8-1.1 2.6-2.3 2.6-0.6 0-1.2-0.3-1.5-0.7v2.6h-0.9zm0.9 1.3q0 0.2 0.1 0.4c0.1 0.6 0.6 1 1.3 1 0.9 0 1.5-0.8 1.5-1.9 0-1-0.5-1.8-1.5-1.8-0.6 0-1.2 0.4-1.3 1.1q-0.1 0.2-0.1 0.4zm8.3 1.8c-0.2 0.1-0.7 0.2-1.4 0.2-1.4 0-2.4-1-2.4-2.4 0-1.5 1-2.6 2.6-2.6 0.6 0 1 0.1 1.3 0.2l-0.2 0.7c-0.3-0.1-0.6-0.2-1.1-0.2-1.1 0-1.7 0.8-1.7 1.8 0 1.1 0.7 1.8 1.7 1.8 0.5 0 0.8-0.1 1.1-0.2zm1.9-4.7v2.1h0.2l1.9-2.1h1l-2.1 2.2c0.8 0.1 1.3 0.6 1.7 1.5 0.1 0.3 0.3 0.8 0.5 1.2h-1c-0.1-0.2-0.2-0.6-0.4-1-0.3-0.8-0.8-1.2-1.6-1.2h-0.2v2.2h-0.9v-4.9zm4.4 0l1 2.9c0.1 0.3 0.3 0.7 0.3 1h0.1c0.1-0.3 0.2-0.7 0.3-1l0.9-2.9h1l-1.3 3.5c-0.7 1.7-1.1 2.5-1.7 3-0.5 0.4-0.9 0.6-1.1 0.6l-0.2-0.7c0.2-0.1 0.5-0.2 0.7-0.5 0.3-0.2 0.6-0.5 0.8-1q0.1-0.1 0.1-0.2 0 0-0.1-0.2l-1.8-4.5zm5.3 0v2.1h0.8c0.2-1.3 1-2.2 2.2-2.2 1.2 0 2.1 1 2.1 2.5 0 1.6-1 2.6-2.2 2.6-1.2 0-2-0.9-2.1-2.3h-0.8v2.2h-0.9v-4.9zm3 4.3c0.9 0 1.3-1 1.3-1.9 0-0.9-0.5-1.8-1.3-1.8-0.9 0-1.3 0.9-1.3 1.9 0 0.9 0.4 1.8 1.3 1.8zm9.4-4.3v4.9h-0.9v-4.2h-2.2v4.2h-0.9v-4.9zm1.4 1.6c0-0.6 0-1.1 0-1.6h0.8v0.8c0.4-0.6 1-0.9 1.8-0.9 1.2 0 2 1 2 2.5 0 1.7-1 2.6-2.2 2.6-0.6 0-1.2-0.3-1.5-0.8v2.7h-0.9zm0.9 1.3q0 0.2 0 0.3c0.2 0.7 0.7 1.1 1.4 1.1 0.9 0 1.4-0.8 1.4-1.9 0-1-0.5-1.8-1.4-1.8-0.6 0-1.2 0.4-1.4 1.1q0 0.2 0 0.3zm6.8 2.1c-1.3 0-2.3-0.9-2.3-2.5 0-1.6 1.1-2.6 2.4-2.6 1.4 0 2.4 1 2.4 2.5 0 1.8-1.3 2.6-2.5 2.6zm0.1-0.6c0.8 0 1.5-0.8 1.5-1.9 0-0.9-0.4-1.9-1.5-1.9-1 0-1.5 1-1.5 1.9 0 1.1 0.6 1.9 1.5 1.9zm7.2-4.4v4.3h0.5l-0.1 2.2h-0.6l-0.1-1.6h-3.4v1.6h-0.7v-2.2h0.4q0.3-0.5 0.5-1 0.2-1 0.2-2v-1.3zm-2.4 1.5q0 1-0.3 1.8-0.1 0.5-0.4 0.9h2.3v-3.5h-1.6zm4.3-1.5l1.1 2.9c0.1 0.3 0.2 0.7 0.3 1 0.1-0.3 0.2-0.6 0.3-1l1-2.9h0.9l-1.3 3.5c-0.6 1.7-1.1 2.5-1.7 3.1-0.4 0.4-0.8 0.5-1.1 0.5l-0.2-0.7c0.2-0.1 0.5-0.2 0.8-0.4 0.2-0.2 0.5-0.6 0.8-1q0-0.2 0-0.2 0-0.1 0-0.3l-1.8-4.5zm5.3 0v2.2h0.2l1.8-2.2h1.1l-2.1 2.2c0.8 0.1 1.2 0.7 1.6 1.5 0.1 0.4 0.3 0.8 0.5 1.2h-0.9c-0.1-0.2-0.3-0.6-0.5-1-0.3-0.8-0.7-1.1-1.6-1.1h-0.1v2.1h-0.9v-4.9zm4.8 0v4.2h2.2v-4.2h0.9v4.3h0.5v2.2h-0.7l-0.1-1.6h-3.7v-4.9zm5.5 0v2.1c0 0.8 0 1.3-0.1 2h0.1c0.3-0.6 0.4-1 0.8-1.5l1.5-2.6h1v4.9h-0.8v-2.1c0-0.7 0-1.2 0-2-0.3 0.7-0.5 1.1-0.8 1.6-0.5 0.7-1 1.7-1.5 2.5h-1v-4.9zm5.6 0v2.1h0.8c0.2-1.3 1-2.2 2.2-2.2 1.2 0 2.1 1 2.1 2.5 0 1.6-1 2.6-2.2 2.6-1.2 0-2-0.8-2.1-2.2h-0.8v2.1h-0.9v-4.9zm3 4.4c0.9 0 1.3-1 1.3-1.9 0-1-0.5-1.9-1.3-1.9-0.9 0-1.3 0.9-1.3 1.9 0 1 0.4 1.9 1.3 1.9zm3.6 0.6c-0.3 0-0.6-0.2-0.6-0.6 0-0.4 0.3-0.6 0.7-0.6 0.3 0 0.5 0.2 0.5 0.6 0 0.4-0.2 0.6-0.6 0.6z"/>
			<path id="path138" class="s0" d="m380 570.6c0 13.8-11.2 25-25 25-13.8 0-25-11.2-25-25 0-13.7 11.2-24.9 25-24.9 13.8 0 25 11.2 25 24.9z"/>
			<path id="path140" class="s5" d="m352 575h1.3v-7.1h-1.3z"/>
			<path id="path142" class="s5" d="m360.1 570.9h-2.6c-1.4 0-1.4-0.3-1.4-0.9 0-0.9 0.4-1 2.1-1h0.9c2 0 2.2 0.2 2.3 0.6v0.2l1.2-0.1v-0.2c-0.1-1.1-0.9-1.6-2.9-1.6h-1.9c-1.9 0-2.9 0.4-2.9 2.1 0 1.9 1.2 2 3.7 2h1.7c1.1 0 1.3 0.2 1.3 0.9 0 0.8-0.2 1-1.5 1h-2.8c-1.1 0-1.2-0.3-1.2-0.8v-0.1h-1.2v0.2c0 1.8 1.8 1.8 2.6 1.8h2.5c1 0 2.8 0 2.8-1.9v-0.4c0-1.6-1.4-1.8-2.7-1.8z"/>
			<path id="path144" class="s5" d="m369.1 570.9h-2.6c-1.4 0-1.4-0.3-1.4-0.9 0-0.9 0.4-1 2.1-1h0.9c2 0 2.2 0.2 2.3 0.6v0.2l1.2-0.1v-0.2c-0.1-1.1-0.9-1.6-2.9-1.6h-1.9c-1.9 0-2.9 0.4-2.9 2.1 0 1.9 1.2 2 3.7 2h1.7c1.1 0 1.3 0.2 1.3 0.9 0 0.8-0.2 1-1.5 1h-2.8c-1.1 0-1.2-0.3-1.2-0.8v-0.1h-1.2v0.2c0 1.8 1.8 1.8 2.6 1.8h2.5c1 0 2.8 0 2.8-1.9v-0.4c0-1.6-1.4-1.8-2.7-1.8z"/>
			<path id="path146" class="s1" d="m344.3 571.5l-0.2 0.2-2.1 2.7-0.2 0.2h4.4l-0.6 0.8h-4.5l-0.2 0.3-0.1 0.1-0.5 0.7-0.2 0.2h6l2.5-3.1-0.2-0.3h-4.1l0.7-0.8h4.5l0.6-0.8 0.2-0.2z"/>
			<path id="path148" class="s7" d="m350.1 571.2l-2.3-2.9h-4.5l-0.7-0.8h4.1l0.2-0.2-0.8-1.1h-6l0.2 0.3 2.3 2.9 0.2 0.2h4.5l0.6 0.8h-4.4l0.1 0.3 0.5 0.5 0.2 0.3h6z"/>
			<path id="path150" class="s1" d="m341.1 571.5h1.5l-2.5 3.1h-1.5z"/>
			<path id="path152" class="s7" d="m342.6 571.5h-1.5l-0.8-1.1h1.4z"/>
			<path id="path154" class="s5" d="m203.4 613.7h3.8v-21.5h-3.8z"/>
			<path id="path156" class="s5" d="m228.1 601.2h-8c-4.2 0-4.4-0.8-4.4-2.6 0-2.8 1.2-3 6.5-3h2.9c5.9 0 6.5 0.4 6.8 1.7l0.1 0.5 3.6-0.1v-0.6c-0.4-3.5-2.9-4.9-8.9-4.9h-5.8c-5.6 0-8.8 1-8.8 6.2 0 6 3.7 6.3 11.4 6.3h5.2c3.3 0 3.8 0.6 3.8 2.6 0 2.3-0.7 3.1-4.5 3.1h-8.4c-3.6 0-3.9-1.1-3.9-2.3v-0.6l-3.6 0.1v0.5c0 5.6 5.6 5.6 8 5.6h7.4c3.2 0 8.6 0 8.6-5.8v-1.3c0-4.8-4.3-5.4-8-5.4z"/>
			<path id="path158" class="s5" d="m255.5 601.2h-8c-4.3 0-4.4-0.8-4.4-2.6 0-2.8 1.2-3 6.5-3h2.8c6 0 6.6 0.4 6.8 1.7l0.1 0.5 3.7-0.1-0.1-0.6c-0.3-3.5-2.8-4.9-8.9-4.9h-5.8c-5.5 0-8.8 1-8.8 6.2 0 6 3.8 6.3 11.5 6.3h5.1c3.3 0 3.8 0.6 3.8 2.6 0 2.3-0.6 3.1-4.5 3.1h-8.4c-3.5 0-3.8-1.1-3.8-2.3v-0.6l-3.6 0.1v0.5c0 5.6 5.5 5.6 7.9 5.6h7.5c3.2 0 8.6 0 8.6-5.8v-1.3c0-4.8-4.3-5.4-8-5.4z"/>
			<path id="path160" class="s1" d="m187.3 591h-12.5l-0.6-0.8h13.7z"/>
			<path id="path162" class="s1" d="m179.9 603l-0.6 0.7-6.5 8.1-0.6 0.7h13.6l-2.5 3.2h-12.5l-0.6-0.7-0.7 0.9-0.2 0.3-1.7 2-0.5 0.7h-0.1 18.3l7.8-9.5h-13.7l0.6-0.8 2-2.4h13.6l2-2.5 0.6-0.7z"/>
			<path id="path164" class="s7" d="m192.5 608.6l0.6 0.8h-13.7l0.6-0.8z"/>
			<path id="path166" fill-rule="evenodd" class="s8" d="m197.6 602.3v-0.1l-7.1-8.8h-13.7l-2-2.4-0.6-0.8h13.7l-2.6-3.2h-18.3l0.6 0.8 7.2 8.8 0.6 0.7 0.5-0.7h6.9 5.6l2.6 3.2h-13.6l0.6 0.7 1.4 1.8 0.5 0.7h18.3z"/>
			<path id="path168" class="s7" d="m183.9 615h-13.7l0.6 0.7h13.6 0.1z"/>
			<path id="path170" class="s1" d="m189.6 596.6h-13.7l-0.5 0.7h13.6z"/>
			<path id="path172" class="s1" d="m170.2 603h4.6l-7.7 9.5h-4.6z"/>
			<path id="path174" fill-rule="evenodd" class="s8" d="m174.8 603h-4.6l-2.6-3.2h4.6z"/>
			<g id="g176">
				<g id="text186">
					<text id="tspan178" style="transform: matrix(1.333,0,0,1.333,-12.397,-75.829)" >
						<tspan x="0" y="0" class="t9">
</tspan>
					</text>
					<text id="tspan180" style="transform: matrix(1.333,0,0,1.333,251.599,-50.29)" >
						<tspan x="0" y="0" class="t9">
</tspan>
					</text>
					<text id="tspan182" style="transform: matrix(1.333,0,0,1.333,335.049,436.184)" >
						<tspan x="0" y="0" class="t9">
</tspan>
					</text>
					<text id="tspan184" style="transform: matrix(1.333,0,0,1.333,515.046,461.723)" >
						<tspan x="0" y="0" class="t9">
</tspan>
					</text>
				</g>
			</g>
		</g>
	</g>
</svg>