<svg id="_1" data-name="1" xmlns="http://www.w3.org/2000/svg" viewBox="0 0 159.74 79.74"><defs><style>.cls-1{fill:#2b6bb4;}.cls-2,.cls-3{fill:#fff;}.cls-3{fill-rule:evenodd;}.cls-4{fill:none;}</style></defs><ellipse class="cls-1" cx="79.87" cy="39.87" rx="79.87" ry="39.87"/><path class="cls-1" d="M36.85,43.47a4.44,4.44,0,0,0,3.84-2.35A9.43,9.43,0,0,0,42.18,36a3.42,3.42,0,0,0-.79-2.4,2.85,2.85,0,0,0-2.2-.86,4.56,4.56,0,0,0-3.93,2.36,8.85,8.85,0,0,0-1.55,5,3.47,3.47,0,0,0,.88,2.48A3,3,0,0,0,36.85,43.47Z" transform="translate(-0.39 0)"/><path class="cls-2" d="M32.91,44.57a4.63,4.63,0,0,0,4.45,2.72,8.42,8.42,0,0,0,6.88-3.78,13.46,13.46,0,0,0,2.86-8.24,7.05,7.05,0,0,0-1.58-4.7,5.28,5.28,0,0,0-4.3-1.89,7.38,7.38,0,0,0-5.77,3h-.08l.55-2.55H31.47L22.93,67.61c1.36.7,2.78,1.38,4.24,2l5.68-25.07Zm2.35-9.5a4.56,4.56,0,0,1,3.93-2.36,2.85,2.85,0,0,1,2.2.86,3.42,3.42,0,0,1,.79,2.4,9.43,9.43,0,0,1-1.49,5.15,4.44,4.44,0,0,1-3.84,2.35,3,3,0,0,1-2.26-.95A3.47,3.47,0,0,1,33.71,40,8.85,8.85,0,0,1,35.26,35.07Z" transform="translate(-0.39 0)"/><path class="cls-3" d="M50.13,34.86q1.65-6.18,9.08-6.18a9.67,9.67,0,0,1,4.76,1,3.19,3.19,0,0,1,1.85,2.89,5.43,5.43,0,0,1-.11,1L63.59,43.76A5.65,5.65,0,0,0,63.48,45c0,.64.21,1,.63,1.13l-.15.7H59a8.86,8.86,0,0,1,0-2.1,8.63,8.63,0,0,1-6.35,2.56,5.09,5.09,0,0,1-3.49-1.11A4.12,4.12,0,0,1,47.87,43a5.73,5.73,0,0,1,1.74-4.26,7.73,7.73,0,0,1,4.5-2.09l5-.66c1.33-.17,2-.81,2-1.91a1.39,1.39,0,0,0-.69-1.28,3.63,3.63,0,0,0-1.84-.41c-2.1,0-3.41.83-3.89,2.51ZM60.2,38.25a12.24,12.24,0,0,1-4.35,1.09c-2.1.28-3.16,1.25-3.16,2.91a1.58,1.58,0,0,0,.53,1.27,2.29,2.29,0,0,0,1.51.45,5.71,5.71,0,0,0,3.16-1,3.75,3.75,0,0,0,1.8-2.27Z" transform="translate(-0.39 0)"/><path class="cls-3" d="M70.9,29.15h4.45L74.7,32.2h.06c1.57-2.35,3.37-3.52,5.42-3.52a7,7,0,0,1,1.07.07l-1,4.72A8.87,8.87,0,0,0,79,33.41a4.81,4.81,0,0,0-5.21,4.21l-2,9.21H67.13Z" transform="translate(-0.39 0)"/><path class="cls-3" d="M92.39,34.57a1.84,1.84,0,0,0,.07-.55,1.62,1.62,0,0,0-.67-1.37,3.2,3.2,0,0,0-1.93-.5,4.27,4.27,0,0,0-2.27.57,1.68,1.68,0,0,0-.92,1.48A1.07,1.07,0,0,0,87,35a3,3,0,0,0,1.22.53l3.78,1a6.22,6.22,0,0,1,3.15,1.68A4,4,0,0,1,96,40.9a5.41,5.41,0,0,1-2.68,4.8A11.48,11.48,0,0,1,87,47.43a10.15,10.15,0,0,1-5.16-1.2,3.79,3.79,0,0,1-2.06-3.44A6.17,6.17,0,0,1,80,41.26h4.68a3.82,3.82,0,0,0-.08.63,1.76,1.76,0,0,0,.8,1.57,4,4,0,0,0,2.2.53,5.08,5.08,0,0,0,2.62-.56,1.7,1.7,0,0,0,.91-1.54,1.27,1.27,0,0,0-.36-.93,3.31,3.31,0,0,0-1.46-.66L85,39.18a4.46,4.46,0,0,1-2.37-1.42,3.94,3.94,0,0,1-.88-2.67,5.39,5.39,0,0,1,2.57-4.66,10.86,10.86,0,0,1,6.27-1.75A8.07,8.07,0,0,1,95.26,30a3.9,3.9,0,0,1,1.88,3.42,3.31,3.31,0,0,1-.22,1.2Z" transform="translate(-0.39 0)"/><path class="cls-3" d="M115,41.65q-2.62,5.64-9.29,5.64a7.28,7.28,0,0,1-5.08-1.77,6.37,6.37,0,0,1-2-5,12.4,12.4,0,0,1,3.06-8.32,9.69,9.69,0,0,1,7.7-3.57,6.37,6.37,0,0,1,6.83,6.77,14.57,14.57,0,0,1-.56,3.8H103.34a8.54,8.54,0,0,0,0,.89q0,3.42,3.12,3.42a4,4,0,0,0,3.76-1.91Zm-3.47-5.42a8.31,8.31,0,0,0,.08-1,2.7,2.7,0,0,0-.73-2.06,3,3,0,0,0-2.1-.69q-3.17,0-4.69,3.72Z" transform="translate(-0.39 0)"/><path class="cls-3" d="M130.1,35.47v-.26a2.29,2.29,0,0,0-2.56-2.62,4.17,4.17,0,0,0-3.66,2.34,9.83,9.83,0,0,0-1.4,5.12,4,4,0,0,0,.7,2.51,2.35,2.35,0,0,0,2,.91c1.71,0,3-1,3.87-3.09h4.72q-2.56,6.94-9.15,6.95a7,7,0,0,1-5-1.84,6.27,6.27,0,0,1-1.94-4.77,12.72,12.72,0,0,1,3.05-8.37,9.55,9.55,0,0,1,7.68-3.67,7.34,7.34,0,0,1,4.69,1.5,4.84,4.84,0,0,1,1.9,4,7.94,7.94,0,0,1-.13,1.31Z" transform="translate(-0.39 0)"/><path class="cls-4" d="M32.91,44.57a4.63,4.63,0,0,0,4.45,2.72,8.42,8.42,0,0,0,6.88-3.78,13.46,13.46,0,0,0,2.86-8.24,7.05,7.05,0,0,0-1.58-4.7,5.28,5.28,0,0,0-4.3-1.89,7.38,7.38,0,0,0-5.77,3h-.08l.55-2.55H31.47l-5,22.67h4.78l1.64-7.25Z" transform="translate(-0.39 0)"/><path class="cls-1" d="M22.93,67.61,26,53.71H5.36C9.26,59,15.28,63.67,22.93,67.61Z" transform="translate(-0.39 0)"/><polygon class="cls-2" points="26.04 51.82 25.62 53.71 30.39 53.71 30.82 51.82 26.04 51.82"/><path class="cls-2" d="M4.06,51.82c.41.64.84,1.27,1.3,1.89H26l.42-1.89Z" transform="translate(-0.39 0)"/><path class="cls-2" d="M31.21,51.82l-.43,1.89h124.4q.69-.93,1.29-1.89Z" transform="translate(-0.39 0)"/></svg>