<svg width="99" height="26" viewBox="0 0 99 26" fill="none" xmlns="http://www.w3.org/2000/svg">
    <g id="logo">
        <path id="logo_2" fill-rule="evenodd" clip-rule="evenodd"
              d="M70.012 25.1282C72.0602 25.1168 74.2493 24.82 76.3545 23.3285V16.6317C75.1173 17.9102 73.1871 19.1963 70.7887 19.1963C67.5261 19.2001 64.785 16.9323 64.785 12.762C64.7888 9.0484 66.9893 5.95495 70.7963 5.94734C73.6135 5.94734 75.4904 7.76612 76.3622 8.78966V1.88363C74.3749 0.548087 72.0412 -0.0112439 69.9511 0.000171019C63.8904 0.00397599 57.9628 4.28457 57.9552 12.5794C57.9476 20.5508 63.346 25.1282 70.012 25.1282ZM9.89445 0.674867H9.11401L0 0.686283V24.4179H6.52904L6.53665 16.6481H9.86018C16.6709 16.6405 18.4869 11.8006 18.4869 8.6577C18.4869 5.51479 16.69 0.663453 9.89445 0.671063V0.674867ZM9.56324 11.325C9.41476 11.3744 9.2739 11.3897 9.12162 11.4049H6.56711V5.94475H8.43636C8.68762 5.94475 8.98837 5.95997 9.15969 5.979C11.383 6.16164 11.6343 7.65318 11.6343 8.69194C11.6343 9.28932 11.581 10.876 9.56324 11.325ZM20.404 24.4206V0.689035H34.5547V6.42693H26.9939V9.7715H33.8123V15.0148L26.9939 15.0224V18.7817H34.5394V24.4206H20.404ZM98.0014 16.2469C98.009 11.4032 94.8568 7.42321 88.2782 7.44223C81.7149 7.44223 78.5399 11.4184 78.5361 16.2545C78.5246 21.2543 81.7873 25.0212 88.263 25.0174C94.8339 25.0174 98.0014 21.0831 98.0014 16.2469ZM91.8835 16.2469C91.8835 16.8748 91.8264 20.7863 88.2706 20.7863C84.6958 20.7863 84.6578 16.8786 84.654 16.2469C84.6616 13.6291 85.8303 11.7076 88.2782 11.7C90.6767 11.7076 91.8949 13.6139 91.8873 16.2469H91.8835ZM56.5577 8.66417C56.5577 11.1222 55.4575 14.6037 51.7342 16.004L57.5704 24.4206H49.6327L46.9792 20.3683L44.6455 16.6508H44.6379L44.6265 24.4206H38.0708V0.688951H47.8206C47.8473 0.688951 47.8791 0.688728 47.9154 0.688473C48.0911 0.687238 48.3738 0.685251 48.7114 0.704172C54.8978 1.06184 56.5577 5.66585 56.5577 8.66417ZM47.1924 11.419C47.3447 11.4037 47.4855 11.3885 47.634 11.3391C49.6517 10.8901 49.705 9.30341 49.705 8.70603C49.705 7.66727 49.4538 6.17572 47.2305 5.99308C47.063 5.97406 46.7584 5.95884 46.5071 5.95884H44.6379V11.419H47.1924Z"
              fill="Blue"/>
    </g>
</svg>
